<?xml version="1.0" standalone="no"?>
<!DOCTYPE svg PUBLIC "-//W3C//DTD SVG 20010904//EN"
 "http://www.w3.org/TR/2001/REC-SVG-20010904/DTD/svg10.dtd">
<svg version="1.0" xmlns="http://www.w3.org/2000/svg"
 width="910.000000pt" height="910.000000pt" viewBox="0 0 910.000000 910.000000"
 preserveAspectRatio="xMidYMid meet">
<metadata>
Created by potrace 1.11, written by Peter Selinger 2001-2013
</metadata>
<g transform="translate(0.000000,910.000000) scale(0.100000,-0.100000)"
fill="#000000" stroke="none">
<path d="M7995 6399 c-130 -19 -321 -94 -434 -172 -112 -77 -239 -198 -423
-404 -201 -225 -304 -321 -401 -369 -58 -30 -89 -35 -912 -159 -91 -14 -323
-49 -855 -130 -162 -25 -428 -65 -590 -90 -162 -25 -340 -52 -395 -60 -55 -9
-158 -24 -230 -35 -71 -11 -308 -47 -525 -80 -217 -33 -530 -80 -695 -105
-165 -25 -327 -50 -361 -55 -131 -21 -253 -8 -419 47 -70 23 -272 121 -545
265 -177 94 -312 124 -510 115 -140 -7 -212 -23 -315 -71 -181 -85 -309 -238
-360 -431 -25 -96 -30 -247 -11 -339 32 -155 116 -323 233 -469 l65 -80 -13
-61 c-21 -94 -16 -318 11 -446 38 -188 100 -311 209 -421 132 -132 261 -177
475 -166 151 8 252 34 381 97 181 89 299 198 537 495 75 94 170 203 213 243
116 109 152 122 445 165 357 53 2296 344 2490 373 91 14 237 36 325 49 340 50
577 85 740 110 94 15 226 35 295 45 69 10 204 31 300 45 357 55 526 22 990
-195 358 -167 418 -185 635 -185 114 0 168 5 225 19 261 65 440 236 507 486
12 47 17 103 17 200 0 126 -2 141 -32 230 -50 145 -140 300 -234 405 -37 41
-44 54 -37 72 18 49 27 211 18 321 -32 407 -217 676 -506 737 -74 16 -213 18
-308 4z m288 -154 c130 -34 219 -111 287 -247 68 -139 83 -215 84 -418 1 -193
-8 -238 -77 -380 -31 -62 -36 -67 -109 -105 -43 -22 -78 -42 -78 -45 0 -3 42
-2 94 1 107 7 149 26 195 90 l28 38 35 -47 c134 -179 197 -324 205 -472 16
-277 -136 -494 -397 -566 -93 -26 -320 -26 -410 0 -72 21 -210 80 -435 184
-317 147 -472 192 -685 199 -118 4 -171 1 -285 -17 -77 -12 -196 -30 -265 -40
-69 -10 -546 -82 -1060 -159 -1764 -265 -2815 -422 -2950 -442 -169 -24 -244
-48 -331 -104 -96 -62 -184 -153 -342 -352 -75 -94 -164 -201 -197 -237 -121
-129 -271 -224 -421 -266 -97 -27 -267 -37 -340 -20 -223 52 -360 259 -390
590 -9 103 -5 231 8 253 7 11 42 -21 58 -53 7 -14 18 -61 24 -105 6 -43 12
-80 14 -81 1 -1 15 40 30 92 28 93 28 94 12 150 -15 50 -28 68 -123 163 -144
143 -226 269 -283 436 -31 89 -33 256 -5 350 54 181 179 303 371 362 48 14 92
18 215 18 153 -1 156 -1 245 -36 50 -19 172 -78 271 -132 302 -162 430 -215
597 -248 144 -28 225 -24 555 26 164 25 401 61 527 80 127 19 257 39 290 45
33 5 166 26 295 45 129 19 278 42 330 50 52 8 201 31 330 50 457 69 897 136
1050 160 85 13 290 44 455 69 963 146 1010 154 1067 179 134 59 242 154 463
402 296 333 444 448 660 515 133 41 287 51 388 25z"/>
</g>
</svg>
