<?xml version="1.0" encoding="UTF-8"?>
<svg width="108px" height="127px" viewBox="0 0 108 127" version="1.1" xmlns="http://www.w3.org/2000/svg" xmlns:xlink="http://www.w3.org/1999/xlink">
    <!-- Generator: Sketch 57.1 (83088) - https://sketch.com -->
    <title>10_illu_gesundheitskurse</title>
    <desc>Created with Sketch.</desc>
    <defs>
        <rect id="path-1" x="0" y="0" width="113" height="138"></rect>
        <polygon id="path-3" points="0.498862315 0.587023868 4.97888733 0.587023868 4.97888733 5.08702387 0.498862315 5.08702387"></polygon>
        <polygon id="path-5" points="0.248887331 0.601023868 30.5666774 0.601023868 30.5666774 19.7994239 0.248887331 19.7994239"></polygon>
        <polygon id="path-7" points="0.225234585 0.5614 4.28144199 0.5614 4.28144199 6.49215 0.225234585 6.49215"></polygon>
        <polygon id="path-9" points="0.885695428 0.117183251 6.53512555 0.117183251 6.53512555 3.9024 0.885695428 3.9024"></polygon>
        <polygon id="path-11" points="0.153448871 0.351716585 4.20965627 0.351716585 4.20965627 6 0.153448871 6"></polygon>
    </defs>
    <g id="Layouts" stroke="none" stroke-width="1" fill="none" fill-rule="evenodd">
        <g id="01_1920_IKKBB_startseite_Navigation" transform="translate(-890.000000, -3867.000000)">
            <g id="Leistungen-der-IKKBB" transform="translate(296.000000, 853.000000)">
                <g id="Gesundheitskurse" transform="translate(529.885695, 3014.000000)">
                    <g id="warrior" transform="translate(59.114305, 0.000000)">
                        <mask id="mask-2" fill="white">
                            <use xlink:href="#path-1"></use>
                        </mask>
                        <g id="Background"></g>
                        <g stroke-width="1" fill-rule="evenodd" mask="url(#mask-2)">
                            <polygon id="Path-8" fill="#009EE0" points="57.3856954 82.5786911 71.8856954 82.5786911 73.8856954 59.1922642 70.8856954 57.1424934 68.8547754 20 61.3856954 18.5 60.8856954 52.7588399 57.3856954 63.7886297"></polygon>
                            <path d="M110.853543,122.625 L101.081598,122.625 L97.3688146,115.478027 L97.3688146,95.9802245 C97.3688146,91.3822021 94.6280676,87.3763427 90.5494806,86.0134276 L74.9659457,80.8044433 L74.9659457,63.0361328 C74.9659457,61.3852539 74.5128575,59.8309326 73.7185646,58.5252685 C78.140737,56.8829346 81.3274306,52.3592529 81.3274306,47.046875 C81.3274306,40.7176513 76.8052774,35.5061036 71.0579611,34.9566651 L71.0579611,25.9511719 C71.0579611,19.9124755 66.4961331,15 60.8884727,15 C59.7664644,15 58.8571142,15.9792479 58.8571142,17.1875 L58.8571142,34.6473388 C58.8475922,34.6473388 58.8388637,34.6456299 58.8293417,34.6456299 C57.0622184,34.6071776 55.3911088,35.3189698 54.1199228,36.6391602 C52.8487367,37.9593505 52.1306198,39.7341307 52.0988798,41.635376 C52.0322258,45.560913 54.9443686,48.8122557 58.589705,48.8840333 L58.7079363,48.8865966 C58.3548291,52.4643555 57.3708899,56.0002443 55.8037285,59.2541505 C55.2451049,60.4145508 54.9491297,61.7219239 54.9491297,63.0361328 L54.9491297,81.8503417 L50.0556188,91.3454589 L23.8383983,109.094971 C21.3444296,110.783447 19.8550313,113.685303 19.8550313,116.858032 L19.8550313,122.625 L10.9170539,122.625 C9.79504565,122.625 8.88569543,123.604248 8.88569543,124.8125 C8.88569543,126.020752 9.79504565,127 10.9170539,127 L110.854337,127 C111.975552,127 112.885695,126.020752 112.885695,124.8125 C112.885695,123.604248 111.975552,122.625 110.853543,122.625 Z M76.8856954,47.5 C76.8856954,51.3183334 74.2715303,54.4850001 70.8856954,55 L70.8856954,40 C74.2715303,40.5149999 76.8856954,43.6816666 76.8856954,47.5 Z M62.8288386,20 C65.2224321,20.8960284 66.9417515,23.31539 66.9417515,26.1526723 L66.9417515,57.2347729 C66.9417515,58.1808164 67.5199296,59.0175051 68.3719817,59.303183 C69.8750849,59.8084179 70.8856954,61.2715636 70.8856954,62.9432459 L70.8856954,80 L58.8856954,80 L58.8856954,62.9432459 C58.8856954,62.3235705 59.0210307,61.733565 59.2868966,61.1893359 C61.6044142,56.4599669 62.8288386,51.1999322 62.8288386,45.9763488 L62.8288386,20 Z M56.6797691,43.2328618 C56.1545485,42.7533033 55.872077,42.1214052 55.8862006,41.4545313 C55.8994415,40.7876575 56.2075122,40.1650863 56.7530352,39.7018499 C57.2853176,39.2502721 57.9826691,39.0023318 58.7197434,39.0023318 C58.7515214,39.0023318 58.7832995,39.0031092 58.8150775,39.0031092 C58.8389111,39.0031092 58.8618618,39.0007774 58.8856954,39 L58.8856954,44 L58.6703109,43.996891 C57.9129339,43.9844552 57.2058724,43.7131974 56.6797691,43.2328618 Z M39.5293166,113.491246 C39.0366477,112.407484 37.8235592,111.959973 36.8192423,112.492887 L27.8499797,117.25068 C27.7163344,117.321564 27.590597,117.408675 27.4743493,117.509451 L23.8856954,120.624092 L23.8856954,117.236161 C23.8856954,115.578492 24.6614709,114.061737 25.9615474,113.178672 L52.5292906,95.1398808 C52.8179328,94.9443083 53.0567547,94.6718734 53.222032,94.3507587 L58.0277286,85 L68.9534322,85 L63.1054603,94.4797168 C60.6642583,98.4364312 57.2851666,101.635622 53.3335351,103.731408 L49.1422908,105.955298 C48.1387646,106.487358 47.7251758,107.797438 48.2178447,108.8812 C48.7113044,109.964962 49.9243929,110.412473 50.927919,109.879559 L55.1183724,107.656523 C59.7113434,105.21998 63.6376692,101.502394 66.4750624,96.9034499 L68.0645719,94.3268456 L84.6191956,100.91226 L84.6191956,121.122845 C84.6191956,121.777031 84.7125102,122.407304 84.8856954,123 L27.611158,123 L29.8364713,121.068187 L38.6048704,116.417148 C39.6083965,115.885088 40.0219854,114.575008 39.5293166,113.491246 L39.5293166,113.491246 Z M91.0940903,123 C90.1272271,123 89.3406538,122.149286 89.3406538,121.10358 L89.3406538,99.1454942 C89.3406538,98.2205799 88.8069646,97.3922985 88.0044363,97.0730651 L70.8856954,90.2526849 L73.1074064,86.6453466 L74.1213361,85 L89.7674457,90.2509594 C92.1487049,91.0507685 93.748975,93.3992916 93.748975,96.096383 L93.748975,116.359944 C93.748975,116.737847 93.838322,117.108848 94.008241,117.438435 L96.8856954,123 L91.0940903,123 Z" id="Shape" fill="#1E3358" fill-rule="nonzero"></path>
                            <g id="Group-7" transform="translate(28.712302, 89.550079) scale(-1, 1) rotate(170.000000) translate(-28.712302, -89.550079) translate(11.712302, 76.050079)">
                                <g id="Group-3" transform="translate(29.000000, 20.485700)">
                                    <mask id="mask-4" fill="white">
                                        <use xlink:href="#path-3"></use>
                                    </mask>
                                    <g id="Clip-2"></g>
                                    <path d="M2.72898733,5.08702387 C3.96898733,5.08702387 4.97898733,4.07702387 4.97898733,2.83702387 C4.97898733,1.59702387 3.96898733,0.587023868 2.72898733,0.587023868 C-0.245012669,0.587023868 -0.244012669,5.08702387 2.72898733,5.08702387" id="Fill-1" fill="#263357" mask="url(#mask-4)"></path>
                                </g>
                                <g id="Group-6" transform="translate(0.000000, 0.485700)">
                                    <mask id="mask-6" fill="white">
                                        <use xlink:href="#path-5"></use>
                                    </mask>
                                    <g id="Clip-5"></g>
                                    <path d="M1.87938733,4.56742387 C11.6003873,6.39542387 20.5383873,11.5584239 27.0493873,19.1064239 C27.4443873,19.5644239 28.0033873,19.7994239 28.5653873,19.7994239 C30.2623873,19.7994239 31.1993873,17.7934239 30.0783873,16.4934239 C22.9783873,8.26242387 13.2263873,2.63042387 2.61938733,0.635423868 C1.52638733,0.432423868 0.48738733,1.14742387 0.28338733,2.23142387 C0.0793873304,3.31742387 0.79438733,4.36342387 1.87938733,4.56742387" id="Fill-4" fill="#263357" mask="url(#mask-6)"></path>
                                </g>
                            </g>
                            <path d="M20.3753425,28.3607429 C25.545546,30.2995173 31.3080451,27.6798348 33.2460865,22.510235 C35.1855233,17.3406352 32.5658884,11.5773337 27.3956849,9.63925706 C22.2261791,7.70048272 16.4643776,10.3201652 14.5249409,15.489765 C12.5862018,20.6593648 15.2058366,26.4226663 20.3753425,28.3607429" id="Fill-1" fill="#E2001A"></path>
                            <path d="M29.2673797,5.84137759 C29.4323797,5.90157759 29.6023797,5.93097759 29.7688082,5.93097759 C30.3473797,5.93097759 30.8909511,5.58377759 31.1066654,5.02167759 L32.3045225,1.89057759 C32.5816654,1.16677759 32.2066654,0.359677586 31.468094,0.0880775859 C30.7302368,-0.180022414 29.9066654,0.183977586 29.6288082,0.907777586 L28.4309511,4.03887759 C28.1538082,4.76267759 28.5288082,5.56977759 29.2673797,5.84137759" id="Fill-3" fill="#F86464"></path>
                            <path d="M17.4433189,5.59523197 C17.6675012,6.12481457 18.1540101,6.43882759 18.6619335,6.43882759 C18.8479713,6.43882759 19.0360167,6.39643224 19.2146933,6.30876727 C19.8879093,5.98038295 20.1857037,5.12888312 19.8798789,4.40672503 L18.556869,1.28168473 C18.250375,0.55808951 17.4546953,0.239765101 16.7854946,0.568149424 C16.1122786,0.896533747 15.8144842,1.74803358 16.120309,2.47019166 L17.4433189,5.59523197 Z" id="Fill-6" fill="#E2001A"></path>
                            <path d="M9.84762729,14.2558943 C10.0016273,14.3132276 10.160294,14.3412276 10.3156273,14.3412276 C10.8556273,14.3412276 11.3629606,14.0105609 11.564294,13.4752276 C11.8229606,12.7858943 11.4729606,12.0178943 10.7836273,11.7585609 L7.80229395,10.6398943 C7.11229395,10.3845609 6.34429395,10.7312276 6.08496062,11.4205609 C5.82696062,12.1098943 6.17629395,12.8785609 6.86562729,13.1372276 L9.84762729,14.2558943 Z" id="Fill-8" fill="#F86464"></path>
                            <path d="M37.4380414,13.4388276 C37.637116,13.4388276 37.8397839,13.3993522 38.0316717,13.317725 L41.1572141,11.9956328 C41.8802069,11.6898655 42.1993012,10.8963425 41.8708641,10.2239221 C41.542427,9.55016353 40.6871969,9.25309422 39.9685162,9.55953058 L36.8429738,10.8822919 C36.119981,11.1880592 35.8008867,11.9809131 36.1293238,12.6533335 C36.3700819,13.1464418 36.8918441,13.4388276 37.4380414,13.4388276" id="Fill-20" fill="#E2001A"></path>
                            <g id="Group-22" transform="translate(0.000000, 23.000000)">
                                <g id="Group-5" transform="translate(23.000000, 170.000000)">
                                    <mask id="mask-8" fill="white">
                                        <use xlink:href="#path-7"></use>
                                    </mask>
                                    <g id="Clip-4"></g>
                                </g>
                                <g id="Group-10" transform="translate(0.000000, 181.000000)">
                                    <mask id="mask-10" fill="white">
                                        <use xlink:href="#path-9"></use>
                                    </mask>
                                    <g id="Clip-9"></g>
                                </g>
                                <path d="M9.85407957,1.12070299 L6.72847846,2.44346432 C6.00619078,2.74923161 5.68637186,3.54208552 6.01481511,4.21450592 C6.25557767,4.70761421 6.77806836,5 7.32355726,5 C7.52335425,5 7.72530733,4.96052457 7.91791737,4.87889742 L11.0427998,3.55680517 C11.7658062,3.25103788 12.0849064,2.4575149 11.7564631,1.7850945 C11.4280199,1.11133594 10.5727738,0.814266631 9.85407957,1.12070299" id="Fill-11" fill="#F86464"></path>
                                <g id="Group-15" transform="translate(16.000000, 8.000000)">
                                    <mask id="mask-12" fill="white">
                                        <use xlink:href="#path-11"></use>
                                    </mask>
                                    <g id="Clip-14"></g>
                                    <path d="M3.28190971,0.4356 C2.54333828,0.180266667 1.71976686,0.526933333 1.442624,1.21626667 L0.244766856,4.19826667 C-0.0323760008,4.8876 0.342623999,5.65626667 1.08119543,5.91493333 C1.24619543,5.97226667 1.41619543,6.00026667 1.582624,6.00026667 C2.16119543,6.00026667 2.70476686,5.6696 2.92048114,5.13426667 L4.11833828,2.15226667 C4.39548114,1.46293333 4.02048114,0.694266667 3.28190971,0.4356" id="Fill-13" fill="#F86464" mask="url(#mask-12)"></path>
                                </g>
                                <path d="M29.6706296,8.12932184 C28.9973405,8.45770616 28.7001832,9.30992456 29.0060411,10.0313641 L30.3285253,13.1564044 C30.5527319,13.685987 31.0392937,14 31.5479415,14 C31.7333302,14 31.921396,13.9576046 32.1007613,13.8699397 C32.7740503,13.5415554 33.0712077,12.6900555 32.7653498,11.9678974 L31.4421963,8.84285714 C31.135669,8.11926192 30.3392337,7.80093751 29.6706296,8.12932184" id="Fill-16" fill="#E2001A"></path>
                                <path d="M42.7951779,3.08499102 C43.0698913,2.35664669 42.6981786,1.54447936 41.9660816,1.27117414 L38.7990891,0.0891994874 C38.0684081,-0.181992551 37.2513481,0.185701589 36.9759267,0.914045921 C36.7019213,1.64239025 37.072926,2.45385318 37.8050231,2.7278628 L40.9720155,3.90983745 C41.1355691,3.97041541 41.3040789,4 41.4690485,4 C42.0425482,4 42.5813546,3.65062013 42.7951779,3.08499102" id="Fill-18" fill="#E2001A"></path>
                            </g>
                        </g>
                    </g>
                </g>
            </g>
        </g>
    </g>
</svg>