<?xml version="1.0" encoding="UTF-8"?>
<svg width="138px" height="122px" viewBox="0 0 138 122" version="1.1" xmlns="http://www.w3.org/2000/svg" xmlns:xlink="http://www.w3.org/1999/xlink">
    <!-- Generator: Sketch 57.1 (83088) - https://sketch.com -->
    <title>11_illu_fitnessstudio</title>
    <desc>Created with Sketch.</desc>
    <defs>
        <rect id="path-1" x="0" y="0" width="149" height="157"></rect>
        <polygon id="path-3" points="0.0231954277 0.2661 4.75719543 0.2661 4.75719543 5 0.0231954277 5"></polygon>
        <polygon id="path-5" points="0.885995428 0.113 173.417695 0.113 173.417695 4.3207 0.885995428 4.3207"></polygon>
        <polygon id="path-7" points="0.0231954277 0.2661 4.75719543 0.2661 4.75719543 5 0.0231954277 5"></polygon>
        <polygon id="path-9" points="0.885995428 0.113 173.417695 0.113 173.417695 4.3207 0.885995428 4.3207"></polygon>
    </defs>
    <g id="Layouts" stroke="none" stroke-width="1" fill="none" fill-rule="evenodd">
        <g id="01_1920_IKKBB_startseite_Navigation" transform="translate(-1157.000000, -3881.000000)">
            <g id="Leistungen-der-IKKBB" transform="translate(296.000000, 853.000000)">
                <g id="Fitnessstudio-Zuschuss" transform="translate(816.000000, 3014.000000)">
                    <g id="running-shoes" transform="translate(42.871505, 0.000000)">
                        <mask id="mask-2" fill="white">
                            <use xlink:href="#path-1"></use>
                        </mask>
                        <g id="Background"></g>
                        <g stroke-width="1" fill-rule="evenodd" mask="url(#mask-2)">
                            <g transform="translate(-328.000000, 83.500000) rotate(10.000000) translate(328.000000, -83.500000) translate(-819.000000, -51.000000)">
                                <g id="Group-8" stroke-width="1" fill-rule="evenodd" transform="translate(819.557892, 0.154756)">
                                    <circle id="Oval" fill="#E2001A" fill-rule="nonzero" cx="31.1653613" cy="6.92894651" r="5.5"></circle>
                                    <circle id="Oval-Copy-5" fill="#E2001A" fill-rule="nonzero" cx="115.798222" cy="36.3128355" r="5.5"></circle>
                                    <path d="M69.4762097,26.582997 C70.5808694,26.582997 71.4762097,25.6876566 71.4762097,24.582997 C71.4762097,23.4783373 70.5808694,22.582997 69.4762097,22.582997 C68.37155,22.582997 67.4762097,23.4783373 67.4762097,24.582997 C67.4762097,25.6876566 68.37155,26.582997 69.4762097,26.582997 Z" id="Path" fill="#1E3358" fill-rule="nonzero"></path>
                                    <path d="M115.47621,42.582997 C118.78471,42.582997 121.47621,39.891497 121.47621,36.582997 C121.47621,33.274497 118.78471,30.582997 115.47621,30.582997 C112.16771,30.582997 109.47621,33.274497 109.47621,36.582997 C109.47621,39.891497 112.16721,42.582997 115.47621,42.582997 Z M115.47621,34.582997 C116.57871,34.582997 117.47621,35.480497 117.47621,36.582997 C117.47621,37.685497 116.57871,38.582997 115.47621,38.582997 C114.37371,38.582997 113.47621,37.685497 113.47621,36.582997 C113.47621,35.480497 114.37371,34.582997 115.47621,34.582997 Z" id="Shape" fill="#1E3358" fill-rule="nonzero"></path>
                                    <path d="M25.4762097,6.58299696 C25.4762097,9.89149696 28.1677097,12.582997 31.4762097,12.582997 C34.7847097,12.582997 37.4762097,9.89149696 37.4762097,6.58299696 C37.4762097,3.27449696 34.7847097,0.582996957 31.4762097,0.582996957 C28.1677097,0.582996957 25.4762097,3.27449696 25.4762097,6.58299696 Z M31.4762097,4.58299696 C32.5787097,4.58299696 33.4762097,5.48049696 33.4762097,6.58299696 C33.4762097,7.68549696 32.5787097,8.58299696 31.4762097,8.58299696 C30.3737097,8.58299696 29.4762097,7.68549696 29.4762097,6.58299696 C29.4762097,5.48049696 30.3737097,4.58299696 31.4762097,4.58299696 Z" id="Shape" fill="#1E3358" fill-rule="nonzero"></path>
                                    <polygon id="Path-2" fill="#006AB3" fill-rule="nonzero" points="83.0421999 88.1769871 102.937116 74.5979182 114.346201 72.5861887 118.885631 69.2613498 123.880757 70.9049892 126.75559 76.6176323 126.687706 86.8239859 101.716961 88.1775476"></polygon>
                                    <polygon id="Path-7" fill="#009EE0" points="36.1482186 73.106967 9.70697206 68.9583503 6.52461407 62.8520647 13.3119455 42.9625681 24.645758 54.2795885"></polygon>
                                    <path d="M127.972606,62.8555507 C127.895728,62.739119 127.808319,62.6301304 127.709325,62.5317749 C126.714646,61.527485 124.68053,60.2648125 117.719885,59.4051318 C117.719359,59.4051318 117.718832,59.4051318 117.718306,59.4051318 C117.718306,59.4051318 117.718306,59.4051318 117.717779,59.4051318 C115.555182,59.139306 113.068222,58.9314303 110.325352,58.788416 C103.598501,58.434336 97.0243539,57.036624 90.7861542,54.6351537 C82.7223583,51.5271184 74.0535408,47.4339328 67.0876301,44.1456676 C58.1844918,39.9424301 55.1751804,38.582997 53.6118129,38.582997 C49.8795297,38.582997 48.3840889,41.473055 48.2208542,43.6421936 C46.6948727,47.9969518 43.7808694,50.1932046 41.5824661,51.2724573 C38.3130323,52.8748552 34.3453752,53.1683269 31.2207464,52.0369723 C24.6265897,49.6498566 19.2093027,39.7882511 19.1550667,39.6893639 C18.6111264,38.6850741 17.374755,38.2969684 16.365859,38.8078856 C9.75169284,42.1466576 8.77333756,50.6801974 8.62853256,53.2783788 C4.31386992,58.4205131 4.09850539,67.138536 4.75460371,73.7299525 C4.97891983,75.9729906 5.88355619,78.0203809 7.2310326,79.628627 L6.53280919,81.0390987 C5.13320298,83.8653586 5.37384257,87.2360297 7.14783554,89.625272 C8.23203012,91.0830607 10.3019519,92.8204981 14.0073803,92.8204981 C15.2858769,92.8204981 18.6722078,93.1767047 22.9589626,93.6286086 C33.4902358,94.7365705 51.0384963,96.5840598 68.5272552,96.582997 C79.3886838,96.582997 90.2306296,95.8705834 99.3443934,93.824788 C109.947806,91.4456471 118.261719,88.8655419 124.056026,86.155182 C127.93522,84.3406551 129.840328,79.9481496 128.750868,75.9022809 C129.281117,75.2084756 129.733962,74.4657583 130.020939,73.6220272 C131.72016,68.618654 128.12689,63.0884141 127.972606,62.8555507 L127.972606,62.8555507 Z M126.242323,72.006922 C125.768655,73.4001404 124.538376,74.4174195 122.481274,75.1158977 C120.91356,75.6488345 119.263582,76.2640079 117.531341,76.9106877 C110.072644,79.6949885 100.99436,83.0757726 90.4762097,82.5230777 C94.0784954,78.7065457 99.1316509,74.1637672 104.103591,72.4752442 C113.295577,69.3523844 116.570382,69.2386413 116.576669,69.2381073 C117.733069,69.2381073 118.671497,68.2827728 118.672545,67.1042243 C118.672545,67.0828641 118.696647,65.4103612 119.157216,63.582997 C123.132568,64.1997724 124.450349,64.8977167 124.823939,65.164185 C125.600985,66.4698267 127.040851,69.6551651 126.242323,72.006922 L126.242323,72.006922 Z M16.24455,43.4631641 C18.4075342,46.8282608 23.311705,53.4941162 29.4202886,55.6842505 C33.5811315,57.1766848 38.8113326,56.8191334 43.0708286,54.7492377 C47.3398207,52.6756504 50.4186439,49.1138476 51.9744098,44.4503857 C52.0466851,44.235222 52.082559,44.0095111 52.082559,43.7827454 C52.082559,42.989593 52.4856126,42.5866885 53.1941218,42.582997 C54.0682839,42.6958524 57.3755394,44.1703565 61.1976906,45.9396559 L58.836345,49.9570994 C58.2460086,50.9611966 58.5820625,52.2537608 59.5875863,52.8444062 C59.9225851,53.0411122 60.2913475,53.1349827 60.6537792,53.1349827 C61.37706,53.1349827 62.0818763,52.7631925 62.4754339,52.0934428 L65.0398889,47.7300498 C66.5423715,48.432496 68.1340113,49.1750216 69.7704934,49.9333681 L67.276731,54.1759952 C66.6863946,55.1800924 67.0224485,56.4726566 68.0279723,57.063302 C68.3629711,57.260008 68.7317335,57.3538785 69.0941652,57.3538785 C69.817446,57.3538785 70.5222623,56.9820883 70.9158199,56.3123386 L73.6237705,51.704777 C75.1863946,52.4156609 76.7848927,53.1286543 78.3965796,53.8369015 L75.7176446,58.3954184 C75.1273082,59.3995156 75.4633621,60.6920797 76.4688859,61.2827252 C76.8038847,61.4794312 77.1726471,61.5733016 77.5350788,61.5733016 C78.2583596,61.5733016 78.9631759,61.2015114 79.3567335,60.5317617 L82.3010297,55.521823 C84.5500056,56.4716019 86.8026744,57.3886843 89.0173591,58.2335182 C95.6798778,60.7732935 102.69797,62.2504344 109.879605,62.624334 C111.515032,62.7097667 113.052333,62.8168211 114.47621,62.9465522 C114.306336,63.7048987 114.196077,64.4173647 114.124857,65.023831 C112.104313,65.3481586 108.387673,66.166097 102.209452,68.2249182 C95.2562494,70.5416193 88.4539282,77.2438626 84.594848,81.582997 C84.2155344,81.5223503 83.8356933,81.4553754 83.4511042,81.3789079 C73.7894234,79.4477083 53.1360905,78.6318794 36.9311191,78.2880393 C32.5666392,65.8713017 20.2977713,57.0627747 12.4762097,52.5163871 C12.6793192,50.4064118 13.4347809,45.9918647 16.24455,43.4631641 L16.24455,43.4631641 Z M8.73530514,72.9910838 C8.00824814,65.7278298 8.8276965,59.8881737 10.9878695,56.582997 C17.9219459,60.7254288 28.2325066,68.2971729 32.4762097,78.582997 C29.3028815,78.5264756 26.1972719,78.4778779 23.4066329,78.433506 C18.3529306,78.355327 13.5680031,78.2808456 12.5915945,78.2063642 C10.5243378,77.5370884 8.98255702,75.4611184 8.73530514,72.9910838 L8.73530514,72.9910838 Z M121.945136,82.9080589 C116.424804,85.3962178 108.397097,87.7885404 98.0874217,90.0189149 C74.962276,95.0188076 39.8937903,91.4620983 23.0399776,89.7534429 C18.2880261,89.2711859 15.1476197,88.9529271 13.6498307,88.9529271 C12.0493452,88.9529271 10.9075708,88.4814325 10.1597296,87.5123061 C9.33499768,86.4411934 9.24915393,84.8775738 9.94275031,83.5297142 L10.2882319,82.8573219 C10.6610992,83.0187576 11.0397596,83.1704558 11.4352728,83.2811546 C11.9445421,83.4231155 12.3837672,83.4543776 23.2416841,83.6183757 C26.9219054,83.6732126 31.1487881,83.7372744 35.3567115,83.8197859 L35.3988434,83.8197859 C35.6600611,83.8197859 35.9049528,83.7398368 36.142998,83.6506628 C52.2531827,83.9719967 73.0673938,84.7422753 82.5565507,86.5882792 C83.3955021,86.7512523 84.2197074,86.8722009 85.0428593,86.9895621 L85.0439126,86.9895621 C87.4733432,87.3360081 89.8248298,87.4892439 92.1031122,87.4892439 C102.369603,87.4892439 111.106705,84.3763545 118.386044,81.7815968 C120.087119,81.1758287 121.706564,80.5982478 123.246485,80.0990785 C123.696243,79.9530177 124.06911,79.757245 124.47621,79.582997 C124.263444,80.9892808 123.359188,82.2705162 121.945136,82.9080589 L121.945136,82.9080589 Z" id="Shape" fill="#1E3358" fill-rule="nonzero" transform="translate(67.476210, 67.582997) rotate(10.000000) translate(-67.476210, -67.582997) "></path>
                                </g>
                                <g id="Group-9" stroke-width="1" fill-rule="evenodd" transform="translate(894.966582, 109.084372) rotate(-10.000000) translate(-894.966582, -109.084372) translate(807.966582, 102.084372)">
                                    <g id="Group-3" transform="translate(140.000000, 8.887300)">
                                        <mask id="mask-4" fill="white">
                                            <use xlink:href="#path-3"></use>
                                        </mask>
                                        <g id="Clip-2"></g>
                                        <path d="M2.39019543,0.2661 C1.08519543,0.2661 0.0231954276,1.3281 0.0231954276,2.6331 C0.0231954276,3.9381 1.08519543,5.0001 2.39019543,5.0001 C3.69519543,5.0001 4.75719543,3.9381 4.75719543,2.6331 C4.75719543,1.3281 3.69519543,0.2661 2.39019543,0.2661" id="Fill-1" fill="#263357" mask="url(#mask-4)"></path>
                                    </g>
                                    <g id="Group-6" transform="translate(0.000000, 0.887300)">
                                        <mask id="mask-6" fill="white">
                                            <use xlink:href="#path-5"></use>
                                        </mask>
                                        <g id="Clip-5"></g>
                                        <path d="M150.747302,0.1127 L118.842943,0.1127 L111.196981,0.1127 L74.2114598,0.1127 L48.8326489,0.1127 L45.491263,0.1127 L17.0886884,0.1127 C16.1659958,0.1127 15.4179954,1.0547 15.4179954,2.2167 C15.4179954,3.3787 16.1659958,4.3207 17.0886884,4.3207 L150.747302,4.3207 C151.669995,4.3207 152.417995,3.3787 152.417995,2.2167 C152.417995,1.0547 151.669995,0.1127 150.747302,0.1127" id="Fill-4" fill="#263357" mask="url(#mask-6)"></path>
                                    </g>
                                    <path d="M136.253895,9.416 L26.8428954,9.416 C25.6808954,9.416 24.7388954,10.358 24.7388954,11.52 C24.7388954,12.683 25.6808954,13.624 26.8428954,13.624 L136.253895,13.624 C137.415895,13.624 138.357895,12.683 138.357895,11.52 C138.357895,10.358 137.415895,9.416 136.253895,9.416" id="Fill-7" fill="#263357" opacity="0.892299107"></path>
                                </g>
                                <g id="Group-9" stroke-width="1" fill-rule="evenodd" transform="translate(87.540791, 246.378191) rotate(-10.000000) translate(-87.540791, -246.378191) translate(0.540791, 239.378191)">
                                    <g id="Group-3" transform="translate(140.000000, 8.887300)">
                                        <mask id="mask-8" fill="white">
                                            <use xlink:href="#path-7"></use>
                                        </mask>
                                        <g id="Clip-2"></g>
                                    </g>
                                    <g id="Group-6" transform="translate(0.000000, 0.887300)">
                                        <mask id="mask-10" fill="white">
                                            <use xlink:href="#path-9"></use>
                                        </mask>
                                        <g id="Clip-5"></g>
                                    </g>
                                </g>
                                <text id="€" font-family="Bariol-Bold, Bariol" font-size="33.4706" font-weight="bold">
                                    <tspan x="849.215987" y="42.6242019" fill="#263357">€</tspan>
                                </text>
                            </g>
                        </g>
                    </g>
                </g>
            </g>
        </g>
    </g>
</svg>