<?xml version="1.0" encoding="UTF-8"?>
<svg width="137px" height="112px" viewBox="0 0 137 112" version="1.1" xmlns="http://www.w3.org/2000/svg" xmlns:xlink="http://www.w3.org/1999/xlink">
    <!-- Generator: Sketch 57.1 (83088) - https://sketch.com -->
    <title>10_illu_kindervorsroge_ikkids</title>
    <desc>Created with Sketch.</desc>
    <g id="Layouts" stroke="none" stroke-width="1" fill="none" fill-rule="evenodd">
        <g id="01_1920_IKKBB_startseite_Navigation" transform="translate(-1436.000000, -3891.000000)">
            <g id="Leistungen-der-IKKBB" transform="translate(296.000000, 853.000000)">
                <g id="Kindervorsorge-IKKids" transform="translate(1088.000000, 3032.000000)">
                    <g id="baby-boy" transform="translate(51.114305, 0.000000)">
                        <g>
                            <path d="M117.889961,62.3042828 C116.822746,61.7156474 115.619546,61.4066472 114.405015,61.4066472 C112.625879,61.4066472 110.932734,62.058017 109.622879,63.2206051 C108.311025,62.058017 106.617213,61.4066472 104.838078,61.4066472 C103.626879,61.4066472 102.423013,61.7156474 101.352465,62.3076197 C99.0520539,63.5823289 97.6215462,66.006946 97.6215462,68.6357834 C97.6215462,69.3752483 97.7368667,70.1113761 97.962175,70.8214759 C99.156709,75.9596886 108.681651,81.9955368 109.087606,82.2518134 C109.252254,82.3539237 109.4389,82.4066472 109.626879,82.4066472 C109.810192,82.4066472 109.996838,82.3539237 110.161486,82.2518134 C110.568108,81.9955368 120.085717,75.9596886 121.280251,70.8214759 C121.507559,70.1113761 121.621546,69.3752483 121.621546,68.6357834 C121.621546,66.006946 120.193705,63.5823289 117.889961,62.3042828 L143.548316,6.45652824" id="Fill-1" fill="#E2001A" transform="translate(120.584931, 44.431588) rotate(20.000000) translate(-120.584931, -44.431588) "></path>
                            <path d="M77.5874781,107.150838 C76.5284382,106.720711 75.3247206,107.241886 74.8999886,108.315005 C74.5451151,109.211468 73.6452205,109.813854 72.6609995,109.813854 L65.1104828,109.813854 C64.1262618,109.813854 63.2263672,109.211468 62.8714937,108.315005 C62.4467617,107.241886 61.2436642,106.721758 60.1840042,107.150838 C59.1245509,107.581173 58.609912,108.799551 59.0346441,109.87246 C60.027339,112.379962 62.4120391,114 65.1104828,114 L72.6609995,114 C75.3594432,114 77.7441433,112.379962 78.7366315,109.87246 C79.1615703,108.799551 78.6469314,107.581173 77.5874781,107.150838 Z" id="Path" fill="#1E3358" fill-rule="nonzero"></path>
                            <path d="M68.3856954,113 C76.3938243,113 82.8856954,105.836556 82.8856954,97 C82.8856954,88.163444 91.0892633,91 87.397537,84.3555513 C83.7058107,77.7111026 48.8031522,77.7111026 48.8031522,84.3555513 C48.8031522,91 60.3775666,113 68.3856954,113 Z" id="Oval" fill="#009EE0"></path>
                            <path d="M102.694074,96.2410932 C102.118525,93.2867956 100.290163,90.7291046 97.6766725,89.2186239 C98.1519874,88.8321434 98.5978468,88.4047365 99.0047146,87.9340825 C101.011718,85.6128788 101.90047,82.5444512 101.442531,79.5161063 C100.698938,74.5956523 98.5953038,69.9981795 95.3592208,66.2205011 C92.9362379,63.3921472 89.9580498,61.1129247 86.6249119,59.5113089 C90.7039742,55.179436 93.2062117,49.3590224 93.2062117,42.9671155 C93.2059998,31.9055871 85.7156045,22.5526318 75.5191141,19.6711157 C76.9079746,18.020346 77.665766,15.9579914 77.665766,13.7787644 C77.6659779,9.48950567 74.1605568,6 69.8522075,6 C69.8519956,6 69.8517836,6 69.8515717,6 C68.1124235,6 66.4834686,6.56305487 65.265196,7.58516085 C63.9187176,8.71464597 63.1772433,10.3021274 63.1770314,12.0550022 C63.1770314,13.2199288 64.125754,14.1646121 65.2961349,14.1646121 C66.4663039,14.1646121 67.4152384,13.2201397 67.4152384,12.0550022 C67.4152384,11.553126 67.6106198,11.1347904 67.9962966,10.8111762 C68.45148,10.4293369 69.1103093,10.2190088 69.8517836,10.2190088 L69.8519956,10.2190088 C71.8236095,10.2190088 73.4277708,11.8155615 73.4277708,13.7783425 C73.4277708,15.1078186 72.9077428,16.3575515 71.9634703,17.2975937 C71.0191978,18.2374249 69.7640528,18.7551231 68.4290175,18.7551231 C68.4288056,18.7551231 68.4288056,18.7551231 68.4285937,18.7551231 C68.3766757,18.7551231 68.3258172,18.7591314 68.2749587,18.7629287 C55.1458409,19.0869648 44.5653689,29.8200268 44.565157,42.9669045 C44.565157,49.3588114 47.0673945,55.179225 51.1464569,59.5110979 C47.8135308,61.1127137 44.8353427,63.3917253 42.4123598,66.2202901 C39.1762768,69.9979685 37.0726427,74.5954413 36.3288374,79.5156844 C35.871111,82.5442403 36.7596511,85.6126678 38.7666541,87.9338715 C39.1735219,88.4045255 39.6193813,88.8321434 40.0946962,89.218413 C37.4812059,90.7288936 35.6526314,93.2865846 35.0772948,96.2408823 C34.5002629,99.2027745 35.2406777,102.264451 37.1082437,104.640505 L41.6463038,110.413452 C43.4797522,112.745837 46.26489,114 49.0898669,114 C50.6936044,114 52.3104804,113.595799 53.7730857,112.755119 C57.8123089,110.433494 59.5431927,105.435406 57.7993824,101.12927 L55.046455,94.3304196 C54.8625168,93.8762206 54.6450968,93.4405862 54.4024594,93.0220396 L69.9452361,93.0220396 C71.115617,93.0220396 72.0643396,92.0773563 72.0643396,90.9124297 C72.0643396,89.7475031 71.115617,88.8028198 69.9452361,88.8028198 L50.3740436,88.8028198 L50.3740436,84.3555513 C50.3740436,83.7827922 50.8419417,83.3169904 51.4172783,83.3169904 L86.3543023,83.3169904 C86.929427,83.3169904 87.397537,83.7827922 87.397537,84.3555513 L87.397537,89.0945789 C85.2949625,90.2419957 83.6350687,92.0824193 82.7247018,94.3304196 L79.9717744,101.129059 C78.2279641,105.435406 79.9588479,110.433494 83.9980711,112.755119 C85.4608883,113.595799 87.0771285,114 88.6812899,114 C91.5060549,114 94.2916165,112.745626 96.1250649,110.413452 L100.662913,104.640505 C102.530903,102.264451 103.271106,99.2029855 102.694074,96.2410932 Z M48.8031522,42.9671155 C48.8031522,31.9433492 57.8125208,22.9745538 68.8856844,22.9745538 C79.9588479,22.9745538 88.9682165,31.9433492 88.9682165,42.9671155 C88.9682165,53.9908818 79.9592717,62.9596772 68.8856844,62.9596772 C57.8123089,62.9596772 48.8031522,53.9908818 48.8031522,42.9671155 Z M51.1161537,95.9079858 L53.8690811,102.707047 C54.8279754,105.075506 53.8756503,107.824539 51.6541941,109.101486 C49.4329497,110.378433 46.5651669,109.825082 44.9841038,107.813569 L40.4460436,102.040622 C39.3349976,100.627394 38.8946479,98.8063788 39.2379427,97.0444327 C39.5812375,95.2824865 40.6736353,93.7572386 42.2349908,92.8598106 C43.7961344,91.9623825 45.66921,91.7836986 47.3736049,92.3682715 C49.0779999,92.9532663 50.4420668,94.2437146 51.1161537,95.9079858 Z M86.3682884,74.8787619 C85.1979075,74.8787619 84.2491849,75.8234452 84.2491849,76.9883718 L84.2491849,79.0979816 L53.5361699,79.0979816 L53.5361699,76.9883718 C53.5361699,75.8234452 52.5874472,74.8787619 51.4170664,74.8787619 C50.2466855,74.8787619 49.2979628,75.8234452 49.2979628,76.9883718 L49.2979628,79.5412106 C47.4380257,80.355731 46.1356247,82.2067027 46.1356247,84.3557623 L46.1356247,87.3347423 C44.5308276,87.1750449 43.0417335,86.4109442 41.9785793,85.1814636 C40.7776833,83.7922855 40.2460002,81.956081 40.5197884,80.1437152 C41.7329752,72.1160168 47.1095646,65.4831925 54.6575995,62.5904954 C58.6610099,65.4751759 63.5769062,67.1786859 68.8856844,67.1786859 C74.1944625,67.1786859 79.1103589,65.4751759 83.1137692,62.5904954 C90.6618041,65.4831925 96.0383935,72.1160168 97.2515803,80.1437152 C97.5253685,81.956081 96.9936854,83.7922855 95.7925775,85.1814636 C94.7296352,86.4109442 93.2403292,87.1750449 91.6355321,87.3347423 L91.6355321,84.3557623 C91.6355321,82.2121877 90.3397003,80.3652243 88.4873919,79.5475395 L88.4873919,76.9883718 C88.4873919,75.8234452 87.5386693,74.8787619 86.3682884,74.8787619 Z M97.3253251,102.040411 L92.7874768,107.813358 C91.2064137,109.824449 88.3390547,110.378011 86.1173866,109.101275 C83.8957184,107.824328 82.9436052,105.075295 83.9027115,102.706415 L86.6556389,95.9075639 C87.3297257,94.2430817 88.6937926,92.9528444 90.3981876,92.3678495 C91.0582883,92.1414884 91.7436064,92.0294681 92.4263816,92.0294681 C93.5064886,92.0294681 94.5802384,92.3098353 95.5368017,92.8595996 C97.0981572,93.7570276 98.1903432,95.2822756 98.5338498,97.0442217 C98.8767208,98.8061679 98.4363711,100.627183 97.3253251,102.040411 Z" id="Shape" fill="#1E3358" fill-rule="nonzero"></path>
                            <path d="M80.2996954,89.586 C79.9276954,89.214 79.4116954,89 78.8856954,89 C78.3596954,89 77.8436954,89.2138 77.4716954,89.586 C77.0996954,89.9582 76.8856954,90.474 76.8856954,91 C76.8856954,91.528 77.0996954,92.042 77.4716954,92.4138 C77.8436954,92.7878 78.3596954,93 78.8856954,93 C79.4116954,93 79.9276954,92.7878 80.2996954,92.4138 C80.6716954,92.042 80.8856954,91.526 80.8856954,91 C80.8856954,90.474 80.6716954,89.958 80.2996954,89.586 Z" id="Path" fill="#1E3358" fill-rule="nonzero"></path>
                            <path d="M74.1158524,50.6501507 C73.2242175,49.6367745 71.9154472,49.8293684 71.1925786,51.0790437 C70.5019253,52.2736505 69.4787275,52.9586555 68.3856954,52.9586555 C67.2926633,52.9586555 66.2692577,52.2733591 65.5788122,51.0790437 C64.8561515,49.8287857 63.5473812,49.6373573 62.6555384,50.6501507 C61.7636957,51.6632355 61.626729,53.4979767 62.3495975,54.7482347 C63.8331616,57.3143084 66.0333589,58.7857143 68.3856954,58.7857143 C70.7380319,58.7857143 72.9384371,57.314017 74.4217933,54.7482347 C75.1446619,53.4979767 75.0076951,51.6632355 74.1158524,50.6501507 Z" id="Path" fill="#1E3358" fill-rule="nonzero"></path>
                            <path d="M63.2812355,41.4247495 C61.4090866,39.5250835 58.3627944,39.5250835 56.4902327,41.4247495 C55.6842862,42.242542 55.6840798,43.568392 56.4902327,44.3863939 C57.2961793,45.2043958 58.6030304,45.2043958 59.408977,44.3866033 C59.6717094,44.1200092 60.0995525,44.1200092 60.3624912,44.3866033 C60.7655677,44.7953948 61.2937156,45 61.8218634,45 C62.3500112,45 62.8783654,44.7953948 63.2812355,44.3866033 C64.0871821,43.5688108 64.0871821,42.2427514 63.2812355,41.4247495 Z" id="Path" fill="#1E3358" fill-rule="nonzero"></path>
                            <path d="M81.2812297,41.4246372 C79.4088563,39.5251209 76.3623282,39.5251209 74.4901612,41.4246372 C73.6842068,42.2424553 73.6842068,43.5685564 74.4901612,44.386584 C74.8930352,44.7955978 75.4213945,45 75.9495474,45 C76.4777004,45 77.0060597,44.7953884 77.4089337,44.386584 C77.6716686,44.120191 78.0995158,44.1197721 78.3624572,44.386584 C79.1684115,45.2046116 80.4752753,45.2044022 81.2812297,44.3863746 C82.087184,43.5685564 82.087184,42.2426648 81.2812297,41.4246372 Z" id="Path" fill="#1E3358" fill-rule="nonzero"></path>
                            <path d="M136.215002,113 L104.310643,113 L96.6646814,113 L59.6791598,113 L34.3003489,113 L30.958963,113 L2.5563884,113 C1.6336958,113 0.885695428,113.942 0.885695428,115.104 C0.885695428,116.266 1.6336958,117.208 2.5563884,117.208 L136.215002,117.208 C137.137695,117.208 137.885695,116.266 137.885695,115.104 C137.885695,113.942 137.137695,113 136.215002,113" id="Fill-4-Copy" fill="#263357"></path>
                        </g>
                    </g>
                </g>
            </g>
        </g>
    </g>
</svg>