<?xml version="1.0" encoding="UTF-8"?>
<svg width="275px" height="262px" viewBox="0 0 275 262" version="1.1" xmlns="http://www.w3.org/2000/svg" xmlns:xlink="http://www.w3.org/1999/xlink">
    <!-- Generator: Sketch 57.1 (83088) - https://sketch.com -->
    <title>13_illu_haus</title>
    <desc>Created with Sketch.</desc>
    <defs>
        <polygon id="path-1" points="-1.98951966e-13 261.772093 274.924717 261.772093 274.924717 0.201701645 -1.98951966e-13 0.201701645"></polygon>
    </defs>
    <g id="Layouts" stroke="none" stroke-width="1" fill="none" fill-rule="evenodd">
        <g id="03_1920_IKKBB_Detailseite" transform="translate(-844.000000, -4458.000000)">
            <g id="Video" transform="translate(583.000000, 4292.000000)">
                <g id="illu10" transform="translate(261.000000, 166.000000)">
                    <g id="Group-24">
                        <polygon id="Fill-1" fill="#E2001A" points="47 69 226 69 226 63 47 63"></polygon>
                        <g id="Group-23">
                            <path d="M274.463972,175.922848 C272.725013,168.119799 266.439232,162.543903 259.036689,161.342201 C255.271602,151.246305 244.600134,145.207354 233.831348,147.6412 C229.984897,148.506426 226.588342,150.350637 223.874608,152.866199 C220.797128,155.702215 218.562007,159.385831 217.493105,163.473219 L217.493105,174.512851 C218.306747,177.747832 219.838308,180.615893 221.850076,183.052944 C219.855857,185.022133 218.354608,187.443161 217.493105,190.11895 L217.493105,200.950288 C218.675279,204.603461 220.955071,207.631749 223.874608,209.746744 C227.784874,212.582759 232.856573,213.784461 237.931464,212.630828 C238.68129,212.470601 239.399209,212.23026 240.099579,211.973897 C244.185336,216.508318 250.518978,218.78354 256.882932,217.339896 C266.295649,215.226503 272.198539,205.837208 270.092643,196.383821 C269.885244,195.43688 269.583718,194.525189 269.23114,193.659964 C273.746053,189.205657 275.947672,182.588286 274.463972,175.922848 Z" id="Fill-2" fill="#009EE0"></path>
                            <path d="M0.905694798,146.231204 C1.92673526,150.815295 4.03263121,154.885058 6.84049249,158.24822 C1.41621503,163.633446 -1.23210867,171.580699 0.554712139,179.624089 C3.32907052,191.959957 15.5512439,199.748586 27.8675445,196.960638 C28.8550821,196.73632 29.7819954,196.447912 30.7073133,196.095413 C36.0342728,202.055853 44.331822,205.004028 52.6596832,203.111748 C53.3935561,202.953124 54.0955214,202.760851 54.7655792,202.536534 L54.7655792,128.191259 C49.3732092,116.014015 36.0039607,108.899942 22.5070821,111.944252 C7.12766012,115.405153 -2.54031676,130.754889 0.905694798,146.231204 Z" id="Fill-4" fill="#61C4F2"></path>
                            <polygon id="Fill-6" fill="#F86464" points="86.6727746 35.4516166 86.6727746 21.0311968 67.5282659 21.0311968 67.5282659 46.6674986 68.8045665 46.6674986"></polygon>
                            <mask id="mask-2" fill="white">
                                <use xlink:href="#path-1"></use>
                            </mask>
                            <g id="Clip-9"></g>
                            <polygon id="Fill-8" fill="#009EE0" mask="url(#mask-2)" points="163.250012 110.758253 195.157526 110.758253 195.157526 91.5310267 163.250012 91.5310267"></polygon>
                            <polygon id="Fill-10" fill="#009EE0" mask="url(#mask-2)" points="80.290474 104.349178 112.197988 104.349178 112.197988 91.5310267 80.290474 91.5310267"></polygon>
                            <polygon id="Fill-11" fill="#009EE0" mask="url(#mask-2)" points="163.250012 194.076234 195.157526 194.076234 195.157526 174.849007 163.250012 174.849007"></polygon>
                            <path d="M119.088889,242.125581 L119.088889,213.493023 C119.088889,201.212837 109.138578,191.223256 96.9066667,191.223256 C84.6747556,191.223256 74.7244444,201.212837 74.7244444,213.493023 L74.7244444,242.125581 L58.88,242.125581 L58.88,172.134884 L134.933333,172.134884 L134.933333,242.125581 L119.088889,242.125581 Z M80.96,242.125581 L80.96,213.708306 C80.96,205.003147 88.1136747,197.92093 96.9066667,197.92093 C105.699659,197.92093 112.853333,205.003147 112.853333,213.708306 L112.853333,242.125581 L80.96,242.125581 Z M133.706667,164.767442 L60.1066667,164.767442 L96.9066667,141.437209 L133.706667,164.767442 Z M57.6533333,75.1302326 L217.12,75.1302326 L217.12,242.125581 L140.576,242.125581 L140.576,171.473703 L143.765333,171.473703 C145.189371,171.473703 146.439589,170.52472 146.831877,169.148614 C147.224165,167.769297 146.661248,166.298453 145.45568,165.538945 L97.61568,135.431611 C96.582336,134.781292 95.2683307,134.781292 94.2349867,135.431611 L57.6533333,158.454489 L57.6533333,75.1302326 Z M138,7.59534884 L215.893333,56.7116279 L60.1066667,56.7116279 L138,7.59534884 Z M71.1466667,24.7860465 L83.4133333,24.7860465 L83.4133333,34.0853112 L71.1466667,41.9767442 L71.1466667,24.7860465 Z M51.52,68.9906977 L223.253333,68.9906977 L223.253333,62.8511628 L51.52,62.8511628 L51.52,68.9906977 Z M245.985112,241.864146 L245.985112,202.666202 C250.269148,202.299747 254.231364,199.939389 256.501632,196.135612 C259.35978,191.346086 259.025215,185.354777 255.649286,180.875698 C254.586641,179.467485 252.590398,179.185842 251.185221,180.254804 C249.781638,181.322166 249.504426,183.32887 250.567071,184.738684 C252.338677,187.08944 252.526671,190.345934 251.035463,192.843913 C249.92821,194.698594 248.054641,195.901977 245.985112,196.233227 L245.985112,176.094173 C245.985112,174.327505 244.559224,172.893688 242.798771,172.893688 C241.03991,172.893688 239.612429,174.327505 239.612429,176.094173 L239.612429,199.302492 L239.612429,199.412909 L239.612429,241.864146 L224.03122,241.864146 L224.03122,75.438911 L227.217561,75.438911 C228.976421,75.438911 230.403902,74.0050936 230.403902,72.2384258 L230.403902,59.4364846 C230.403902,59.4028795 230.394343,59.3740752 230.394343,59.3404701 C230.39275,59.2828613 230.381598,59.2284531 230.376819,59.1708444 C230.354514,58.8924021 230.300346,58.6267619 230.209536,58.3739235 C230.19679,58.3355177 230.188824,58.2971119 230.174486,58.2587061 C230.062964,57.9786636 229.908426,57.724225 229.728398,57.4873891 C229.693348,57.4409821 229.655112,57.3961753 229.615283,57.3497682 C229.416137,57.1193333 229.1915,56.912902 228.933406,56.7464768 C228.922254,56.7400758 228.915881,56.7288741 228.906322,56.7224731 L139.688761,0.713980679 C138.656386,0.0658824093 137.343614,0.0658824093 136.311239,0.713980679 L90.204878,29.6591696 L90.204878,21.0306612 C90.204878,19.2639934 88.7773971,17.830176 87.0185366,17.830176 L67.9004878,17.830176 C66.1416273,17.830176 64.7141463,19.2639934 64.7141463,21.0306612 L64.7141463,45.661596 L47.093678,56.7224731 C47.0825259,56.7304743 47.07456,56.7400758 47.0634078,56.748077 C46.8085005,56.9145022 46.5838634,57.1193333 46.3863102,57.348168 C46.3448878,57.3961753 46.3066517,57.4409821 46.2700088,57.4889893 C46.0899805,57.724225 45.9354429,57.9786636 45.8255141,58.2603063 C45.8111756,58.2955116 45.8032098,58.3339175 45.7904644,58.370723 C45.6996537,58.6267619 45.6454859,58.8956026 45.6231815,59.1772453 C45.618402,59.2316536 45.6072498,59.2828613 45.6056566,59.3372696 C45.6040634,59.3724749 45.5960976,59.4028795 45.5960976,59.4364846 L45.5960976,72.2384258 C45.5960976,74.0050936 47.0235785,75.438911 48.782439,75.438911 L51.9687805,75.438911 L51.9687805,162.479309 L47.093678,165.538973 C45.889241,166.295887 45.3284449,167.76171 45.7203649,169.136318 C46.1106917,170.507726 47.3613307,171.45347 48.782439,171.45347 L51.9687805,171.45347 L51.9687805,241.864146 L39.5420488,241.864146 L39.5420488,150.68232 C39.5420488,148.914052 38.116161,147.481835 36.3557073,147.481835 C34.5968468,147.481835 33.1693659,148.914052 33.1693659,150.68232 L33.1693659,179.352267 C30.2299659,179.195443 27.4849327,177.620805 25.9395571,175.033212 C24.0835132,171.923941 24.3161161,167.872126 26.5162849,164.950083 C27.5773366,163.54027 27.301718,161.531965 25.8981346,160.466204 C24.4945512,159.398842 22.495122,159.677284 21.4340702,161.085497 C17.6216127,166.150265 17.2440312,172.914491 20.4733883,178.324911 C23.1817785,182.8632 28.0186449,185.591613 33.1693659,185.754838 L33.1693659,241.864146 L10.5463415,241.864146 C8.78748098,241.864146 7.36,243.297963 7.36,245.064631 C7.36,246.831299 8.78748098,248.265116 10.5463415,248.265116 L55.155122,248.265116 L77.4595122,248.265116 L115.69561,248.265116 L138,248.265116 L265.453659,248.265116 C267.212519,248.265116 268.64,246.831299 268.64,245.064631 C268.64,243.297963 267.212519,241.864146 265.453659,241.864146 L245.985112,241.864146 Z" id="Fill-12" fill="#263357" mask="url(#mask-2)"></path>
                            <path d="M221.492872,254.561883 C219.514606,254.561883 217.903276,256.180175 217.903276,258.166988 C217.903276,260.153801 219.514606,261.772093 221.492872,261.772093 C223.471138,261.772093 225.082467,260.153801 225.082467,258.166988 C225.082467,256.180175 223.471138,254.561883 221.492872,254.561883" id="Fill-13" fill="#263357" mask="url(#mask-2)"></path>
                            <path d="M217.493584,42.5584801 C219.47185,42.5584801 221.083179,40.9401885 221.083179,38.9533752 C221.083179,36.9665618 219.47185,35.3482702 217.493584,35.3482702 C215.515318,35.3482702 213.903988,36.9665618 213.903988,38.9533752 C213.903988,40.9401885 215.515318,42.5584801 217.493584,42.5584801" id="Fill-14" fill="#263357" mask="url(#mask-2)"></path>
                            <path d="M89.863526,224.897958 C87.8836647,224.897958 86.2739306,226.51625 86.2739306,228.503063 C86.2739306,230.489876 87.8836647,232.108168 89.863526,232.108168 C91.8433873,232.108168 93.4531214,230.489876 93.4531214,228.503063 C93.4531214,226.51625 91.8433873,224.897958 89.863526,224.897958" id="Fill-15" fill="#263357" mask="url(#mask-2)"></path>
                            <path d="M212.187045,254.96245 L46.2679699,254.96245 C44.5066751,254.96245 43.0772185,256.398083 43.0772185,258.166988 C43.0772185,259.935893 44.5066751,261.371526 46.2679699,261.371526 L212.187045,261.371526 C213.94834,261.371526 215.377797,259.935893 215.377797,258.166988 C215.377797,256.398083 213.94834,254.96245 212.187045,254.96245" id="Fill-16" fill="#263357" mask="url(#mask-2)"></path>
                            <path d="M166.440763,123.576404 L191.966775,123.576404 L191.966775,113.962791 L166.440763,113.962791 L166.440763,123.576404 Z M166.440763,107.553715 L191.966775,107.553715 L191.966775,94.7355644 L166.440763,94.7355644 L166.440763,107.553715 Z M156.868509,129.985479 L163.250012,129.985479 L195.157526,129.985479 L201.539029,129.985479 C203.301919,129.985479 204.72978,128.549846 204.72978,126.780942 C204.72978,125.012037 203.301919,123.576404 201.539029,123.576404 L198.348277,123.576404 L198.348277,110.758253 L198.348277,91.5310267 C198.348277,89.7621218 196.920416,88.3264889 195.157526,88.3264889 L163.250012,88.3264889 C161.488717,88.3264889 160.05926,89.7621218 160.05926,91.5310267 L160.05926,110.758253 L160.05926,123.576404 L156.868509,123.576404 C155.107214,123.576404 153.677757,125.012037 153.677757,126.780942 C153.677757,128.549846 155.107214,129.985479 156.868509,129.985479 L156.868509,129.985479 Z" id="Fill-17" fill="#263357" mask="url(#mask-2)"></path>
                            <path d="M84,123 L109,123 L109,107 L84,107 L84,123 Z M84,101 L109,101 L109,95 L84,95 L84,101 Z M118.8125,130 C120.573594,130 122,128.552615 122,126.769231 C122,124.985846 120.573594,123.538462 118.8125,123.538462 L115.625,123.538462 L115.625,104.153846 L115.625,91.2307692 C115.625,89.4473846 114.198594,88 112.4375,88 L80.5625,88 C78.803,88 77.375,89.4473846 77.375,91.2307692 L77.375,104.153846 L77.375,123.538462 L74.1875,123.538462 C72.428,123.538462 71,124.985846 71,126.769231 C71,128.552615 72.428,130 74.1875,130 L80.5625,130 L112.4375,130 L118.8125,130 Z" id="Fill-18" fill="#263357" mask="url(#mask-2)"></path>
                            <path d="M166.440763,206.894385 L191.966775,206.894385 L191.966775,197.280771 L166.440763,197.280771 L166.440763,206.894385 Z M166.440763,190.871696 L191.966775,190.871696 L191.966775,178.053545 L166.440763,178.053545 L166.440763,190.871696 Z M156.868509,213.30346 L163.250012,213.30346 L195.157526,213.30346 L201.539029,213.30346 C203.301919,213.30346 204.72978,211.867827 204.72978,210.098922 C204.72978,208.330017 203.301919,206.894385 201.539029,206.894385 L198.348277,206.894385 L198.348277,194.076234 L198.348277,174.849007 C198.348277,173.080103 196.920416,171.64447 195.157526,171.64447 L163.250012,171.64447 C161.488717,171.64447 160.05926,173.080103 160.05926,174.849007 L160.05926,194.076234 L160.05926,206.894385 L156.868509,206.894385 C155.107214,206.894385 153.677757,208.330017 153.677757,210.098922 C153.677757,211.867827 155.107214,213.30346 156.868509,213.30346 L156.868509,213.30346 Z" id="Fill-19" fill="#263357" mask="url(#mask-2)"></path>
                            <path d="M137.724798,43.4629609 C134.205399,43.4629609 131.343295,40.5884905 131.343295,37.0538854 C131.343295,33.5192803 134.205399,30.64481 137.724798,30.64481 C141.244197,30.64481 144.106301,33.5192803 144.106301,37.0538854 C144.106301,40.5884905 141.244197,43.4629609 137.724798,43.4629609 M137.724798,24.2357345 C130.687595,24.2357345 124.961792,29.9862775 124.961792,37.0538854 C124.961792,44.1214934 130.687595,49.8720363 137.724798,49.8720363 C144.762,49.8720363 150.487803,44.1214934 150.487803,37.0538854 C150.487803,29.9862775 144.762,24.2357345 137.724798,24.2357345" id="Fill-20" fill="#263357" mask="url(#mask-2)"></path>
                            <path d="M167.952701,11.0436141 L208.60766,36.5629502 C209.132539,36.8930176 209.718042,37.0484377 210.295568,37.0484377 C211.359683,37.0484377 212.398273,36.5148822 213.004516,35.542305 C213.93781,34.0425813 213.484724,32.0653816 211.989857,31.126452 L171.333302,5.60711587 C169.841625,4.66978859 167.871336,5.12643521 166.936446,6.62776113 C166.003151,8.12908706 166.457834,10.1046846 167.952701,11.0436141" id="Fill-21" fill="#263357" mask="url(#mask-2)"></path>
                            <path d="M96.2450289,203.689847 C90.9659306,203.689847 86.6727746,208.001552 86.6727746,213.30346 L86.6727746,219.712535 C86.6727746,221.48144 88.1022312,222.917073 89.863526,222.917073 C91.6248208,222.917073 93.0542775,221.48144 93.0542775,219.712535 L93.0542775,213.30346 C93.0542775,211.536157 94.4853295,210.098922 96.2450289,210.098922 C98.0063237,210.098922 99.4357803,208.663289 99.4357803,206.894385 C99.4357803,205.12548 98.0063237,203.689847 96.2450289,203.689847" id="Fill-22" fill="#263357" mask="url(#mask-2)"></path>
                        </g>
                    </g>
                </g>
            </g>
        </g>
    </g>
</svg>