<?xml version="1.0" encoding="UTF-8"?>
<svg width="138px" height="113px" viewBox="0 0 138 113" version="1.1" xmlns="http://www.w3.org/2000/svg" xmlns:xlink="http://www.w3.org/1999/xlink">
    <!-- Generator: Sketch 57.1 (83088) - https://sketch.com -->
    <title>14_illu_baby</title>
    <desc>Created with Sketch.</desc>
    <g id="Layouts" stroke="none" stroke-width="1" fill="none" fill-rule="evenodd">
        <g id="03_1920_IKKBB_Detailseite" transform="translate(-621.000000, -5473.000000)">
            <g id="Icon-Bild-Element" transform="translate(569.000000, 5440.000000)">
                <g id="Baby-1" transform="translate(52.550305, 27.806236)">
                    <g>
                        <path d="M135.329307,113 L103.424947,113 L95.7789859,113 L58.7934644,113 L33.4146535,113 L30.0732676,113 L1.67069297,113 C0.748000371,113 0,113.942 0,115.104 C0,116.266 0.748000371,117.208 1.67069297,117.208 L135.329307,117.208 C136.252,117.208 137,116.266 137,115.104 C137,113.942 136.252,113 135.329307,113" id="Fill-4-Copy" fill="#263357"></path>
                        <path d="M117.004265,62.3042828 C115.937051,61.7156474 114.733851,61.4066472 113.519319,61.4066472 C111.740184,61.4066472 110.047038,62.058017 108.737184,63.2206051 C107.42533,62.058017 105.731518,61.4066472 103.952382,61.4066472 C102.741184,61.4066472 101.537317,61.7156474 100.46677,62.3076197 C98.1663585,63.5823289 96.7358508,66.006946 96.7358508,68.6357834 C96.7358508,69.3752483 96.8511713,70.1113761 97.0764796,70.8214759 C98.2710135,75.9596886 107.795955,81.9955368 108.20191,82.2518134 C108.366558,82.3539237 108.553204,82.4066472 108.741184,82.4066472 C108.924496,82.4066472 109.111142,82.3539237 109.275791,82.2518134 C109.682412,81.9955368 119.200021,75.9596886 120.394555,70.8214759 C120.621863,70.1113761 120.735851,69.3752483 120.735851,68.6357834 C120.735851,66.006946 119.308009,63.5823289 117.004265,62.3042828 L142.66262,6.45652824" id="Fill-1" fill="#E2001A" transform="translate(119.699235, 44.431588) rotate(20.000000) translate(-119.699235, -44.431588) "></path>
                        <path d="M67.5,113 C75.5081289,113 82,105.836556 82,97 C82,88.163444 90.2035678,91 86.5118416,84.3555513 C82.8201153,77.7111026 47.9174567,77.7111026 47.9174567,84.3555513 C47.9174567,91 59.4918711,113 67.5,113 Z" id="Oval" fill="#009EE0"></path>
                        <path d="M101.808378,96.2410932 C101.23283,93.2867956 99.4044674,90.7291046 96.790977,89.2186239 C97.266292,88.8321434 97.7121513,88.4047365 98.1190192,87.9340825 C100.126022,85.6128788 101.014774,82.5444512 100.556836,79.5161063 C99.8132425,74.5956523 97.7096084,69.9981795 94.4735254,66.2205011 C92.0505425,63.3921472 89.0723544,61.1129247 85.7392164,59.5113089 C89.8182788,55.179436 92.3205162,49.3590224 92.3205162,42.9671155 C92.3203043,31.9055871 84.8299091,22.5526318 74.6334187,19.6711157 C76.0222791,18.020346 76.7800706,15.9579914 76.7800706,13.7787644 C76.7802825,9.48950567 73.2748614,6 68.966512,6 C68.9663001,6 68.9660882,6 68.9658763,6 C67.226728,6 65.5977732,6.56305487 64.3795006,7.58516085 C63.0330222,8.71464597 62.2915479,10.3021274 62.2913359,12.0550022 C62.2913359,13.2199288 63.2400586,14.1646121 64.4104395,14.1646121 C65.5806084,14.1646121 66.529543,13.2201397 66.529543,12.0550022 C66.529543,11.553126 66.7249243,11.1347904 67.1106012,10.8111762 C67.5657846,10.4293369 68.2246139,10.2190088 68.9660882,10.2190088 L68.9663001,10.2190088 C70.937914,10.2190088 72.5420754,11.8155615 72.5420754,13.7783425 C72.5420754,15.1078186 72.0220474,16.3575515 71.0777749,17.2975937 C70.1335024,18.2374249 68.8783573,18.7551231 67.5433221,18.7551231 C67.5431102,18.7551231 67.5431102,18.7551231 67.5428983,18.7551231 C67.4909803,18.7551231 67.4401218,18.7591314 67.3892633,18.7629287 C54.2601455,19.0869648 43.6796735,29.8200268 43.6794616,42.9669045 C43.6794616,49.3588114 46.1816991,55.179225 50.2607614,59.5110979 C46.9278354,61.1127137 43.9496473,63.3917253 41.5266643,66.2202901 C38.2905814,69.9979685 36.1869473,74.5954413 35.4431419,79.5156844 C34.9854156,82.5442403 35.8739557,85.6126678 37.8809586,87.9338715 C38.2878265,88.4045255 38.7336859,88.8321434 39.2090008,89.218413 C36.5955104,90.7288936 34.766936,93.2865846 34.1915994,96.2408823 C33.6145675,99.2027745 34.3549823,102.264451 36.2225482,104.640505 L40.7606084,110.413452 C42.5940568,112.745837 45.3791945,114 48.2041715,114 C49.807909,114 51.424785,113.595799 52.8873902,112.755119 C56.9266135,110.433494 58.6574972,105.435406 56.9136869,101.12927 L54.1607595,94.3304196 C53.9768214,93.8762206 53.7594013,93.4405862 53.516764,93.0220396 L69.0595407,93.0220396 C70.2299216,93.0220396 71.1786442,92.0773563 71.1786442,90.9124297 C71.1786442,89.7475031 70.2299216,88.8028198 69.0595407,88.8028198 L49.4883482,88.8028198 L49.4883482,84.3555513 C49.4883482,83.7827922 49.9562462,83.3169904 50.5315829,83.3169904 L85.4686069,83.3169904 C86.0437316,83.3169904 86.5118416,83.7827922 86.5118416,84.3555513 L86.5118416,89.0945789 C84.4092671,90.2419957 82.7493733,92.0824193 81.8390064,94.3304196 L79.086079,101.129059 C77.3422687,105.435406 79.0731525,110.433494 83.1123757,112.755119 C84.5751929,113.595799 86.1914331,114 87.7955945,114 C90.6203595,114 93.4059211,112.745626 95.2393694,110.413452 L99.7772177,104.640505 C101.645207,102.264451 102.38541,99.2029855 101.808378,96.2410932 Z M47.9174567,42.9671155 C47.9174567,31.9433492 56.9268254,22.9745538 67.9999889,22.9745538 C79.0731525,22.9745538 88.0825211,31.9433492 88.0825211,42.9671155 C88.0825211,53.9908818 79.0735763,62.9596772 67.9999889,62.9596772 C56.9266135,62.9596772 47.9174567,53.9908818 47.9174567,42.9671155 Z M50.2304582,95.9079858 L52.9833856,102.707047 C53.94228,105.075506 52.9899549,107.824539 50.7684986,109.101486 C48.5472543,110.378433 45.6794715,109.825082 44.0984084,107.813569 L39.5603482,102.040622 C38.4493022,100.627394 38.0089525,98.8063788 38.3522473,97.0444327 C38.695542,95.2824865 39.7879399,93.7572386 41.3492954,92.8598106 C42.9104389,91.9623825 44.7835145,91.7836986 46.4879095,92.3682715 C48.1923045,92.9532663 49.5563714,94.2437146 50.2304582,95.9079858 Z M85.482593,74.8787619 C84.3122121,74.8787619 83.3634895,75.8234452 83.3634895,76.9883718 L83.3634895,79.0979816 L52.6504745,79.0979816 L52.6504745,76.9883718 C52.6504745,75.8234452 51.7017518,74.8787619 50.5313709,74.8787619 C49.3609901,74.8787619 48.4122674,75.8234452 48.4122674,76.9883718 L48.4122674,79.5412106 C46.5523303,80.355731 45.2499292,82.2067027 45.2499292,84.3557623 L45.2499292,87.3347423 C43.6451321,87.1750449 42.1560381,86.4109442 41.0928839,85.1814636 C39.8919879,83.7922855 39.3603048,81.956081 39.634093,80.1437152 C40.8472798,72.1160168 46.2238692,65.4831925 53.7719041,62.5904954 C57.7753144,65.4751759 62.6912108,67.1786859 67.9999889,67.1786859 C73.3087671,67.1786859 78.2246634,65.4751759 82.2280738,62.5904954 C89.7761086,65.4831925 95.1526981,72.1160168 96.3658849,80.1437152 C96.639673,81.956081 96.10799,83.7922855 94.9068821,85.1814636 C93.8439398,86.4109442 92.3546338,87.1750449 90.7498367,87.3347423 L90.7498367,84.3557623 C90.7498367,82.2121877 89.4540049,80.3652243 87.6016965,79.5475395 L87.6016965,76.9883718 C87.6016965,75.8234452 86.6529739,74.8787619 85.482593,74.8787619 Z M96.4396297,102.040411 L91.9017814,107.813358 C90.3207182,109.824449 87.4533593,110.378011 85.2316911,109.101275 C83.010023,107.824328 82.0579098,105.075295 83.017016,102.706415 L85.7699434,95.9075639 C86.4440303,94.2430817 87.8080972,92.9528444 89.5124922,92.3678495 C90.1725929,92.1414884 90.857911,92.0294681 91.5406861,92.0294681 C92.6207932,92.0294681 93.694543,92.3098353 94.6511063,92.8595996 C96.2124618,93.7570276 97.3046477,95.2822756 97.6481544,97.0442217 C97.9910254,98.8061679 97.5506756,100.627183 96.4396297,102.040411 Z" id="Shape" fill="#1E3358" fill-rule="nonzero"></path>
                        <path d="M79.414,89.586 C79.042,89.214 78.526,89 78,89 C77.474,89 76.958,89.2138 76.586,89.586 C76.214,89.9582 76,90.474 76,91 C76,91.528 76.214,92.042 76.586,92.4138 C76.958,92.7878 77.474,93 78,93 C78.526,93 79.042,92.7878 79.414,92.4138 C79.786,92.042 80,91.526 80,91 C80,90.474 79.786,89.958 79.414,89.586 Z" id="Path" fill="#1E3358" fill-rule="nonzero"></path>
                        <path d="M73.230157,50.6501507 C72.3385221,49.6367745 71.0297518,49.8293684 70.3068832,51.0790437 C69.6162299,52.2736505 68.5930321,52.9586555 67.5,52.9586555 C66.4069679,52.9586555 65.3835623,52.2733591 64.6931168,51.0790437 C63.9704561,49.8287857 62.6616857,49.6373573 61.769843,50.6501507 C60.8780003,51.6632355 60.7410335,53.4979767 61.4639021,54.7482347 C62.9474661,57.3143084 65.1476635,58.7857143 67.5,58.7857143 C69.8523365,58.7857143 72.0527417,57.314017 73.5360979,54.7482347 C74.2589665,53.4979767 74.1219997,51.6632355 73.230157,50.6501507 Z" id="Path" fill="#1E3358" fill-rule="nonzero"></path>
                        <path d="M62.3955401,41.4247495 C60.5233912,39.5250835 57.477099,39.5250835 55.6045373,41.4247495 C54.7985908,42.242542 54.7983844,43.568392 55.6045373,44.3863939 C56.4104839,45.2043958 57.717335,45.2043958 58.5232816,44.3866033 C58.786014,44.1200092 59.213857,44.1200092 59.4767958,44.3866033 C59.8798723,44.7953948 60.4080201,45 60.9361679,45 C61.4643158,45 61.99267,44.7953948 62.3955401,44.3866033 C63.2014866,43.5688108 63.2014866,42.2427514 62.3955401,41.4247495 Z" id="Path" fill="#1E3358" fill-rule="nonzero"></path>
                        <path d="M80.3955342,41.4246372 C78.5231609,39.5251209 75.4766327,39.5251209 73.6044658,41.4246372 C72.7985114,42.2424553 72.7985114,43.5685564 73.6044658,44.386584 C74.0073398,44.7955978 74.5356991,45 75.063852,45 C75.592005,45 76.1203643,44.7953884 76.5232383,44.386584 C76.7859732,44.120191 77.2138204,44.1197721 77.4767617,44.386584 C78.2827161,45.2046116 79.5895799,45.2044022 80.3955342,44.3863746 C81.2014886,43.5685564 81.2014886,42.2426648 80.3955342,41.4246372 Z" id="Path" fill="#1E3358" fill-rule="nonzero"></path>
                        <path d="M76.7017827,107.150838 C75.6427427,106.720711 74.4390252,107.241886 74.0142931,108.315005 C73.6594197,109.211468 72.7595251,109.813854 71.7753041,109.813854 L64.2247874,109.813854 C63.2405664,109.813854 62.3406718,109.211468 61.9857983,108.315005 C61.5610663,107.241886 60.3579688,106.721758 59.2983088,107.150838 C58.2388554,107.581173 57.7242166,108.799551 58.1489486,109.87246 C59.1416436,112.379962 61.5263436,114 64.2247874,114 L71.7753041,114 C74.4737478,114 76.8584479,112.379962 77.8509361,109.87246 C78.2758749,108.799551 77.761236,107.581173 76.7017827,107.150838 Z" id="Path" fill="#1E3358" fill-rule="nonzero"></path>
                    </g>
                </g>
            </g>
        </g>
    </g>
</svg>