<?xml version="1.0" encoding="UTF-8"?>
<svg width="165px" height="149px" viewBox="0 0 165 149" version="1.1" xmlns="http://www.w3.org/2000/svg" xmlns:xlink="http://www.w3.org/1999/xlink">
    <!-- Generator: Sketch 57.1 (83088) - https://sketch.com -->
    <title>15_illu_schwanger</title>
    <desc>Created with Sketch.</desc>
    <defs>
        <polygon id="path-1" points="0 0.699 163.9999 0.699 163.9999 148.7747 0 148.7747"></polygon>
    </defs>
    <g id="Layouts" stroke="none" stroke-width="1" fill="none" fill-rule="evenodd">
        <g id="03_1920_IKKBB_Detailseite" transform="translate(-874.000000, -5440.000000)">
            <g id="Icon-Bild-Element" transform="translate(569.000000, 5440.000000)">
                <g id="baby2" transform="translate(305.550405, 0.000000)">
                    <g>
                        <mask id="mask-2" fill="white">
                            <use xlink:href="#path-1"></use>
                        </mask>
                        <g id="Clip-54"></g>
                        <path d="M112.8799,95.7607 L122.7969,95.7607 L120.1799,143.0447 C120.1519,143.5517 119.3589,143.5887 119.2689,143.5907 C119.2329,143.5927 118.3359,143.6117 118.2749,143.0487 L112.8799,95.7607 Z M113.6689,15.5957 C109.0229,11.8987 103.7399,11.7797 99.5419,14.0907 C101.5939,4.0877 112.6829,2.9257 118.5819,6.8647 C120.9139,8.4217 121.7809,10.4477 122.8789,13.0147 C125.8259,19.9067 130.0169,24.8767 138.3399,27.5647 C135.1119,36.6467 126.2319,35.5877 121.9159,31.5647 C117.4309,27.3857 120.2669,20.8457 113.6689,15.5957 L113.6689,15.5957 Z M114.1779,28.2907 C112.4299,30.7107 110.1279,31.8977 109.1279,32.0277 C106.0429,32.4207 100.1499,26.1337 99.3449,19.2927 C102.0949,16.2257 106.8949,15.3167 111.1789,18.7257 C113.7539,20.7757 114.3019,23.1557 114.9359,25.9117 C115.0559,26.4357 115.1799,26.9737 115.3209,27.5197 C114.8759,27.6287 114.4669,27.8897 114.1779,28.2907 L114.1779,28.2907 Z M161.9999,144.7747 L123.8079,144.7747 C124.0099,144.3057 124.1449,143.8027 124.1739,143.2607 L126.8669,94.5937 C130.6059,90.6527 132.8699,86.3637 133.5669,81.8277 C134.8829,73.2547 129.7799,71.1947 129.2119,61.2847 C128.6559,51.6097 133.3029,47.0147 128.2759,38.4807 C135.7849,39.1417 141.3909,33.7517 142.7619,26.5627 C143.4069,23.1697 138.0459,25.0637 131.7059,19.3137 C128.7949,16.6747 127.6569,14.0137 126.5569,11.4417 C125.3599,8.6457 124.1229,5.7547 120.8029,3.5377 C110.5459,-3.3083 94.4039,2.4567 95.2299,18.3407 C95.1329,18.7507 95.1699,19.1817 95.3299,19.5677 C96.5229,30.2437 107.5539,42.7257 116.8019,31.4367 C117.8319,33.3077 119.1409,34.5937 120.6819,35.6777 C121.3319,36.6777 123.8239,37.9597 125.6339,42.0797 C129.2449,50.2927 121.0509,56.3217 128.0819,72.8197 C129.2859,75.6447 130.1559,77.6857 129.6129,81.2207 C129.0479,84.9037 127.1819,88.4457 124.0629,91.7607 L110.6389,91.7607 C95.5309,91.7607 87.0259,74.2227 97.9009,62.8227 C101.5119,59.0467 105.8419,57.8877 108.1019,57.5337 C108.9249,57.4047 109.5819,56.7797 109.7509,55.9637 C109.9189,55.1477 109.5649,54.3127 108.8599,53.8667 C108.0789,53.3737 105.5239,51.5717 105.4319,49.1017 C105.2579,44.3907 111.8289,45.0967 114.3299,38.6257 C115.2819,36.1577 111.5499,34.7197 110.5979,37.1847 C109.0839,41.1097 104.4299,41.2597 102.3269,45.2507 C100.8679,48.0197 101.0709,51.5327 103.6119,54.5587 C93.6569,58.0267 88.8709,67.5767 89.0099,75.1517 C89.2069,85.9287 97.9469,94.7847 108.8439,95.6727 L114.2989,143.4937 C114.3499,143.9517 114.4839,144.3737 114.6549,144.7747 L39.9999,144.7747 L39.9999,101.4347 L40.0299,101.4347 C44.3599,101.4347 48.4599,99.1847 50.7299,95.4047 C53.3499,91.0337 53.0399,85.5647 49.9499,81.4747 C49.2799,80.5937 48.0299,80.4147 47.1499,81.0847 C46.2699,81.7547 46.0899,83.0047 46.7599,83.8847 C48.8299,86.6247 49.0499,90.4247 47.2999,93.3437 C45.7599,95.9247 42.9599,97.4447 39.9999,97.4247 L39.9999,75.9587 C39.9999,74.8547 39.1049,73.9587 37.9999,73.9587 C36.8959,73.9587 35.9999,74.8547 35.9999,75.9587 L35.9999,98.9747 L35.9999,99.4747 L35.9999,144.7747 L1.9999,144.7747 C0.8959,144.7747 -0.0001,145.6697 -0.0001,146.7747 C-0.0001,147.8787 0.8959,148.7747 1.9999,148.7747 L161.9999,148.7747 C163.1049,148.7747 163.9999,147.8787 163.9999,146.7747 C163.9999,145.6697 163.1049,144.7747 161.9999,144.7747 L161.9999,144.7747 Z" id="Fill-53" fill="#263357" mask="url(#mask-2)"></path>
                        <path d="M54.42,61.0098 C50.645,50.9118 39.924,44.8818 29.109,47.3118 C17.296,49.9658 9.872,61.6938 12.526,73.5068 C13.315,77.0168 14.919,80.1268 17.074,82.7128 C12.916,86.8228 10.893,92.9048 12.269,99.0288 C14.393,108.4798 23.774,114.4198 33.225,112.2958 C33.976,112.1268 34.696,111.8968 35.401,111.6398 C39.504,116.1788 45.862,118.4448 52.259,117.0068 C61.709,114.8828 67.648,105.5018 65.525,96.0508 C65.312,95.1008 65.007,94.1968 64.654,93.3228 C69.196,88.8688 71.413,82.2528 69.916,75.5908 C68.165,67.7958 61.851,62.2188 54.42,61.0098 Z" id="Fill-21" fill="#009EE0" mask="url(#mask-2)"></path>
                        <path d="M68.4021,22.3599 C70.0521,17.9619 67.8241,13.0599 63.4251,11.4109 C59.0271,9.7609 54.1251,11.9889 52.4761,16.3869 C50.8271,20.7859 53.0551,25.6879 57.4531,27.3369 C61.8511,28.9859 66.7531,26.7579 68.4021,22.3599 Z" id="Fill-23" fill="#E2001A" mask="url(#mask-2)"></path>
                        <path d="M65.1136,9.4293 C65.9236,9.4293 66.6856,8.9333 66.9866,8.1313 L67.9816,5.4763 C68.3696,4.4423 67.8456,3.2893 66.8106,2.9023 C65.7736,2.5123 64.6226,3.0383 64.2366,4.0723 L63.2416,6.7263 C62.8536,7.7603 63.3776,8.9133 64.4116,9.3013 C64.6426,9.3883 64.8806,9.4293 65.1136,9.4293 Z" id="Fill-25" fill="#E2001A" mask="url(#mask-2)"></path>
                        <path d="M53.5347,8.5879 C53.8697,9.3249 54.5967,9.7609 55.3567,9.7609 C55.6337,9.7609 55.9147,9.7029 56.1827,9.5809 C57.1887,9.1239 57.6337,7.9379 57.1767,6.9329 L56.0027,4.3519 C55.5447,3.3449 54.3607,2.9009 53.3547,3.3589 C52.3487,3.8159 51.9047,5.0019 52.3617,6.0069 L53.5347,8.5879 Z" id="Fill-27" fill="#E2001A" mask="url(#mask-2)"></path>
                        <path d="M47.7927,16.7675 C48.0237,16.8545 48.2607,16.8955 48.4937,16.8955 C49.3047,16.8955 50.0667,16.3995 50.3667,15.5965 C50.7557,14.5625 50.2307,13.4095 49.1967,13.0215 L46.5417,12.0265 C45.5067,11.6375 44.3547,12.1625 43.9677,13.1965 C43.5787,14.2305 44.1037,15.3835 45.1377,15.7715 L47.7927,16.7675 Z" id="Fill-29" fill="#E2001A" mask="url(#mask-2)"></path>
                        <path d="M45.417,24.0045 C44.412,24.4615 43.967,25.6475 44.424,26.6535 C44.759,27.3905 45.486,27.8265 46.246,27.8265 C46.522,27.8265 46.804,27.7685 47.072,27.6465 L49.653,26.4735 C50.659,26.0165 51.103,24.8305 50.646,23.8245 C50.188,22.8185 49.003,22.3735 47.998,22.8315 L45.417,24.0045 Z" id="Fill-31" fill="#E2001A" mask="url(#mask-2)"></path>
                        <path d="M54.0876,30.6158 L53.0916,33.2698 C52.7036,34.3048 53.2276,35.4578 54.2616,35.8448 C54.4936,35.9318 54.7306,35.9728 54.9636,35.9728 C55.7736,35.9728 56.5356,35.4778 56.8366,34.6748 L57.8326,32.0208 C58.2206,30.9868 57.6966,29.8338 56.6626,29.4458 C55.6276,29.0558 54.4756,29.5818 54.0876,30.6158 Z" id="Fill-33" fill="#E2001A" mask="url(#mask-2)"></path>
                        <path d="M63.8976,31.8145 L65.0706,34.3955 C65.4056,35.1325 66.1316,35.5685 66.8916,35.5685 C67.1686,35.5685 67.4506,35.5105 67.7186,35.3885 C68.7236,34.9315 69.1686,33.7465 68.7116,32.7405 L67.5386,30.1595 C67.0826,29.1535 65.8966,28.7095 64.8906,29.1665 C63.8856,29.6235 63.4406,30.8095 63.8976,31.8145 Z" id="Fill-35" fill="#E2001A" mask="url(#mask-2)"></path>
                        <path d="M73.0867,21.9806 C72.0487,21.5896 70.8987,22.1176 70.5117,23.1506 C70.1237,24.1846 70.6477,25.3376 71.6817,25.7256 L74.3367,26.7206 C74.5677,26.8076 74.8047,26.8486 75.0377,26.8486 C75.8477,26.8486 76.6107,26.3526 76.9107,25.5506 C77.2987,24.5166 76.7747,23.3636 75.7407,22.9756 L73.0867,21.9806 Z" id="Fill-37" fill="#E2001A" mask="url(#mask-2)"></path>
                        <path d="M72.8807,15.9152 L75.4617,14.7422 C76.4667,14.2852 76.9117,13.1002 76.4547,12.0942 C75.9977,11.0892 74.8137,10.6442 73.8057,11.1012 L71.2247,12.2742 C70.2197,12.7312 69.7747,13.9162 70.2317,14.9222 C70.5667,15.6592 71.2937,16.0952 72.0537,16.0952 C72.3307,16.0952 72.6117,16.0372 72.8807,15.9152 Z" id="Fill-39" fill="#E2001A" mask="url(#mask-2)"></path>
                        <path d="M112.9205,44.9957 C114.6205,60.3057 104.1045,68.1337 99.8075,71.9537 C95.8635,75.4627 98.3635,82.0037 103.6315,82.0037 C106.3825,82.0037 107.3785,80.6157 111.6375,76.8287 C120.9805,68.5247 125.7345,56.1497 124.3525,43.7257 C124.2305,42.6277 123.2385,41.8407 122.1445,41.9597 C121.0465,42.0817 120.2555,43.0707 120.3775,44.1687 C121.6155,55.3037 117.3545,66.3957 108.9795,73.8397 L104.7935,77.5617 C103.0905,79.0787 100.7185,76.4967 102.4655,74.9427 C106.3395,71.4987 118.8695,62.3257 116.8975,44.5547 C116.6025,41.9187 112.6315,42.3727 112.9205,44.9957 Z" id="Fill-41" fill="#263357" mask="url(#mask-2)"></path>
                        <path d="M75.8398,76.7744 L82.4598,76.7744 C85.1028,76.7744 85.1068,72.7744 82.4598,72.7744 L75.8398,72.7744 C74.7358,72.7744 73.8398,73.6704 73.8398,74.7744 C73.8398,75.8784 74.7358,76.7744 75.8398,76.7744" id="Fill-43" fill="#263357" mask="url(#mask-2)"></path>
                        <path d="M84.6602,85.8423 L79.1192,89.0423 C78.1632,89.5953 77.8362,90.8183 78.3882,91.7753 C78.7592,92.4163 79.4312,92.7753 80.1222,92.7753 C80.9522,92.7753 81.0952,92.5213 86.6602,89.3063 C87.6172,88.7533 87.9442,87.5303 87.3912,86.5733 C86.8402,85.6173 85.6152,85.2893 84.6602,85.8423" id="Fill-45" fill="#263357" mask="url(#mask-2)"></path>
                        <path d="M91.8379,104.4951 C93.3329,104.4951 93.4839,103.6471 96.3919,98.6151 C97.7139,96.3271 94.2509,94.3211 92.9289,96.6141 L90.1089,101.4941 C89.5559,102.4501 89.8829,103.6741 90.8389,104.2261 C91.1539,104.4081 91.4979,104.4951 91.8379,104.4951" id="Fill-47" fill="#263357" mask="url(#mask-2)"></path>
                        <path d="M92.8467,52.812 C94.1647,55.103 97.6327,53.11 96.3137,50.817 L93.5737,46.057 C93.0217,45.099 91.7977,44.77 90.8417,45.321 C89.8847,45.872 89.5557,47.095 90.1067,48.052 L92.8467,52.812 Z" id="Fill-49" fill="#263357" mask="url(#mask-2)"></path>
                        <path d="M79.1182,60.5054 C84.5952,63.6754 84.7462,63.9354 85.5782,63.9354 C87.6132,63.9354 88.3492,61.2264 86.5822,60.2034 L81.1222,57.0434 C80.1652,56.4894 78.9422,56.8174 78.3892,57.7724 C77.8362,58.7284 78.1622,59.9524 79.1182,60.5054" id="Fill-51" fill="#263357" mask="url(#mask-2)"></path>
                        <path d="M134.5068,152.5244 C133.2668,152.5244 132.2568,153.5334 132.2568,154.7744 C132.2568,156.0154 133.2668,157.0244 134.5068,157.0244 C135.7468,157.0244 136.7568,156.0154 136.7568,154.7744 C136.7568,153.5334 135.7468,152.5244 134.5068,152.5244" id="Fill-56" fill="#263357" mask="url(#mask-2)"></path>
                        <path d="M128.6738,152.7744 L24.6738,152.7744 C23.5698,152.7744 22.6738,153.6704 22.6738,154.7744 C22.6738,155.8784 23.5698,156.7744 24.6738,156.7744 L128.6738,156.7744 C129.7778,156.7744 130.6738,155.8784 130.6738,154.7744 C130.6738,153.6704 129.7778,152.7744 128.6738,152.7744" id="Fill-58" fill="#263357" mask="url(#mask-2)"></path>
                    </g>
                </g>
            </g>
        </g>
    </g>
</svg>