<?xml version="1.0" encoding="UTF-8"?>
<svg width="142px" height="120px" viewBox="0 0 142 120" version="1.1" xmlns="http://www.w3.org/2000/svg" xmlns:xlink="http://www.w3.org/1999/xlink">
    <!-- Generator: Sketch 57.1 (83088) - https://sketch.com -->
    <title>16_baby_kindervorsorge</title>
    <desc>Created with Sketch.</desc>
    <g id="Layouts" stroke="none" stroke-width="1" fill="none" fill-rule="evenodd">
        <g id="03_1920_IKKBB_Detailseite" transform="translate(-1156.000000, -5476.000000)">
            <g id="Icon-Bild-Element" transform="translate(569.000000, 5440.000000)">
                <g id="baby-3" transform="translate(587.550305, 36.699000)">
                    <g>
                        <path d="M139.329307,114.107236 L107.424947,114.107236 L99.7789859,114.107236 L62.7934644,114.107236 L37.4146535,114.107236 L34.0732676,114.107236 L5.67069297,114.107236 C4.74800037,114.107236 4,115.049236 4,116.211236 C4,117.373236 4.74800037,118.315236 5.67069297,118.315236 L139.329307,118.315236 C140.252,118.315236 141,117.373236 141,116.211236 C141,115.049236 140.252,114.107236 139.329307,114.107236" id="Fill-4-Copy-3" fill="#263357"></path>
                        <path d="M80.7017827,108.258073 C79.6427427,107.827947 78.4390252,108.349122 78.0142931,109.42224 C77.6594197,110.318703 76.7595251,110.92109 75.7753041,110.92109 L68.2247874,110.92109 C67.2405664,110.92109 66.3406718,110.318703 65.9857983,109.42224 C65.5610663,108.349122 64.3579688,107.828993 63.2983088,108.258073 C62.2388554,108.688409 61.7242166,109.906787 62.1489486,110.979696 C63.1416436,113.487197 65.5263436,115.107236 68.2247874,115.107236 L75.7753041,115.107236 C78.4737478,115.107236 80.8584479,113.487197 81.8509361,110.979696 C82.2758749,109.906787 81.761236,108.688409 80.7017827,108.258073 Z" id="Path-Copy-6" fill="#1E3358" fill-rule="nonzero"></path>
                        <path d="M71.5,114.107236 C79.5081289,114.107236 86,106.943792 86,98.1072356 C86,89.2706796 94.2035678,92.1072356 90.5118416,85.4627869 C86.8201153,78.8183382 51.9174567,78.8183382 51.9174567,85.4627869 C51.9174567,92.1072356 63.4918711,114.107236 71.5,114.107236 Z" id="Oval-Copy-2" fill="#009EE0"></path>
                        <path d="M105.808378,97.3483288 C105.23283,94.3940312 103.404467,91.8363402 100.790977,90.3258595 C101.266292,89.939379 101.712151,89.511972 102.119019,89.0413181 C104.126022,86.7201143 105.014774,83.6516868 104.556836,80.6233418 C103.813242,75.7028878 101.709608,71.105415 98.4735254,67.3277367 C96.0505425,64.4993827 93.0723544,62.2201602 89.7392164,60.6185444 C93.8182788,56.2866716 96.3205162,50.466258 96.3205162,44.074351 C96.3203043,33.0128227 88.8299091,23.6598674 78.6334187,20.7783513 C80.0222791,19.1275816 80.7800706,17.065227 80.7800706,14.886 C80.7802825,10.5967412 77.2748614,7.10723556 72.966512,7.10723556 C72.9663001,7.10723556 72.9660882,7.10723556 72.9658763,7.10723556 C71.226728,7.10723556 69.5977732,7.67029043 68.3795006,8.69239641 C67.0330222,9.82188153 66.2915479,11.4093629 66.2913359,13.1622378 C66.2913359,14.3271643 67.2400586,15.2718476 68.4104395,15.2718476 C69.5806084,15.2718476 70.529543,14.3273753 70.529543,13.1622378 C70.529543,12.6603616 70.7249243,12.242026 71.1106012,11.9184118 C71.5657846,11.5365724 72.2246139,11.3262443 72.9660882,11.3262443 L72.9663001,11.3262443 C74.937914,11.3262443 76.5420754,12.9227971 76.5420754,14.8855781 C76.5420754,16.2150542 76.0220474,17.4647871 75.0777749,18.4048292 C74.1335024,19.3446604 72.8783573,19.8623587 71.5433221,19.8623587 C71.5431102,19.8623587 71.5431102,19.8623587 71.5428983,19.8623587 C71.4909803,19.8623587 71.4401218,19.8663669 71.3892633,19.8701642 C58.2601455,20.1942003 47.6796735,30.9272624 47.6794616,44.0741401 C47.6794616,50.466047 50.1816991,56.2864606 54.2607614,60.6183335 C50.9278354,62.2199493 47.9496473,64.4989608 45.5266643,67.3275257 C42.2905814,71.1052041 40.1869473,75.7026769 39.4431419,80.6229199 C38.9854156,83.6514758 39.8739557,86.7199034 41.8809586,89.0411071 C42.2878265,89.5117611 42.7336859,89.939379 43.2090008,90.3256485 C40.5955104,91.8361292 38.766936,94.3938202 38.1915994,97.3481178 C37.6145675,100.31001 38.3549823,103.371687 40.2225482,105.74774 L44.7606084,111.520688 C46.5940568,113.853073 49.3791945,115.107236 52.2041715,115.107236 C53.807909,115.107236 55.424785,114.703034 56.8873902,113.862355 C60.9266135,111.540729 62.6574972,106.542641 60.9136869,102.236506 L58.1607595,95.4376552 C57.9768214,94.9834562 57.7594013,94.5478217 57.516764,94.1292751 L73.0595407,94.1292751 C74.2299216,94.1292751 75.1786442,93.1845918 75.1786442,92.0196653 C75.1786442,90.8547387 74.2299216,89.9100554 73.0595407,89.9100554 L53.4883482,89.9100554 L53.4883482,85.4627869 C53.4883482,84.8900278 53.9562462,84.4242259 54.5315829,84.4242259 L89.4686069,84.4242259 C90.0437316,84.4242259 90.5118416,84.8900278 90.5118416,85.4627869 L90.5118416,90.2018144 C88.4092671,91.3492313 86.7493733,93.1896549 85.8390064,95.4376552 L83.086079,102.236295 C81.3422687,106.542641 83.0731525,111.540729 87.1123757,113.862355 C88.5751929,114.703034 90.1914331,115.107236 91.7955945,115.107236 C94.6203595,115.107236 97.4059211,113.852862 99.2393694,111.520688 L103.777218,105.74774 C105.645207,103.371687 106.38541,100.310221 105.808378,97.3483288 Z M51.9174567,44.074351 C51.9174567,33.0505847 60.9268254,24.0817894 71.9999889,24.0817894 C83.0731525,24.0817894 92.0825211,33.0505847 92.0825211,44.074351 C92.0825211,55.0981174 83.0735763,64.0669127 71.9999889,64.0669127 C60.9266135,64.0669127 51.9174567,55.0981174 51.9174567,44.074351 Z M54.2304582,97.0152214 L56.9833856,103.814283 C57.94228,106.182742 56.9899549,108.931775 54.7684986,110.208721 C52.5472543,111.485668 49.6794715,110.932318 48.0984084,108.920805 L43.5603482,103.147857 C42.4493022,101.73463 42.0089525,99.9136144 42.3522473,98.1516682 C42.695542,96.3897221 43.7879399,94.8644742 45.3492954,93.9670461 C46.9104389,93.0696181 48.7835145,92.8909341 50.4879095,93.475507 C52.1923045,94.0605018 53.5563714,95.3509502 54.2304582,97.0152214 Z M89.482593,75.9859975 C88.3122121,75.9859975 87.3634895,76.9306807 87.3634895,78.0956073 L87.3634895,80.2052172 L56.6504745,80.2052172 L56.6504745,78.0956073 C56.6504745,76.9306807 55.7017518,75.9859975 54.5313709,75.9859975 C53.3609901,75.9859975 52.4122674,76.9306807 52.4122674,78.0956073 L52.4122674,80.6484462 C50.5523303,81.4629666 49.2499292,83.3139383 49.2499292,85.4629978 L49.2499292,88.4419779 C47.6451321,88.2822804 46.1560381,87.5181797 45.0928839,86.2886991 C43.8919879,84.899521 43.3603048,83.0633166 43.634093,81.2509508 C44.8472798,73.2232524 50.2238692,66.590428 57.7719041,63.697731 C61.7753144,66.5824115 66.6912108,68.2859215 71.9999889,68.2859215 C77.3087671,68.2859215 82.2246634,66.5824115 86.2280738,63.697731 C93.7761086,66.590428 99.1526981,73.2232524 100.365885,81.2509508 C100.639673,83.0633166 100.10799,84.899521 98.9068821,86.2886991 C97.8439398,87.5181797 96.3546338,88.2822804 94.7498367,88.4419779 L94.7498367,85.4629978 C94.7498367,83.3194232 93.4540049,81.4724598 91.6016965,80.654775 L91.6016965,78.0956073 C91.6016965,76.9306807 90.6529739,75.9859975 89.482593,75.9859975 Z M100.43963,103.147646 L95.9017814,108.920594 C94.3207182,110.931685 91.4533593,111.485246 89.2316911,110.208511 C87.010023,108.931564 86.0579098,106.182531 87.017016,103.81365 L89.7699434,97.0147995 C90.4440303,95.3503173 91.8080972,94.0600799 93.5124922,93.4750851 C94.1725929,93.248724 94.857911,93.1367037 95.5406861,93.1367037 C96.6207932,93.1367037 97.694543,93.4170708 98.6511063,93.9668352 C100.212462,94.8642632 101.304648,96.3895111 101.648154,98.1514573 C101.991025,99.9134034 101.550676,101.734419 100.43963,103.147646 Z" id="Shape-Copy-2" fill="#1E3358" fill-rule="nonzero"></path>
                        <path d="M83.414,90.6932356 C83.042,90.3212356 82.526,90.1072356 82,90.1072356 C81.474,90.1072356 80.958,90.3210356 80.586,90.6932356 C80.214,91.0654356 80,91.5812356 80,92.1072356 C80,92.6352356 80.214,93.1492356 80.586,93.5210356 C80.958,93.8950356 81.474,94.1072356 82,94.1072356 C82.526,94.1072356 83.042,93.8950356 83.414,93.5210356 C83.786,93.1492356 84,92.6332356 84,92.1072356 C84,91.5812356 83.786,91.0652356 83.414,90.6932356 Z" id="Path-Copy-7" fill="#1E3358" fill-rule="nonzero"></path>
                        <path d="M77.230157,51.7573863 C76.3385221,50.7440101 75.0297518,50.936604 74.3068832,52.1862792 C73.6162299,53.380886 72.5930321,54.065891 71.5,54.065891 C70.4069679,54.065891 69.3835623,53.3805947 68.6931168,52.1862792 C67.9704561,50.9360213 66.6616857,50.7445928 65.769843,51.7573863 C64.8780003,52.7704711 64.7410335,54.6052123 65.4639021,55.8554703 C66.9474661,58.4215439 69.1476635,59.8929498 71.5,59.8929498 C73.8523365,59.8929498 76.0527417,58.4212526 77.5360979,55.8554703 C78.2589665,54.6052123 78.1219997,52.7704711 77.230157,51.7573863 Z" id="Path-Copy-8" fill="#1E3358" fill-rule="nonzero"></path>
                        <path d="M48,19.7995211 C48,16.169569 45.0549034,13.2004789 41.4542854,13.2004789 C41.4542854,5.94057466 35.5640922,0 28.3628561,0 C22.2707814,0 17.1311129,4.26208098 15.6870655,9.96800174 C13.2431104,8.74923814 10.3502655,8.32542447 7.23178827,9.4771441 C3.80217582,10.7485851 1.12071289,13.6721811 0.291810716,17.2614279 C-0.0882017438,18.9063997 -0.0810765102,20.5058772 0.22055838,22 L47.5962368,22 C47.8432449,21.3080104 48,20.5729212 48,19.7995211" id="Fill-30" fill="#009EE0"></path>
                        <path d="M137,61.5996953 C137,59.2897257 135.097958,57.4003047 132.772559,57.4003047 C132.772559,52.7803657 128.968476,49 124.317678,49 C120.383213,49 117.063844,51.7122333 116.13123,55.3432738 C114.552842,54.567697 112.684546,54.2979974 110.67053,55.0309099 C108.455572,55.8400087 106.723794,57.7004789 106.188461,59.9845451 C105.943036,61.0313452 105.947638,62.0491946 106.142444,63 L136.739236,63 C136.898762,62.559643 137,62.0918589 137,61.5996953" id="Fill-30-Copy" fill="#009EE0"></path>
                        <path d="M66.3955401,42.531985 C64.5233912,40.6323191 61.477099,40.6323191 59.6045373,42.531985 C58.7985908,43.3497775 58.7983844,44.6756275 59.6045373,45.4936294 C60.4104839,46.3116313 61.717335,46.3116313 62.5232816,45.4938388 C62.786014,45.2272448 63.213857,45.2272448 63.4767958,45.4938388 C63.8798723,45.9026304 64.4080201,46.1072356 64.9361679,46.1072356 C65.4643158,46.1072356 65.99267,45.9026304 66.3955401,45.4938388 C67.2014866,44.6760464 67.2014866,43.3499869 66.3955401,42.531985 Z" id="Path-Copy-9" fill="#1E3358" fill-rule="nonzero"></path>
                        <path d="M84.3955342,42.5318727 C82.5231609,40.6323565 79.4766327,40.6323565 77.6044658,42.5318727 C76.7985114,43.3496909 76.7985114,44.675792 77.6044658,45.4938196 C78.0073398,45.9028334 78.5356991,46.1072356 79.063852,46.1072356 C79.592005,46.1072356 80.1203643,45.9026239 80.5232383,45.4938196 C80.7859732,45.2274266 81.2138204,45.2270077 81.4767617,45.4938196 C82.2827161,46.3118472 83.5895799,46.3116377 84.3955342,45.4936101 C85.2014886,44.675792 85.2014886,43.3499003 84.3955342,42.5318727 Z" id="Path-Copy-10" fill="#1E3358" fill-rule="nonzero"></path>
                    </g>
                </g>
            </g>
        </g>
    </g>
</svg>