<?xml version="1.0" encoding="UTF-8"?>
<svg width="200px" height="200px" viewBox="0 0 200 200" version="1.1" xmlns="http://www.w3.org/2000/svg" xmlns:xlink="http://www.w3.org/1999/xlink">
    <!-- Generator: Sketch 57.1 (83088) - https://sketch.com -->
    <title>illu11</title>
    <desc>Created with Sketch.</desc>
    <defs>
        <filter x="-11.3%" y="-9.0%" width="122.6%" height="118.0%" filterUnits="objectBoundingBox" id="filter-1">
            <feOffset dx="0" dy="10" in="SourceAlpha" result="shadowOffsetOuter1"></feOffset>
            <feGaussianBlur stdDeviation="10" in="shadowOffsetOuter1" result="shadowBlurOuter1"></feGaussianBlur>
            <feColorMatrix values="0 0 0 0 0.852128623   0 0 0 0 0.852128623   0 0 0 0 0.852128623  0 0 0 1 0" type="matrix" in="shadowBlurOuter1" result="shadowMatrixOuter1"></feColorMatrix>
            <feMerge>
                <feMergeNode in="shadowMatrixOuter1"></feMergeNode>
                <feMergeNode in="SourceGraphic"></feMergeNode>
            </feMerge>
        </filter>
        <polygon id="path-2" points="0.0002 0.32 164 0.32 164 152.75 0.0002 152.75"></polygon>
    </defs>
    <g id="Layouts" stroke="none" stroke-width="1" fill="none" fill-rule="evenodd">
        <g id="01_1920_IKKBB_startseite_Navigation" transform="translate(-860.000000, -2809.000000)">
            <g id="Top-Themen" transform="translate(160.000000, 998.000000)">
                <g id="Teaser-2" filter="url(#filter-1)" transform="translate(543.000000, 1765.000000)">
                    <g id="Group-23" transform="translate(175.000000, 55.000000)">
                        <g>
                            <polygon id="Fill-1" fill="#E2001A" points="84.77 136.75 130.77 136.75 130.77 96.75 84.77 96.75"></polygon>
                            <path d="M72.7656,66.8672 L72.7656,59.7202 C72.7656,56.4292 76.0356,54.0902 79.1256,55.2202 C81.6246,56.1292 84.2136,56.9732 86.7656,57.6392 L86.7656,45.1502 C81.7326,43.5842 77.1066,41.5532 72.7656,39.2202 L72.7656,36.4302 C66.4346,45.5642 54.4556,39.3192 52.1756,29.6792 C40.4606,36.4012 32.5656,49.3192 32.5656,63.7692 L32.5656,96.7502 L72.7656,96.7502 L72.7656,82.4472 C75.4876,83.8492 78.5946,85.2042 81.5956,86.2202 C81.6116,86.1872 85.7346,73.5442 85.7456,73.5102 C81.2096,71.9382 76.8686,69.7422 72.7656,66.8672" id="Fill-2" fill="#009EE0"></path>
                            <g id="Group-6">
                                <mask id="mask-3" fill="white">
                                    <use xlink:href="#path-2"></use>
                                </mask>
                                <g id="Clip-5"></g>
                                <path d="M105.3062,148.75 C106.6482,146.437 108.8352,146.75 111.1032,146.75 C114.2272,146.75 116.7692,144.208 116.7692,141.083 L116.7692,138.75 L122.7692,138.75 C122.7692,148.334 123.0522,148.75 122.0192,148.75 L105.3062,148.75 Z M87.3062,148.75 C88.6482,146.437 90.8352,146.75 93.1032,146.75 C96.2272,146.75 98.7692,144.208 98.7692,141.083 L98.7692,138.75 L112.7692,138.75 L112.7692,141.083 C112.7692,142.002 112.0222,142.75 111.1032,142.75 L108.7692,142.75 C105.0502,142.75 101.9242,145.306 101.0332,148.75 L87.3062,148.75 Z M68.5022,148.75 C67.6112,145.306 64.4852,142.75 60.7652,142.75 L58.4322,142.75 C57.5132,142.75 56.7652,142.002 56.7652,141.083 L56.7652,104.667 C56.7652,102.024 52.7652,102.021 52.7652,104.667 L52.7652,141.083 C52.7652,144.208 55.3072,146.75 58.4322,146.75 C60.6032,146.75 62.8662,146.4 64.2292,148.75 C33.7942,148.75 34.7652,149.071 34.7652,148 L34.7652,98.75 L70.7682,98.75 L70.7752,136.75 C70.7702,137.873 70.7712,137.017 70.7712,141.067 C70.7712,144.192 73.3132,146.734 76.4382,146.734 L78.9902,146.75 C80.4672,146.75 81.7602,147.556 82.4532,148.75 L68.5022,148.75 Z M34.8562,63.77 C34.8562,49.312 43.6192,37.82 49.5192,34.027 C54.2722,44.04 65.3572,48.387 73.3022,41.689 C76.1562,43.181 79.3712,44.614 82.7652,45.87 L82.7652,54.33 C79.9382,53.397 77.1412,51.835 73.8262,54.15 C71.3512,55.877 70.9252,58.142 70.9252,60.769 C70.6822,61.322 70.7562,61.748 70.7562,62.87 C65.7562,58.76 61.5062,53.67 58.2452,47.78 C57.7052,46.81 56.4952,46.46 55.5252,47 C54.5652,47.54 54.2162,48.75 54.7452,49.72 C61.0792,61.14 70.5852,69.348 81.3832,73.973 L78.4722,82.885 C64.7752,77.166 53.8942,67.152 47.0862,55.21 C46.5352,54.25 45.3152,53.92 44.3562,54.46 C43.3952,55.01 43.0652,56.23 43.6162,57.19 C50.0062,68.39 59.5252,77.58 70.7652,83.64 L70.7672,94.75 L34.8562,94.75 L34.8562,63.77 Z M51.1142,11.8 C51.3332,12.162 51.6552,12.447 52.0372,12.61 C52.8192,14.905 54.7752,16.803 56.4572,17.967 C56.4742,18.876 56.2032,19.717 55.8442,20.425 C53.3102,16.987 49.5182,16.956 47.3672,19.078 C47.1662,15.859 48.7312,12.717 51.1142,11.8 L51.1142,11.8 Z M73.4552,11.61 C74.4752,12.64 75.3662,14.1 76.0062,15.84 C75.3042,18.55 75.6752,21.45 77.2252,23.91 C76.9072,32.039 71.4742,42.037 63.3362,40.79 C59.0562,40.145 54.9952,36.618 52.8722,31.722 C52.8732,31.722 52.8742,31.721 52.8752,31.72 C51.0982,25.137 51.9602,28.152 51.5912,26.125 C51.5632,25.976 51.5692,25.952 51.4722,25.722 C51.3662,25.468 51.2312,25.277 51.0632,25.105 C47.9282,21.892 51.6522,19.382 53.6492,24.792 C54.1302,26.094 55.7672,26.529 56.8292,25.616 C61.1312,21.914 61.1182,16.098 59.3342,15.062 C58.5082,14.582 55.6972,12.528 55.6972,10.57 C60.2002,6.626 68.9502,7.074 73.4552,11.61 L73.4552,11.61 Z M82.7162,13.13 C86.1622,11.069 88.6852,13.205 89.6852,13.24 C90.2652,13.26 90.8462,13.03 91.2452,12.58 C94.5832,8.825 103.3952,10.009 103.3952,15.7 C103.4152,16.6 104.0452,17.38 104.9252,17.6 C111.6032,19.231 111.8362,29.083 106.4552,32.43 C107.2322,23.936 104.6052,22.949 100.1752,21.63 C91.0992,18.898 91.7392,16.415 89.5652,17.68 C86.8062,19.26 84.9862,19.68 83.5352,20.03 C82.7162,20.22 81.9062,20.41 81.1652,20.79 C80.8752,20.94 80.6062,21.11 80.3462,21.32 C79.9062,20.47 79.6652,19.52 79.6652,18.5 C79.6652,17.55 79.8662,16.65 80.2562,15.83 C80.7752,14.73 81.6252,13.79 82.7162,13.13 L82.7162,13.13 Z M105.9552,10.84 C103.6922,7.423 99.0662,5.935 94.8362,6.57 C98.9292,1.658 106.7112,5.602 105.9552,10.84 L105.9552,10.84 Z M128.7652,87.61 L128.7652,94.75 L110.5862,94.75 C118.6572,80.359 119.1002,63.971 113.6162,50.02 C113.2162,48.99 112.0562,48.48 111.0252,48.89 C109.9952,49.29 109.4952,50.45 109.8952,51.48 C114.7882,63.918 114.3222,78.006 108.7362,89.68 L101.8052,85.591 C106.5272,75.232 106.4752,62.679 101.5152,52.15 C100.3912,49.758 96.7722,51.471 97.8952,53.86 C103.0402,64.777 102.0802,77.089 97.0452,86.18 C95.4002,89.153 93.8332,91.25 94.6362,94.75 L86.7652,94.75 L86.7652,89.6 C89.9202,89.915 94.2072,87.637 95.4352,83.25 L95.4352,83.24 C96.4982,79.381 94.7842,75.329 91.6652,73.57 C90.2162,72.632 89.2232,72.597 86.7652,71.74 L86.7652,47.94 C91.1852,50.149 95.9442,49.399 99.7362,46.43 C101.9862,44.65 103.8362,42.13 104.9352,39.1 C104.9552,39.04 104.9862,38.97 104.9952,38.91 C120.3752,46.9 128.7652,63.95 128.7652,87.61 L128.7652,87.61 Z M98.9352,91.02 L99.9722,89.153 L106.8642,93.22 C106.7402,93.443 106.0582,94.676 105.9352,94.89 C103.3602,99.559 96.4302,95.638 98.9352,91.02 L98.9352,91.02 Z M82.7652,70.207 C80.0112,69.013 77.3782,67.59 74.9062,65.94 C74.9062,59.51 74.5602,58.508 76.1062,57.43 C77.6842,56.342 78.3792,57.183 82.7652,58.53 L82.7652,70.207 Z M85.8152,85.44 C83.9172,84.915 83.2222,84.655 82.2222,84.312 L85.1252,75.41 C88.1172,76.463 90.1572,76.517 91.3002,78.908 C93.0012,82.489 89.6972,86.494 85.8152,85.44 L85.8152,85.44 Z M78.1252,35.47 C78.4612,37.033 78.9512,38.698 79.6772,40.312 C77.5762,39.382 77.1222,39.109 76.1212,38.628 C76.8852,37.614 77.5452,36.562 78.1252,35.47 L78.1252,35.47 Z M102.3152,27.43 C102.7152,29.729 102.5002,32.31 102.2852,33.31 C100.5422,45.953 89.6272,48.854 84.1732,40.267 C80.5762,34.599 81.1242,24.914 83.3562,24.2 C83.6162,24.11 83.9752,24.03 84.4452,23.92 C85.7952,23.6 87.7652,23.14 90.4662,21.74 C97.0712,25.968 101.9512,25.269 102.3152,27.43 L102.3152,27.43 Z M84.8792,145.355 C80.4302,140.502 74.7562,144.644 74.7562,141.067 L74.7562,136.734 C74.7552,135.166 74.7482,99.195 74.7482,97.532 C75.0062,96.919 74.9062,97.199 74.9062,85.69 C77.0462,86.673 79.9652,87.844 82.7652,88.72 C82.7652,89.219 82.7692,95.181 82.7692,136.75 C82.7692,137.854 83.6652,138.75 84.7692,138.75 L94.7692,138.75 L94.7692,141.083 C94.7692,142.002 94.0222,142.75 93.1032,142.75 C90.6312,142.75 87.5832,142.406 84.8792,145.355 L84.8792,145.355 Z M86.7692,134.75 L86.7692,98.75 L96.9352,98.75 C99.8002,101.613 104.7672,101.774 107.9662,98.75 L128.7692,98.75 L128.7692,134.75 L86.7692,134.75 Z M162.0002,148.75 L126.6942,148.75 C126.8182,147.978 126.7692,148.608 126.7692,138.75 L130.7692,138.75 C131.8742,138.75 132.7692,137.854 132.7692,136.75 C132.7692,136.357 132.7712,97.103 132.7652,96.711 C132.7652,84.427 134.7792,51.012 108.1652,36.06 C115.2222,32.115 116.9402,20.048 108.9752,15.03 C112.2072,8.264 107.2242,0.32 99.6562,0.32 C94.6062,0.32 90.3952,3.97 89.5152,8.76 C89.4662,8.8 89.4152,8.84 89.3662,8.88 C86.4862,7.83 83.3152,8.11 80.6562,9.71 C79.8062,10.22 79.0562,10.83 78.4062,11.53 C77.7852,10.5 77.0862,9.58 76.2952,8.79 C70.2242,2.678 59.2802,2.186 53.1182,7.52 C43.3822,7.071 39.7302,21.83 47.7632,27.656 C47.9172,28.896 48.0002,29.275 48.1592,30.058 C38.2022,36.951 30.8662,49.724 30.8662,63.77 L30.8662,85.557 C30.8062,85.745 30.7652,85.942 30.7652,86.15 C30.7652,152.618 30.7232,148.016 30.8412,148.75 L2.0002,148.75 C0.8952,148.75 0.0002,149.646 0.0002,150.75 C0.0002,151.854 0.8952,152.75 2.0002,152.75 L162.0002,152.75 C163.1042,152.75 164.0002,151.854 164.0002,150.75 C164.0002,149.646 163.1042,148.75 162.0002,148.75 L162.0002,148.75 Z" id="Fill-4" fill="#263357" mask="url(#mask-3)"></path>
                            </g>
                            <path d="M27.2432,158.75 C27.2432,159.99 28.2522,161 29.4932,161 C30.7342,161 31.7432,159.99 31.7432,158.75 C31.7432,155.776 27.2432,155.777 27.2432,158.75" id="Fill-7" fill="#263357"></path>
                            <path d="M139.3267,156.75 L35.3267,156.75 C34.2227,156.75 33.3267,157.646 33.3267,158.75 C33.3267,159.854 34.2227,160.75 35.3267,160.75 L139.3267,160.75 C140.4307,160.75 141.3267,159.854 141.3267,158.75 C141.3267,157.646 140.4307,156.75 139.3267,156.75" id="Fill-9" fill="#263357"></path>
                            <path d="M94.7729,104.75 L94.7729,128.75 C94.7729,129.854 95.6689,130.75 96.7729,130.75 C97.8769,130.75 98.7729,129.854 98.7729,128.75 L98.7729,104.75 C98.7729,102.107 94.7729,102.104 94.7729,104.75" id="Fill-11" fill="#263357"></path>
                            <path d="M102.7695,112.75 L102.7695,128.75 C102.7695,129.854 103.6655,130.75 104.7695,130.75 C105.8735,130.75 106.7695,129.854 106.7695,128.75 L106.7695,112.75 C106.7695,110.107 102.7695,110.104 102.7695,112.75" id="Fill-13" fill="#263357"></path>
                            <path d="M24.5703,89.7998 C25.8113,89.7998 26.8203,88.7898 26.8203,87.5498 C26.8203,86.3098 25.8113,85.2998 24.5703,85.2998 C23.3293,85.2998 22.3203,86.3098 22.3203,87.5498 C22.3203,88.7898 23.3293,89.7998 24.5703,89.7998" id="Fill-15" fill="#263357"></path>
                            <path d="M138.7656,92.2197 C135.7926,92.2197 135.7916,96.7197 138.7656,96.7197 C140.0066,96.7197 141.0156,95.7097 141.0156,94.4697 C141.0156,93.2297 140.0066,92.2197 138.7656,92.2197" id="Fill-17" fill="#263357"></path>
                            <path d="M136.7656,87.6104 C136.7656,88.7144 137.6616,89.6104 138.7656,89.6104 C139.8696,89.6104 140.7656,88.7144 140.7656,87.6104 C140.7656,66.2614 134.6866,48.9104 123.1876,37.4294 C121.3166,35.5594 118.4906,38.3924 120.3616,40.2594 C131.0936,50.9734 136.7656,67.3474 136.7656,87.6104" id="Fill-19" fill="#263357"></path>
                            <path d="M24.5703,82.21 C25.6743,82.21 26.5703,81.314 26.5703,80.21 L26.5703,63.773 C26.5703,52.45 30.8063,41.564 38.4983,33.12 C40.2843,31.16 37.3163,28.474 35.5413,30.427 C27.1763,39.608 22.5703,51.451 22.5703,63.773 L22.5703,80.21 C22.5703,81.314 23.4663,82.21 24.5703,82.21" id="Fill-21" fill="#263357"></path>
                        </g>
                    </g>
                </g>
            </g>
        </g>
    </g>
</svg>