<?xml version="1.0" encoding="UTF-8"?>
<svg width="68px" height="64px" viewBox="0 0 68 64" version="1.1" xmlns="http://www.w3.org/2000/svg" xmlns:xlink="http://www.w3.org/1999/xlink">
    <!-- Generator: Sketch 57.1 (83088) - https://sketch.com -->
    <title>illu1</title>
    <desc>Created with Sketch.</desc>
    <defs>
        <polygon id="path-1" points="0.481485434 0.227187369 67.3445201 0.227187369 67.3445201 63.1292517 0.481485434 63.1292517"></polygon>
        <polygon id="path-3" points="0 0 81 0 81 80 0 80"></polygon>
        <polygon id="path-5" points="0.0292489379 0.00065123101 21.6801096 0.00065123101 21.6801096 17.3259671 0.0292489379 17.3259671"></polygon>
    </defs>
    <g id="Layouts" stroke="none" stroke-width="1" fill="none" fill-rule="evenodd">
        <g id="01_320_IKKBB_startseite_mobil" transform="translate(-57.000000, -734.000000)">
            <g id="Mein-Weg-mit-der-IKKBB" transform="translate(-192.000000, 611.000000)">
                <g id="illu1" transform="translate(245.000000, 111.000000)">
                    <g id="Group-68">
                        <path d="M45.9730807,47.0185634 L45.5309464,47.4650063 L41.9128144,51.1324801 C41.8612321,51.1841347 41.8026493,51.22841 41.7400136,51.2579269 L41.2532975,51.7449556 L42.2963659,52.7891156 L47.0157806,48.0627234 C47.1557898,47.9225182 47.2331633,47.7380376 47.2331633,47.5424882 C47.2331633,47.3432492 47.1557898,47.1587686 47.0157806,47.0185634 C46.7283933,46.7307737 46.2604679,46.7307737 45.9730807,47.0185634" id="Fill-1" fill="#FFFFFF"></path>
                        <path d="M54.3002774,31.5646259 C53.0183528,32.8362454 52.2653599,34.6298569 52.2653599,36.5529851 L52.2653599,37.4792265 C52.2653599,39.6692379 51.4719625,41.737582 50.0320931,43.2957084 L48.3204116,45.1481912 C48.5481461,45.2580842 48.761188,45.4150743 48.9485179,45.6152366 C49.1244611,45.8075494 49.2677134,46.0230183 49.3705613,46.2585034 L51.7573652,43.6744469 C52.9621539,42.3726068 53.7074332,40.3804029 53.7507762,38.3458117 C53.7919153,36.3673444 53.7706111,35.5400068 53.7628976,35.3351347 C53.7621629,35.3316024 53.761061,35.3280702 53.7603264,35.3245379 C53.642786,34.7868469 53.5909948,34.1745857 53.7015562,33.4759799 C53.778692,32.9500632 53.966022,32.4241465 54.3002774,31.5646259" id="Fill-3" fill="#FFFFFF"></path>
                        <path d="M10.7043984,15.8089294 C11.0608996,15.5387618 11.5680124,15.6050429 11.8391936,15.9011467 C14.7733181,19.1017326 20.7541253,18.3848878 19.2776498,13.6054422 C14.8694532,15.2037539 12.9010863,13.6933367 11.0913424,14.4307143 C9.68977216,14.9966254 8.3715191,16.6583365 8.68155492,18.5034014 C9.08492193,17.4108434 9.80994109,16.488311 10.7043984,15.8089294" id="Fill-5" fill="#FFFFFF"></path>
                        <path d="M67.8908814,46.2585034 L67.8908814,36.0039703 C67.8908814,34.5920109 67.4061374,33.2297766 66.5631218,32.1088435 C66.7502369,32.5779548 66.867932,32.9387503 66.926979,33.3037859 C67.1109024,34.374994 66.8631444,35.2422909 66.6002256,35.9438377 L66.4561988,36.329303 C66.3883746,36.4992932 66.32454,36.6723671 66.2607054,36.846212 C65.9255737,37.7786525 65.5868514,40.6812061 65.7659872,42.8976315 C66.5886556,44.0524855 67.2868465,45.1537599 67.8908814,46.2585034" id="Fill-7" fill="#FFFFFF"></path>
                        <path d="M40.0101989,70.1964715 C40.0628965,70.1964715 40.1140991,70.2008201 40.1660492,70.2040816 L40.1660492,63.6734694 L34.1861834,63.6734694 L34.1861834,70.2040816 C34.3749229,70.1921228 36.2346612,70.1964715 36.4435827,70.1964715 L36.4435827,66.6026597 C36.4435827,66.2025822 36.7784552,65.8778817 37.191066,65.8778817 C37.6040505,65.8778817 37.9385492,66.2025822 37.9385492,66.6026597 L37.9385492,70.1964715 L40.0101989,70.1964715 Z" id="Fill-9" fill="#FFFFFF"></path>
                        <path d="M5.91772704,50.5494505 C5.91772704,50.8759812 6.26062844,51.1564626 6.67043742,51.1564626 L8.06295162,51.1564626 C8.07967852,50.9973836 8.09222369,50.7922554 8.09222369,50.5494505 L8.09222369,49.1051805 L8.09222369,48.9795918 L5.91772704,48.9795918 L5.91772704,50.5494505 Z" id="Fill-11" fill="#FFFFFF"></path>
                        <path d="M33.7192923,58.7503684 L33.7192923,62.0408163 L40.0782981,62.0408163 L40.0782981,58.7503684 C40.0782981,57.1139381 40.4871475,55.5094101 41.2532975,54.0844355 L40.007074,52.7891156 C39.9354565,52.8349242 39.863052,52.8803238 39.7808099,52.9273594 C38.888739,53.4492503 37.9219025,53.7159217 36.9145353,53.7159217 C35.9075616,53.7159217 34.9407251,53.4492503 34.0415711,52.9236784 C33.9624771,52.8786878 33.8920401,52.8341062 33.821603,52.7891156 L32.5553109,54.1057038 C33.3143779,55.5249523 33.7192923,57.1221182 33.7192923,58.7503684" id="Fill-13" fill="#FFFFFF"></path>
                        <path d="M28.3791519,47.0167845 C28.3459919,46.9835678 28.3054629,46.950351 28.2686184,46.9245158 C28.143347,46.8433193 27.9996534,46.8027211 27.8559597,46.8027211 C27.6680527,46.8027211 27.4801456,46.8728453 27.336452,47.0167845 C27.1964428,47.157033 27.1190693,47.3415704 27.1190693,47.5408708 C27.1190693,47.7180268 27.1853895,47.8878012 27.3069764,48.0243589 C27.3143453,48.0354312 27.3253986,48.0501942 27.336452,48.0612664 L27.8227997,48.5484453 L32.0562352,52.7891156 L33.0989351,51.7446337 L28.3791519,47.0167845 Z" id="Fill-15" fill="#FFFFFF"></path>
                        <path d="M9.17987684,49.6390327 C9.17987684,49.6405898 9.17947201,49.6421469 9.17947201,49.6437039 L9.17947201,50.9835629 L9.17947201,69.1156463 C9.20457125,69.1098072 14.0519638,69.1117536 14.0782775,69.1117536 L14.0782775,54.1156098 C14.0782775,53.6858584 14.4405972,53.3370746 14.8879305,53.3370746 C15.334859,53.3370746 15.6975835,53.6858584 15.6975835,54.1156098 L15.6975835,69.1117536 C15.7234924,69.1117536 20.5700753,69.1098072 20.5955794,69.1156463 L20.5955794,49.6405898 L20.5955794,49.5238095 L10.600413,49.5238095 L9.17987684,49.5238095 L9.17987684,49.6390327 Z" id="Fill-17" fill="#FFFFFF"></path>
                        <path d="M11.4852339,17.414966 C8.92691547,20.4974226 10.5557898,27.2108844 14.8873279,27.2108844 C18.3304959,27.2108844 20.5390992,22.6407413 19.0209289,18.864496 C16.9789684,20.1064229 13.7982823,19.7859918 11.4852339,17.414966" id="Fill-19" fill="#FFFFFF"></path>
                        <path d="M34.7298076,46.0328388 C34.7298076,47.657916 35.8273825,48.9795918 37.1761163,48.9795918 C38.5248501,48.9795918 39.622425,47.657916 39.622425,46.0328388 C39.622425,43.7440029 39.5088319,42.4489796 37.1761163,42.4489796 C34.8434007,42.4489796 34.7298076,43.7440029 34.7298076,46.0328388" id="Fill-21" fill="#FFFFFF"></path>
                        <path d="M60.0646027,19.5918367 C58.9302272,20.7960432 57.754114,21.6994875 56.474774,22.4438639 C56.5399894,22.5419301 56.5869445,22.6542815 56.6022236,22.7797599 C56.9119036,25.3059294 58.4010508,27.2108844 60.0657206,27.2108844 C61.7814448,27.2108844 63.2623935,25.2603711 63.5418881,22.6577563 C62.235344,21.8550807 61.0868076,20.8628363 60.0646027,19.5918367" id="Fill-23" fill="#FFFFFF"></path>
                        <g id="Group-27" transform="translate(3.805369, 11.972789)">
                            <mask id="mask-2" fill="white">
                                <use xlink:href="#path-1"></use>
                            </mask>
                            <g id="Clip-26"></g>
                            <path d="M67.3370123,13.9069065 C67.2353451,14.621592 66.9358177,15.6792018 66.0865051,16.6596536 C65.3513726,17.5083914 64.4997138,17.9483477 63.9151271,18.168131 C63.5104132,18.3193295 63.0599491,18.1163027 62.9074482,17.7133666 C62.7553383,17.3104305 62.9598459,16.8611217 63.3637778,16.7091439 C63.7782673,16.5536589 64.3820144,16.2419095 64.9024726,15.6410125 C65.3627124,15.1098695 65.594983,14.5452134 65.7111183,14.0818759 C63.8908834,12.3446524 63.6699526,10.5337781 63.4717015,9.0502407 C62.8839865,4.6541846 60.942924,1.78920769 56.5559819,2.41699303 C55.6640473,2.54091341 50.5056072,0.91241253 49.4177675,9.04985101 C49.2179523,10.5462481 48.9962394,12.3419246 47.1791328,14.0810965 C47.4958654,15.3316012 48.3807615,16.2793194 49.5256912,16.7091439 C50.4915302,17.0727216 49.943309,18.5313191 48.9735598,18.168131 C47.1865623,17.4959214 45.8347788,15.9067789 45.5524567,13.9061272 C45.4617382,13.2639234 45.9544334,13.2654822 46.7145916,12.2632079 C47.5596029,11.1487038 47.6956806,10.1316214 47.8673419,8.84409641 C48.3780243,5.02087982 49.7958915,3.00892719 51.1488481,2.02146099 C52.5412984,1.00476829 54.4178414,0.592869405 56.44493,0.859025447 C58.4720187,0.592479718 60.3481706,1.00476829 61.7406209,2.02146099 C63.0927954,3.0085375 64.5114447,5.02204888 65.0221271,8.8444861 C65.2086474,10.2419027 65.3740522,11.7780479 67.0672031,13.2019632 C67.2728837,13.3749841 67.374942,13.6411402 67.3370123,13.9069065 M62.2665535,10.0213401 C63.0423528,10.3595881 62.7932681,11.5146196 61.9525581,11.5146196 C61.7746404,11.5146196 61.7003451,11.4737025 61.5650494,11.4136908 C60.2613624,18.7218759 52.3309254,18.5332675 51.2810155,11.094927 C51.2536435,11.0980445 51.2262716,11.1038898 51.1988996,11.1038898 C50.3667923,11.1038898 50.1102779,9.96873234 50.8692631,9.6172349 C51.7455566,9.21235038 52.5847025,8.72212446 53.3640211,8.16136525 C57.0643182,5.49668733 57.0037089,3.27936978 58.1924337,4.07549979 C58.5510063,4.31593651 58.6464171,4.79992744 58.4055439,5.15727018 C58.1208756,5.5796906 57.8193931,5.98613387 57.5022695,6.37776904 C58.8231617,8.01757084 60.4443634,9.2263791 62.2665535,10.0213401 M66.5690335,45.807832 C64.4383225,47.0423596 63.1123468,47.7250908 61.7030823,48.1151672 L61.0367707,58.6324226 C62.2075083,59.0509462 63.0482182,60.1646709 63.0482182,61.4732389 C63.0482182,62.386275 62.3029191,63.1294076 61.3863497,63.1294076 L51.4151381,63.1294076 C49.018137,63.1294076 49.2801257,59.430501 51.8523073,58.6004683 L51.1891239,48.1420556 C49.7415386,47.7527585 48.4089155,47.0672996 46.2316722,45.807832 C45.9501321,45.6480605 45.8015415,45.3324142 45.8523751,45.0128711 C46.7360982,39.3857946 48.1007855,35.8435421 51.0452257,31.5803692 C51.0999696,30.9062111 51.1077901,30.1736001 51.0847195,29.4487827 C51.0843285,29.4460549 51.0843285,29.4437168 51.0843285,29.4413787 C50.6502875,30.84542 49.9167191,32.1247616 48.9543995,33.0946919 L41.283214,40.8408849 C41.227688,40.8973894 41.1639505,40.9394756 41.0974758,40.9753268 L39.2909268,42.7760692 C39.2561253,42.811141 39.2174136,42.8419263 39.1767467,42.8692043 C38.4744606,44.040213 38.102202,45.3791766 38.102202,46.744639 L38.102202,50.6594319 C38.102202,50.731524 38.0892981,50.7997192 38.0709198,50.8659659 L38.0709198,59.1440813 C39.5149858,60.5142199 38.8897322,63.1294076 36.8653807,63.1294076 L29.8917891,63.1294076 C27.8811236,63.1294076 27.2331903,60.5224033 28.68625,59.1440813 L28.68625,50.8659659 C28.6678717,50.7997192 28.6549678,50.731524 28.6549678,50.6594319 L28.6549678,46.744639 C28.6549678,45.3682654 28.2776259,44.0183905 27.564391,42.8407572 C27.5608717,42.8353016 27.5593076,42.8294563 27.5565704,42.8243904 C27.537019,42.8080235 27.5159035,42.7939948 27.4975252,42.7760692 L21.9410187,37.2386206 L21.9371084,37.2347238 C21.6399272,36.9736337 21.3544768,36.728131 21.0846676,36.494319 C19.9233147,35.5006178 18.961386,34.670585 18.2340741,33.4859373 L18.2340741,37.7530071 L18.2340741,57.8335648 C18.7854235,58.2894983 19.1334383,58.9792438 19.1334383,59.7469267 L19.1334383,60.4093941 C19.1334383,61.500517 18.2418947,62.3890028 17.1470166,62.3890028 L5.16592153,62.3890028 C4.0710434,62.3890028 3.17949978,61.500517 3.17949978,60.4093941 C3.17949978,59.7239352 3.06805682,58.6694428 4.07886396,57.8335648 L4.07886396,41.2212191 L2.74936908,41.2212191 L1.53327229,41.2212191 C0.590895042,41.2212191 0.481407228,40.0092934 0.481407228,39.0974264 L0.481407228,36.8567276 L0.481407228,23.4125351 C0.481407228,20.1504675 2.90578024,17.3373189 6.37419776,16.5614526 C6.60099395,16.5150799 6.83952097,16.5657391 7.02330408,16.7060264 C8.25113171,17.6529651 9.67838356,18.1517642 11.156469,18.1517642 C12.6345545,18.1517642 14.0657167,17.6529651 15.289634,16.7060264 C16.2445241,15.9769225 21.8315309,18.3629744 21.8315309,23.4125351 C21.8315309,29.970963 22.7152539,31.0114266 24.4787898,33.0806631 C24.6547523,33.2871971 24.8385355,33.5015248 25.0262288,33.73144 C25.1083447,33.7859961 25.18264,33.8522429 25.2569353,33.9262834 L30.8173521,39.4715257 C30.8544998,39.5085459 30.8869551,39.5486836 30.9151091,39.5903801 C30.9233207,39.5962254 30.9327054,39.5997326 30.941308,39.6059676 C31.0480586,39.6846843 31.1555913,39.7521001 31.2998806,39.8308168 C31.6166132,40.008514 31.9462497,40.1410075 32.2825337,40.2333632 L34.5086556,40.2333632 C34.8418113,40.1413972 35.1691017,40.0100727 35.482315,39.8347137 C35.6332518,39.7521001 35.7403935,39.6846843 35.8475351,39.6059676 C35.8557467,39.5997326 35.8651314,39.5962254 35.8733429,39.5903801 C35.9014969,39.5486836 35.9339523,39.5085459 35.9710999,39.4715257 L41.1795916,34.2766117 L44.8908375,30.528215 C46.1339152,29.2734237 46.818214,27.6094613 46.818214,25.8480773 L46.818214,24.9284166 C46.818214,21.8537882 48.5078456,19.0402499 51.2290088,17.5906153 C51.8405764,17.2660062 52.3571243,16.8564455 52.8595951,17.333422 C52.9898074,17.4585115 53.0633207,17.6210108 53.0863913,17.7913039 C53.1497379,17.8836597 53.1962702,17.9892648 53.2150395,18.1069502 C53.7491836,21.442279 58.6980328,22.0264194 59.6826411,18.0862968 C59.4847809,17.3006883 60.4623507,16.8124109 61.0168283,17.326018 C63.6875489,18.769028 65.4022062,21.5973743 65.4022062,24.6112116 L65.4022062,38.5296528 C65.4022062,38.5316012 65.4014242,38.5339394 65.4014242,38.5358878 C66.0743832,40.4496394 66.5604309,42.5274491 66.9526319,45.0128711 C66.9991642,45.3324142 66.8505736,45.6480605 66.5690335,45.807832 M3.88139487,5.28391837 C3.88100384,5.28274931 4.55943725,2.62742387 7.01431044,1.52967632 C9.54778024,0.385945746 11.4141564,2.41543428 15.7612137,0.303332158 C17.2525941,-0.420705803 18.1867598,4.19942017 16.5112052,6.45960326 C18.8753599,11.0976548 15.9187979,17.0197242 11.1568601,17.0197242 C7.91836696,17.0197242 5.26524262,14.1956644 5.00872832,10.545079 C4.48357784,9.83156261 3.21273715,7.77323726 3.88139487,5.28391837 M37.5520257,34.3666294 C37.5520257,36.960774 35.6872137,39.0709277 33.394226,39.0709277 C31.1016294,39.0709277 29.2364263,36.960774 29.2364263,34.3666294 C29.2364263,32.2229626 29.2364263,28.9831071 33.394226,28.9831071 C37.5520257,28.9831071 37.5520257,32.2229626 37.5520257,34.3666294" id="Fill-25" fill="#FFFFFF" mask="url(#mask-2)"></path>
                        </g>
                        <path d="M60.8237673,60.745941 L60.8237673,70.5836681 L62.9489909,70.7482993 L63.5418881,60.4081633 C62.6263959,60.5894198 61.7260022,60.6960651 60.8237673,60.745941" id="Fill-28" fill="#FFFFFF"></path>
                        <path d="M59.1928948,70.5830163 L59.1928948,60.7350743 C58.2891869,60.6887788 57.388425,60.584411 56.474774,60.4081633 L57.0676713,70.7482993 L59.1928948,70.5830163 Z" id="Fill-30" fill="#FFFFFF"></path>
                        <path d="M64.3858747,44.2724246 C64.1578056,41.8479484 64.495977,38.4687357 64.9363862,37.181228 C65.003234,36.9871114 65.0700819,36.800918 65.1369297,36.6186861 L65.2784898,36.2344146 C65.8746151,34.5753123 65.4841452,33.9644393 64.7657276,32.2019403 C62.8664629,35.390998 58.2413798,35.3616824 56.3727864,32.1088435 C56.3346438,32.1995633 56.2949283,32.2886985 56.2579654,32.3798144 C55.8608107,33.3543587 55.6406061,33.8852081 55.5776905,34.3051337 C55.4597237,35.0182149 55.5894872,35.5886799 55.8214884,36.2344146 L55.9630486,36.6186861 C56.0298964,36.800918 56.0967442,36.9871114 56.163592,37.1772664 C56.6040012,38.4687357 56.9421726,41.8479484 56.7141035,44.2724246 C56.7023069,44.4071177 56.6551202,44.5378493 56.5764757,44.648773 C53.7448804,48.7569132 52.4515715,52.0053943 51.5821566,57.286157 C54.1392826,58.7650082 56.260718,59.8611725 60.5676841,59.8611725 L60.5676841,59.8639456 C60.5771215,59.8635494 60.6085793,59.8627571 60.6148708,59.8631533 L60.6148708,59.8611725 C65.2088894,59.789072 67.1647782,58.6461613 69.5217539,57.286157 C68.6484067,52.0053943 67.3590301,48.7569132 64.5235026,44.648773 C64.4448581,44.5378493 64.3976714,44.4071177 64.3858747,44.2724246" id="Fill-32" fill="#FFFFFF"></path>
                        <path d="M15.021658,32.0235875 C13.3180898,32.0235875 11.6770379,31.4882507 10.2469784,30.4761905 C7.67990425,31.1912755 5.0691259,31.5633139 5.0691259,33.9899137 L4.89261745,49.5238095 L7.76835317,49.7959184 L7.95028709,36.632955 C7.95028709,36.2011687 7.66047074,38.9115646 8.09222369,38.9115646 C8.52358591,38.9115646 8.34467447,38.1024707 8.34467447,38.5342569 L8.63584785,49.2517007 L20.5309039,49.7959184 L20.5309039,37.548889 L20.5309039,36.3688034 C20.5309039,35.9389709 20.8825578,36.3688034 21.3123572,36.3688034 L21.6014251,37.548889 C21.6014251,43.7072166 22.3902664,45.4180053 24.5083956,47.2936381 C24.6213156,47.0005705 26.0305118,47.2878309 26.2610405,47.0572844 C26.4915693,46.8267378 27.8993895,46.3956235 28.18462,46.2783965 C26.5318462,44.2269231 24.1255891,41.9175503 24.1255891,35.7357773 C24.1255891,33.3091775 22.3634119,31.1912755 19.7963377,30.4761905 C18.3662782,31.4882507 16.7252263,32.0235875 15.021658,32.0235875 Z" id="Fill-34" fill="#1B93C7"></path>
                        <path d="M21.2172794,69.6598639 L16.256858,69.6598639 C16.256858,71.1229176 15.8601568,71.804557 15.4286718,71.804557 C14.971513,71.804557 14.6004855,70.9690592 14.6004855,69.9396065 L14.6004855,69.6598639 L9.63923596,69.6598639 C9.10919677,69.6598639 8.67025808,70.601664 8.64127156,71.7859075 C8.63464607,71.861438 8.63713063,73.4233341 8.63713063,73.501662 C8.63713063,74.89478 8.23297575,74.5087353 21.7721641,74.5087353 C22.318767,74.5087353 22.2193847,73.1379967 22.2193847,71.9164541 C22.2193847,70.6911816 21.7771332,69.6598639 21.2172794,69.6598639" id="Fill-36" fill="#1B93C7"></path>
                        <path d="M59.5111241,71.8367347 L56.4120482,71.8367347 C55.5472676,71.8367347 54.8439015,72.7521088 54.8439015,73.877551 C54.8439015,73.9526531 54.8907369,74.0136054 54.9484446,74.0136054 L65.6118417,74.0136054 C65.6695495,74.0136054 65.7163848,73.9526531 65.7163848,73.877551 C65.7163848,72.7521088 65.0126006,71.8367347 64.1482381,71.8367347 L61.1453419,71.8367347 C60.9575825,72.9790476 59.6984653,72.9779592 59.5111241,71.8367347" id="Fill-38" fill="#1B93C7"></path>
                        <path d="M40.680073,71.8367347 L38.1187606,71.8367347 C38.1187606,72.5782476 37.7051985,73.1800552 37.1945995,73.1800552 C36.6844626,73.1800552 36.2704385,72.5782476 36.2704385,71.8367347 L33.6721596,71.8367347 C33.0562062,71.8367347 32.5553109,72.5648144 32.5553109,73.4601376 L32.5553109,73.7959677 C32.5553109,74.7980848 32.647265,74.5233758 41.2964885,74.5233758 C41.5723505,74.5233758 41.7969217,74.1969489 41.7969217,73.7959677 L41.7969217,73.4601376 C41.7969217,72.5648144 41.2960264,71.8367347 40.680073,71.8367347" id="Fill-40" fill="#D20A11"></path>
                        <path d="M36.7106978,35.8662418 C36.770331,35.9007421 36.8380227,35.9183673 36.9061174,35.9183673 C36.9726004,35.9183673 37.0402921,35.9007421 37.0999253,35.8662418 C37.2473966,35.7803658 40.6968552,33.7467178 41.1295989,32.0153233 C41.212199,31.7760705 41.2532975,31.5281927 41.2532975,31.2791899 C41.2532975,30.3934299 40.7359392,29.5762957 39.9010743,29.1461658 C39.5142643,28.9474136 39.0778943,28.8435374 38.6378979,28.8435374 C37.9932146,28.8435374 37.3795567,29.0629149 36.9045057,29.4544193 C36.4294547,29.0629149 35.8153938,28.8435374 35.1707105,28.8435374 C34.73152,28.8435374 34.29515,28.9474136 33.9071312,29.1472908 C33.0738781,29.5762957 32.5553109,30.3934299 32.5553109,31.2791899 C32.5553109,31.5281927 32.5968124,31.7760705 32.6790095,32.0153233 C33.1117532,33.7467178 36.5636294,35.7803658 36.7106978,35.8662418" id="Fill-42" fill="#E2001A"></path>
                        <path d="M11.4795696,14.7087727 C13.2305899,13.9073695 15.1354737,15.5489346 19.4002429,13.8118432 C20.8288088,19.006283 15.0420704,19.7853707 12.2031541,16.3068812 C11.9407724,15.9850671 11.4501146,15.9130309 11.1051815,16.2066569 C10.239748,16.9446369 9.53825471,17.9472719 9.14797639,19.135087 C8.8480008,17.1298171 10.1234784,15.3234299 11.4795696,14.7087727 M14.947892,27.277532 C10.6563808,27.277532 9.04255861,20.871004 11.5772361,17.9300458 C13.8689101,20.1925321 17.020204,20.4979032 19.0432952,19.3128286 C20.5470488,22.9165985 18.3592423,27.277532 14.947892,27.277532 M14.947892,28.8435374 C19.667663,28.8435374 22.5980447,22.8938914 20.2548245,18.2338509 C21.9155421,15.9635346 20.9896484,11.3218946 19.5114741,12.0493041 C15.20291,14.1708499 13.3530606,12.1319109 10.8420246,13.2813588 C8.40888924,14.3842181 7.73646334,17.0519083 7.73685091,17.0526913 C7.07411414,19.5536019 8.33370156,21.6219035 8.85458941,22.3387425 C9.10844472,26.0059356 11.7380757,28.8435374 14.947892,28.8435374" id="Fill-44" fill="#263357"></path>
                        <path d="M5.91772704,50.6122449 C5.91772704,50.829932 5.92678745,51.01384 5.94188812,51.1564626 L6.46135121,51.1564626 C6.16537805,51.1564626 5.91772704,50.9049965 5.91772704,50.6122449" id="Fill-46" fill="#263357"></path>
                        <g id="Group-50">
                            <mask id="mask-4" fill="white">
                                <use xlink:href="#path-3"></use>
                            </mask>
                            <g id="Clip-49"></g>
                            <path d="M60.2857486,59.7646132 L60.2857486,59.7665633 C60.2790993,59.7661732 60.2481996,59.7669533 60.2388123,59.7673433 L60.2388123,59.7646132 C55.9547033,59.7646132 53.8445264,58.6854204 51.3009711,57.2294658 C52.1657721,52.0304635 53.4522173,48.8322776 56.2683941,44.7877424 C56.3470124,44.6785361 56.3939487,44.5498286 56.4056827,44.4172209 C56.6325414,42.0302821 56.2961647,38.7033887 55.8580928,37.4319147 C55.7915997,37.2447039 55.7251067,37.0613932 55.6586136,36.8819828 L55.5178048,36.5036608 C55.2870347,35.8679238 55.1579599,35.3062912 55.2749095,34.6042503 C55.3378823,34.1908263 55.5569183,33.6681959 55.9519654,32.7087401 C55.9887321,32.6190349 56.0282368,32.5312798 56.066177,32.4419646 C57.9248537,35.6444408 62.5253914,35.6733025 64.4145767,32.53362 C65.1291816,34.2688308 65.5175793,34.8702458 64.9242265,36.5036608 L64.7838088,36.8819828 C64.7173157,37.0613932 64.6508227,37.2447039 64.5843296,37.435815 C64.1462577,38.7033887 63.809881,42.0302821 64.0367397,44.4172209 C64.0484737,44.5498286 64.09541,44.6785361 64.173246,44.7877424 C66.9937253,48.8322776 68.2766503,52.0304635 69.1449715,57.2294658 C66.8008955,58.5684136 64.8553866,59.693629 60.2857486,59.7646132 L60.2857486,59.7646132 Z M61.0488543,70.7538921 L61.0488543,61.291942 C62.0071367,61.2435791 62.9634634,61.1410032 63.9358267,60.9670531 L63.3060982,70.9126313 L61.0488543,70.7538921 Z M56.5973392,60.9818739 C57.5677468,61.1511438 58.5244647,61.2517696 59.4843116,61.2958422 L59.4843116,70.7538921 L57.2270676,70.9126313 L56.5973392,60.9818739 Z M66.0882463,73.9887401 C66.0882463,74.4731483 65.6943726,74.8662912 65.208191,74.8662912 L55.2342314,74.8662912 C53.6235347,74.8662912 54.3201473,71.7461098 56.6032062,71.7461098 L63.8392162,71.7461098 C65.081463,71.7461098 66.0882463,72.7500281 66.0882463,73.9887401 L66.0882463,73.9887401 Z M66.0628224,37.9467447 C66.1254042,37.7712345 66.1879859,37.5957243 66.2544789,37.4241143 L66.3952878,37.0340916 C66.6530462,36.3242503 66.8959414,35.4466993 66.7156279,34.3624363 C66.6577398,33.9934748 66.5423548,33.6280236 66.3589122,33.153756 C67.185773,34.287942 67.6606117,35.6662821 67.6606117,37.0949351 L67.6606117,47.4707084 C67.0688234,46.3525134 66.384336,45.2382186 65.5774231,44.0701007 C65.4018032,41.8274703 65.7342685,38.8905995 66.0628224,37.9467447 L66.0628224,37.9467447 Z M53.7928964,36.1916426 C53.7936787,36.1951528 53.7948521,36.198663 53.7956344,36.2021732 C53.8038482,36.4057651 53.8265341,37.2279329 53.7827269,39.1940372 C53.7365729,41.2159147 52.9433498,43.1956698 51.6600336,44.4893751 L49.118434,47.0572844 C49.0089161,46.8232707 48.8563731,46.6091483 48.6690192,46.4180372 C48.46954,46.2191256 48.2426813,46.0631166 48.0001772,45.9539102 L49.8228694,44.1130032 C51.3561212,42.5646132 52.2009743,40.5091937 52.2009743,38.3328671 L52.2009743,37.4124136 C52.2009743,35.5013025 53.0028024,33.7188989 54.3678659,32.4552254 C54.0119324,33.3093751 53.8124532,33.8320054 53.7303147,34.3546358 C53.6125829,35.0488762 53.667733,35.6573116 53.7928964,36.1916426 L53.7928964,36.1916426 Z M47.5621052,48.6255655 L42.5516573,53.621756 L41.4447433,52.5179918 L41.9610424,52.0031619 C42.0275355,51.9719601 42.089726,51.9251574 42.1448762,51.8705542 L45.9854373,47.9937288 L46.4551913,47.5218014 C46.7602771,47.2175837 47.2566282,47.2175837 47.5621052,47.5218014 C47.7107368,47.67001 47.7928753,47.8650213 47.7928753,48.0756336 C47.7928753,48.2823456 47.7107368,48.4773569 47.5621052,48.6255655 L47.5621052,48.6255655 Z M41.8867266,73.6638512 C41.8867266,74.3276698 41.3465683,74.8662912 40.6808553,74.8662912 L33.7053418,74.8662912 C33.0670084,74.8662912 32.4994705,74.4201052 32.4994705,73.4688399 C32.4994705,72.5171846 33.2727457,71.7461098 34.2267256,71.7461098 L40.1590804,71.7461098 C41.1130603,71.7461098 41.8867266,72.5171846 41.8867266,73.4688399 L41.8867266,73.6638512 Z M31.8658307,53.621756 L27.3716819,49.1403955 L26.8553828,48.6255655 C26.8436487,48.6138649 26.8319146,48.5982639 26.8240919,48.5865633 L26.3038815,49.1754975 C25.8618982,48.7854748 25.4472944,48.4344544 25.0596789,48.0990349 C22.6420693,46.0108535 21.2703565,44.5299374 21.2625338,37.7642141 L21.2625338,49.6185633 L11.215823,49.6185633 L10.8227316,50.1310531 L20.4798713,50.1310531 L20.4798713,50.2480599 L20.4798713,69.7608943 C20.4552298,69.754654 15.7725535,69.7569941 15.7475209,69.7569941 L15.7475209,54.7317605 C15.7475209,54.3007855 15.3970633,53.9517152 14.9652495,53.9517152 C14.5330446,53.9517152 14.1829782,54.3007855 14.1829782,54.7317605 L14.1829782,69.7569941 C14.1575544,69.7569941 9.47409583,69.754654 9.44984542,69.7608943 L9.44984542,51.5936381 C9.44984542,51.7028444 9.44984542,51.8120508 9.44202271,51.9290576 L9.1447596,52.3190803 L8.66757408,52.9392163 L6.55544145,52.9392163 C5.7379679,52.9392163 5.0691259,52.330781 5.0691259,51.5936381 L5.0691259,35.8952254 C5.0691259,32.9544544 7.32989008,30.4739102 10.3533688,29.8030712 C11.6632822,30.8132299 13.2516841,31.4099646 14.9648584,31.4099646 C16.6780326,31.4099646 18.2660434,30.8132299 19.5763479,29.8030712 C22.5998267,30.4739102 24.8605909,32.9544544 24.8605909,35.8952254 C24.8605909,39.7096472 25.169588,41.7611664 25.7602029,43.2042503 C26.1748067,44.2144091 26.726308,44.9242503 27.4029727,45.7315973 L27.4064929,45.7315973 C27.6924131,46.0787175 28.009233,46.4414385 28.3456097,46.8509624 L27.844956,47.4242957 C27.8840696,47.4515973 27.9270945,47.4866993 27.9622967,47.5218014 L32.9727447,52.5179918 L31.8658307,53.621756 Z M22.1621459,72.2597696 L22.1621459,72.9224181 C22.1621459,73.5866268 21.6219875,74.1252481 20.9558835,74.1252481 L8.97422444,74.1252481 C8.3081204,74.1252481 7.76835317,73.5866268 7.76835317,72.9224181 L7.76835317,72.2597696 C7.76835317,71.3081143 8.54162839,70.5370395 9.49560829,70.5370395 L20.4344996,70.5370395 C21.3888706,70.5370395 22.1621459,71.3081143 22.1621459,72.2597696 L22.1621459,72.2597696 Z M37.208744,66.3181642 C36.7769302,66.3181642 36.4264727,66.6676245 36.4264727,67.0982095 L36.4264727,70.9660644 C36.2078278,70.9660644 34.2615367,70.9613841 34.0640132,70.9742549 L34.0640132,63.9456562 L40.3221839,63.9456562 L40.3221839,70.9742549 C40.2678161,70.9707447 40.2142305,70.9660644 40.1590804,70.9660644 L37.9910153,70.9660644 L37.9910153,67.0982095 C37.9910153,66.6676245 37.6405578,66.3181642 37.208744,66.3181642 L37.208744,66.3181642 Z M34.3530625,53.69118 C35.2464163,54.1923592 36.2074367,54.446654 37.208744,54.446654 C38.2100513,54.446654 39.1710717,54.1923592 40.0577762,53.6946902 C40.1395236,53.6502277 40.2114925,53.6065451 40.2826792,53.5632526 L41.5214059,54.7984544 C40.7598648,56.1569034 40.3534748,57.6869624 40.3534748,59.2474431 L40.3534748,62.3855655 L34.0327223,62.3855655 L34.0327223,59.2474431 C34.0327223,57.6947628 33.6302437,56.1721143 32.875743,54.8183456 L34.1344176,53.5632526 C34.2044309,53.6057651 34.2744442,53.6482776 34.3530625,53.69118 L34.3530625,53.69118 Z M69.2251543,51.0253751 L69.2251543,37.0949351 C69.2251543,34.0788898 67.5104156,31.2477152 64.8389589,29.8034612 C64.2843286,29.2894113 63.3064894,29.7781098 63.504404,30.5643955 C62.5195244,34.5083048 57.5693114,33.9236608 57.0346289,30.5850667 C57.0162455,30.4672798 56.9693092,30.3615837 56.9059453,30.2691483 C56.8832594,30.0987084 56.8093347,29.9360689 56.6790866,29.8108717 C56.1768684,29.3334839 55.6601781,29.7433977 55.0480508,30.0682866 C52.3261377,31.519171 50.6364316,34.3351347 50.6364316,37.4124136 L50.6364316,38.3328671 C50.6364316,40.0957696 49.9519442,41.7611664 48.7081327,43.0170395 L44.9962552,46.7690576 L39.7863281,51.9680599 C39.7491702,52.005112 39.7167059,52.0452844 39.6885441,52.0870168 C39.6799392,52.0928671 39.670943,52.0963773 39.6623381,52.1026177 C39.555558,52.1814023 39.4483868,52.2488762 39.2974085,52.331561 C38.9841088,52.5074612 38.6567282,52.6385088 38.3234807,52.7305542 L36.0963541,52.7305542 C35.7603686,52.6381188 35.4306412,52.5059011 35.1138213,52.3280508 C34.9691011,52.2488762 34.86193,52.1814023 34.7551499,52.1026177 C34.7465449,52.0963773 34.7371577,52.0928671 34.7289438,52.0870168 C34.7007821,52.0452844 34.6683178,52.005112 34.6311599,51.9680599 L29.0688195,46.4180372 C28.9948949,46.3439329 28.9205791,46.277629 28.8384406,46.2230259 C28.6506955,45.9929125 28.4668617,45.7784 28.2908507,45.571688 C26.5264377,43.5006676 25.6428622,42.459307 25.6428622,35.8952254 C25.6428622,30.8413116 20.0543157,28.4532027 19.0991624,29.1829351 C17.8749078,30.1306902 16.4433512,30.6299193 14.9648584,30.6299193 C13.4863655,30.6299193 12.0587203,30.1306902 10.8305543,29.1829351 C10.6467206,29.042527 10.4081278,28.991824 10.1812691,29.0386268 C6.71189572,29.8147719 4.28685456,32.6307356 4.28685456,35.8952254 L4.28685456,49.3510077 L4.28685456,51.5936381 C4.28685456,52.5062912 4.39637255,53.7192617 5.33900952,53.7192617 L6.55544145,53.7192617 L7.88530274,53.7192617 L7.88530274,70.3459283 C6.87382589,71.182527 6.98569069,72.2379283 6.98569069,72.9239782 C6.98569069,74.0160417 7.87748002,74.9052934 8.9726599,74.9052934 L20.9570569,74.9052934 C22.0522367,74.9052934 22.9440261,74.0160417 22.9440261,72.9239782 L22.9440261,72.2609397 C22.9440261,71.492595 22.5959153,70.8022549 22.044414,70.3459283 L22.044414,50.2480599 L22.044414,45.9773116 C22.7719264,47.1629805 23.7341201,47.9937288 24.8957931,48.9882866 C25.1656767,49.2223002 25.4508146,49.4680145 25.7484688,49.7293297 L25.7523802,49.7332299 L31.3104181,55.2754522 C31.3284103,55.2937832 31.3499228,55.307434 31.3690884,55.323815 C31.3722175,55.3288853 31.3737821,55.3347356 31.3773023,55.3401959 C32.0907337,56.5188444 32.4681797,57.869883 32.4681797,59.2474431 L32.4681797,63.1656109 C32.4681797,63.2377651 32.4810871,63.306019 32.4994705,63.3723229 L32.4994705,71.6579646 C31.0460104,73.0370848 31.693731,75.6463365 33.7053418,75.6463365 L40.6808553,75.6463365 C42.7057647,75.6463365 43.3307995,73.0288943 41.8867266,71.6579646 L41.8867266,63.3723229 C41.90511,63.306019 41.9180175,63.2377651 41.9180175,63.1656109 L41.9180175,59.2474431 C41.9180175,57.8808036 42.2903786,56.5406857 42.9928583,55.3686676 C43.0335364,55.341366 43.0718677,55.3105542 43.1070699,55.2754522 L44.9141167,53.4731574 C44.9806098,53.4372753 45.0439738,53.3951528 45.0999062,53.3385995 L52.7732058,45.5857288 C53.7357906,44.6149624 54.4695612,43.3349079 54.9033306,41.9292662 C54.9033306,41.9316063 54.9033306,41.9343365 54.9037218,41.9366766 C54.9271899,42.6621188 54.918976,43.3953615 54.8646082,44.0701007 C51.9189654,48.3369488 50.5542931,51.8822549 49.6699353,57.5141823 C49.6190877,57.8340009 49.7677193,58.1499193 50.0497281,58.3098286 C52.2271804,59.5703819 53.5605619,60.2564317 55.0085461,60.6460644 L55.6719122,71.113493 C53.0990218,71.9446313 52.8369609,75.6463365 55.2346225,75.6463365 L65.2085821,75.6463365 C66.1254042,75.6463365 66.8709087,74.9025633 66.8709087,73.9887401 C66.8709087,72.679044 66.0299671,71.5643592 64.8585157,71.1454748 L65.525402,60.6191528 C66.935055,60.2287401 68.2613961,59.5454204 70.3926943,58.3098286 C70.674312,58.1499193 70.8225524,57.8340009 70.7760073,57.5141823 C70.3836982,55.0270077 69.8979077,52.9470168 69.2247632,51.0316154 C69.2247632,51.0296653 69.2251543,51.0277152 69.2251543,51.0253751 L69.2251543,51.0253751 Z" id="Fill-48" fill="#263357" mask="url(#mask-4)"></path>
                        </g>
                        <path d="M9.4515559,49.1678912 L9.45101228,49.1678912 L9.45101228,49.3355102 C9.45101228,49.3333333 9.4515559,49.3311565 9.4515559,49.3289796 L9.4515559,49.1678912 Z" id="Fill-51" fill="#263357"></path>
                        <path d="M25.835566,46.7572512 C25.5989708,46.994784 25.4185167,47.2725766 25.3022241,47.574525 C23.1287557,45.6420549 22.0380114,44.1081568 22.0380114,37.7632132 L22.0380114,36.5473674 C22.0380114,36.1045097 21.6811135,35.7421715 21.2359936,35.7421715 C20.7948837,35.7421715 20.4339757,36.1045097 20.4339757,36.5473674 L20.4339757,37.7632132 L20.4339757,48.9795918 L9.12632581,48.9795918 L9.12632581,36.8195236 C9.12632581,36.3746529 8.76702181,36.0143278 8.32430795,36.0143278 C7.88119307,36.0143278 7.52229008,36.3746529 7.52229008,36.8195236 L7.52229008,48.9795918 L5.43624161,48.9795918 L5.43624161,35.8951588 C5.43624161,33.3950255 7.2447919,31.2129447 9.87942059,30.4761905 C11.3471133,31.5189191 13.0313508,32.0704783 14.7797497,32.0704783 C16.5281487,32.0704783 18.2123862,31.5189191 19.6800789,30.4761905 C22.3147076,31.2129447 24.1232579,33.3950255 24.1232579,35.8951588 C24.1232579,42.2642582 24.9413161,44.1081568 26.6375839,46.2217959 C26.3448474,46.3425753 26.0721613,46.5197184 25.835566,46.7572512 L25.835566,46.7572512 Z M7.61073826,50.7378336 L7.61073826,52.1821036 C7.61073826,52.4249084 7.59819308,52.6300366 7.58146618,52.7891156 L6.18895199,52.7891156 L5.46969541,52.7891156 C5.44878678,52.6300366 5.43624161,52.4249084 5.43624161,52.1821036 L5.43624161,50.6122449 L7.61073826,50.6122449 L7.61073826,50.7378336 Z M27.847424,47.4922592 C28.0041807,47.4922592 28.1609374,47.5366627 28.297597,47.6254696 L28.8120805,47.0320778 C28.4664119,46.6082266 28.1408404,46.2328154 27.847424,45.873551 L27.8434046,45.873551 C27.148048,45.0379585 26.5813123,44.303283 26.1552556,43.2577832 C25.5483259,41.7642121 25.2307931,39.6409191 25.2307931,35.6930473 C25.2307931,32.6493915 22.9075786,30.0820638 19.8005806,29.3877551 C18.4540808,30.4332549 16.8222035,31.0508667 15.0617053,31.0508667 C13.3012071,31.0508667 11.6693297,30.4332549 10.32283,29.3877551 C7.21583198,30.0820638 4.89261745,32.6493915 4.89261745,35.6930473 L4.89261745,51.9406792 C4.89261745,52.7036115 5.57993524,53.3333333 6.41999032,53.3333333 L8.59046757,53.3333333 L9.08083465,52.6915014 L9.38630922,52.2878335 C9.39434803,52.1667332 9.39434803,52.0537062 9.39434803,51.9406792 L9.39434803,50.5512544 L9.39434803,50.4269246 L10.8051582,50.4269246 L11.2091082,49.8965051 L21.5333449,49.8965051 L21.5333449,37.6278274 C21.5417857,44.630254 20.9876763,45.1324003 23.4720688,47.2936381 C23.8699897,47.6407925 25.7010632,49.1201417 26.1552556,49.5238095 L27.248533,48.8283999 C27.1158928,48.6790428 27.0435435,48.4933555 27.0435435,48.299595 C27.0435435,48.0816143 27.127951,47.8797804 27.2806883,47.7263866 C27.437445,47.5689561 27.6424345,47.4922592 27.847424,47.4922592 Z" id="Fill-53" fill="#263357"></path>
                        <path d="M21.3088502,73.9863344 C8.31122936,73.9863344 8.69921804,74.2008037 8.69921804,73.4268493 C8.69921804,73.3833338 8.69683287,72.5161318 8.70319334,72.4736523 C8.73102039,71.8157392 9.15240154,71.292517 9.66123916,71.292517 L14.4240387,71.292517 L14.4240387,71.4479295 C14.4240387,72.0203658 14.7802251,72.4840132 15.2190975,72.4840132 C15.6333231,72.4840132 16.0141563,72.1058426 16.0141563,71.292517 L20.7761608,71.292517 C21.3136206,71.292517 21.7381819,71.8659893 21.7381819,72.5461782 C21.7381819,73.224813 21.833589,73.9863344 21.3088502,73.9863344 M20.5272483,70.2040816 L9.37247939,70.2040816 C8.39927396,70.2040816 7.61073826,71.1396628 7.61073826,72.2943508 L7.61073826,73.0988465 C7.61073826,73.9047619 8.16155657,74.5578231 8.8408061,74.5578231 L21.0589216,74.5578231 C21.7381711,74.5578231 22.2885906,73.9047619 22.2885906,73.0988465 L22.2885906,72.2943508 C22.2885906,71.1396628 21.5000549,70.2040816 20.5272483,70.2040816" id="Fill-55" fill="#263357"></path>
                        <path d="M65.2348993,73.9115646 C65.2348993,73.9678912 65.1904058,74.0136054 65.1355834,74.0136054 L55.0053562,74.0136054 C54.9505338,74.0136054 54.9060403,73.9678912 54.9060403,73.9115646 C54.9060403,73.067483 55.5746353,72.3809524 56.3957796,72.3809524 L59.3399017,72.3809524 C59.5178758,73.2368707 60.7140372,73.2376871 60.8924086,72.3809524 L63.74516,72.3809524 C64.5663043,72.3809524 65.2348993,73.067483 65.2348993,73.9115646 L65.2348993,73.9115646 Z M56.6519961,71.292517 C54.3243806,71.292517 53.6141728,75.1020408 55.2563041,75.1020408 L65.4249171,75.1020408 C65.9205871,75.1020408 66.3221477,74.622517 66.3221477,74.0306122 C66.3221477,72.5187075 65.2957159,71.292517 64.0292251,71.292517 L56.6519961,71.292517 Z" id="Fill-57" fill="#263357"></path>
                        <path d="M41.3154362,73.9483388 C41.3154362,74.2691237 41.1040752,74.5302653 40.8444403,74.5302653 C32.7039946,74.5302653 32.6174497,74.7500325 32.6174497,73.9483388 L32.6174497,73.6796747 C32.6174497,72.9634162 33.0888805,72.3809524 33.6686013,72.3809524 L36.1140403,72.3809524 C36.1140403,72.9747001 36.5037101,73.4556088 36.9838389,73.4556088 C37.4644027,73.4556088 37.8536376,72.9747001 37.8536376,72.3809524 L40.2642846,72.3809524 C40.8440054,72.3809524 41.3154362,72.9634162 41.3154362,73.6796747 L41.3154362,73.9483388 Z M40.5017441,71.292517 L33.9747659,71.292517 C32.9250956,71.292517 32.0738255,72.2344218 32.0738255,73.3958503 C32.0738255,74.5572789 32.6982911,75.1020408 33.4006535,75.1020408 L41.0758565,75.1020408 C41.8083448,75.1020408 42.4026846,74.444898 42.4026846,73.6339456 L42.4026846,73.3958503 C42.4026846,72.2344218 41.5514144,71.292517 40.5017441,71.292517 L40.5017441,71.292517 Z" id="Fill-59" fill="#263357"></path>
                        <g id="Group-63" transform="translate(49.469799, 12.517007)">
                            <mask id="mask-6" fill="white">
                                <use xlink:href="#path-5"></use>
                            </mask>
                            <g id="Clip-62"></g>
                            <path d="M19.3739006,8.00941376 C18.8667769,4.21333817 17.4576254,2.21371308 16.115262,1.23344399 C14.7325152,0.223762963 12.8694375,-0.185295238 10.8560866,0.0790252457 C8.84351228,-0.185295238 6.98004632,0.223762963 5.59729943,1.23344399 C4.25377115,2.21410008 2.84578457,4.21217717 2.33866089,8.00941376 C2.16780758,9.28805926 2.03306645,10.2981273 1.19394373,11.4045581 C0.439082749,12.3999202 -0.0501789956,12.3983722 0.0399072939,13.0361469 C0.32026204,15.0230011 1.66262541,16.601571 3.43717,17.2687577 C4.39977307,17.629441 4.94456214,16.1809028 3.98545379,15.8202195 C2.84850269,15.3933593 1.96977307,14.4517902 1.65524766,13.2099096 C3.45969157,11.483119 3.67985936,9.69982646 3.87828217,8.21336236 C4.95854104,0.132431141 10.0810339,1.74931398 10.9667529,1.62624822 C15.323124,1.00279244 17.2506599,3.84801088 17.8342793,8.21374936 C18.0311489,9.68705548 18.2505401,11.485441 20.0580904,13.2106836 C19.9427644,13.6708257 19.7121125,14.2315876 19.2550799,14.7590676 C18.7382486,15.3558204 18.1387088,15.6654198 17.7271077,15.8202195 C17.3259907,15.9707622 17.1229083,16.4173593 17.2739581,16.8171296 C17.4253963,17.2172868 17.8727213,17.4189134 18.2746149,17.2687577 C18.8551278,17.0504901 19.7008517,16.613568 20.4308613,15.7706836 C21.2742553,14.7969935 21.5716954,13.7466776 21.6726542,13.0369209 C21.7103196,12.7733745 21.6089725,12.508667 21.4043368,12.3368393 C19.7233733,10.9227441 19.5591211,9.39719305 19.3739006,8.00941376" id="Fill-61" fill="#263357" mask="url(#mask-6)"></path>
                        </g>
                        <path d="M64.1251615,22.0787731 C63.8274362,24.7437359 62.249889,26.7409756 60.4222526,26.7409756 C58.6490006,26.7409756 57.0627201,24.7903856 56.7328405,22.203304 C56.7165648,22.0748197 56.666547,21.9597768 56.5970777,21.8597567 C57.9598657,21.097548 59.2126939,20.1720655 60.4210617,18.9394065 C61.5099424,20.2404587 62.7333949,21.2568686 64.1251615,22.0787731 M62.1935197,15.4047034 C60.9867397,14.5970311 61.0478727,16.8464954 57.2913732,19.5498059 C56.5006147,20.118695 55.6483264,20.6156329 54.7587232,21.0267828 C53.988607,21.3829809 54.2486205,22.5349913 55.0933664,22.5349913 C55.1211541,22.5349913 55.1493388,22.5290612 55.1771265,22.5258986 C56.2429831,30.0720803 64.2938725,30.2634232 65.6173608,22.8488884 C65.7543144,22.9101656 65.8301351,22.9516759 66.0107552,22.9516759 C66.8638374,22.9516759 67.1167055,21.7798987 66.3295197,21.4363514 C64.4796531,20.6302604 62.8334306,19.4039268 61.4924758,17.7399557 C61.8148131,17.343038 62.1204777,16.9307021 62.4098667,16.5021574 C62.6543985,16.1396339 62.5575385,15.6482307 62.1935197,15.4047034" id="Fill-64" fill="#263357"></path>
                        <path d="M39.6172613,46.3349003 C39.6172613,48.112779 38.4000503,49.5587284 36.9043042,49.5587284 C35.4085581,49.5587284 34.1913472,48.112779 34.1913472,46.3349003 C34.1913472,43.8308515 34.3173219,42.4140607 36.9043042,42.4140607 C39.4912865,42.4140607 39.6172613,43.8308515 39.6172613,46.3349003 M32.5553109,46.3349003 C32.5553109,48.99353 34.5062841,51.1564626 36.9043042,51.1564626 C39.3023243,51.1564626 41.2532975,48.99353 41.2532975,46.3349003 C41.2532975,44.1376164 41.2532975,40.8163265 36.9043042,40.8163265 C32.5553109,40.8163265 32.5553109,44.1376164 32.5553109,46.3349003" id="Fill-66" fill="#263357"></path>
                    </g>
                </g>
            </g>
        </g>
    </g>
</svg>