<?xml version="1.0" encoding="UTF-8"?>
<svg width="53px" height="69px" viewBox="0 0 53 69" version="1.1" xmlns="http://www.w3.org/2000/svg" xmlns:xlink="http://www.w3.org/1999/xlink">
    <!-- Generator: Sketch 57.1 (83088) - https://sketch.com -->
    <title>illu Leistungen</title>
    <desc>Created with Sketch.</desc>
    <defs>
        <polygon id="path-1" points="0 69 53 69 53 0 0 0"></polygon>
    </defs>
    <g id="Layouts" stroke="none" stroke-width="1" fill="none" fill-rule="evenodd">
        <g id="01_320_IKKBB_startseite_mobil" transform="translate(-212.000000, -727.000000)">
            <g id="illu-Leistungen" transform="translate(212.000000, 727.000000)">
                <g>
                    <path d="M34.8475392,37.0746269 L27.4141493,37.0746269 C20.1948974,37.0746269 13.9926515,41.3863329 11.2631384,47.5572585 L24.4591651,47.5572585 L24.4591651,65.1322762 L14.2908938,65.1322762 C13.4862362,66.8085075 11.7701502,67.9701493 9.77669903,67.9701493 L51.2924679,67.9701493 C51.9517324,67.9701493 52.4854369,67.4397057 52.4854369,66.7848005 L52.4854369,54.5992672 C52.4848404,44.9204502 44.5885785,37.0746269 34.8475392,37.0746269" id="Fill-1" fill="#FFFFFF"></path>
                    <polygon id="Fill-3" fill="#E2001A" points="32.3733614 49.4328358 29.3742114 49.4328358 27.7864078 45.6078408 29.3742114 43.2537313 32.3733614 43.2537313 33.961165 45.6078408"></polygon>
                    <polygon id="Fill-5" fill="#E2001A" points="33.961165 67.9701493 27.7864078 67.9701493 29.3742114 49.4328358 32.3733614 49.4328358"></polygon>
                    <path d="M31.0825094,8.51035304 C37.8124054,8.61802662 43.2722482,13.9200431 43.696302,20.5970149 C43.7209983,20.2715746 43.7378641,19.9443195 43.7378641,19.61283 C43.7378641,12.5481123 38.0908412,6.8075377 31.0825094,6.69562977 C24.0073169,6.58251202 18.0223762,12.4827823 18.0097087,19.5886337 C18.0091245,19.9043955 18.0235809,20.2165279 18.0452655,20.5268456 C18.524133,13.8196284 24.3006609,8.40207455 31.0825094,8.51035304" id="Fill-9" fill="#FFFFFF"></path>
                    <polygon id="Fill-11" fill="#E2001A" points="30.8737864 16.4776119 26.7572816 22.9068359 26.7572816 35.5298507 34.9902913 35.5298507 34.9902913 22.9068359"></polygon>
                    <path d="M26.7572816,22.9365396 C26.7572816,22.9365396 28.413836,24.7164179 30.8737864,24.7164179 C33.3335869,24.7164179 34.9902913,22.9365396 34.9902913,22.9365396 L30.8737864,16.4776119 L26.7572816,22.9365396 Z" id="Fill-13" fill="#FFFFFF"></path>
                    <path d="M0.514563107,47.3731343 L0.514563107,65.3955224 L4.9194492,65.3955224 C4.60759356,64.7313917 4.42802217,63.9917468 4.42802217,63.2065198 C4.42802217,60.3907638 6.67625592,58.1072544 9.45003526,58.1072544 C12.2238146,58.1072544 14.4720483,60.390156 14.4720483,63.2065198 C14.4720483,63.991139 14.292477,64.7313917 13.9806213,65.3955224 L24.184466,65.3955224 L24.184466,47.3731343 L0.514563107,47.3731343 Z" id="Fill-17" fill="#009EE0"></path>
                    <mask id="mask-2" fill="white">
                        <use xlink:href="#path-1"></use>
                    </mask>
                    <g id="Clip-20"></g>
                    <polygon id="Fill-19" fill="#FFFFFF" mask="url(#mask-2)" points="14.9223301 54.0671642 21.0970874 54.0671642 21.0970874 50.9776119 14.9223301 50.9776119"></polygon>
                    <path d="M9.51941748,58.1865672 C12.2192255,58.1865672 14.407767,60.3766494 14.407767,63.078504 C14.407767,65.780067 12.2192255,67.9701493 9.51941748,67.9701493 C6.81960942,67.9701493 4.63106796,65.780067 4.63106796,63.078504 C4.63106796,60.3766494 6.81960942,58.1865672 9.51941748,58.1865672" id="Fill-21" fill="#FFFFFF" mask="url(#mask-2)"></path>
                    <path d="M51.8032371,67.2036212 C51.8032371,67.5335561 51.5344295,67.8024141 51.2045565,67.8024141 L42.6601864,67.8024141 L42.6601864,62.1276534 C42.6601864,61.7971196 42.3919775,61.5288604 42.0615057,61.5288604 C41.731034,61.5288604 41.4628251,61.7971196 41.4628251,62.1276534 L41.4628251,67.8024141 L34.4877466,67.8024141 L33.017836,49.7703633 L34.4368588,46.0812 L36.6835575,48.2793689 C36.7967082,48.3907444 36.9481744,48.4501746 37.1020353,48.4501746 C37.162053,48.4501746 37.2217714,48.441043 37.2804421,48.4230792 C37.4905791,48.3578108 37.6480321,48.1819153 37.6899397,47.9656014 L39.5328284,38.4861102 C42.2039917,39.2741218 44.6035037,40.699249 46.5587947,42.5830516 C43.4390699,44.2566779 41.4640225,47.5082733 41.4640225,51.0984861 L41.4640225,53.5050349 C41.4640225,53.8355686 41.7322314,54.1038279 42.0627031,54.1038279 C42.3931748,54.1038279 42.6613837,53.8355686 42.6613837,53.5050349 L42.6613837,51.0984861 C42.6613837,47.838807 44.5202871,44.8979851 47.4286777,43.484235 C50.1468375,46.5129297 51.8044345,50.511669 51.8044345,54.8924382 L51.8044345,67.2036212 L51.8032371,67.2036212 Z M28.6516581,67.8024141 L30.0795114,50.2811337 L31.8581916,50.2811337 L33.2860449,67.8024141 L28.6516581,67.8024141 Z M14.4305982,66.1331291 L19.2781153,66.1331291 L19.2781153,67.8024141 L12.9919686,67.8024141 C13.5738862,67.3461339 14.0648043,66.7802745 14.4305982,66.1331291 L14.4305982,66.1331291 Z M5.11228366,63.3773342 C5.11228366,60.9374027 7.09676031,58.9522544 9.53578524,58.9522544 C11.9754088,58.9522544 13.9600352,60.9374027 13.9600352,63.3773342 C13.9600352,65.8174155 11.9754088,67.8024141 9.53578524,67.8024141 C7.09676031,67.8024141 5.11228366,65.8174155 5.11228366,63.3773342 L5.11228366,63.3773342 Z M1.19736128,64.9355432 L1.19736128,48.3763733 L11.8365149,48.3763733 L11.8365149,58.253463 C11.1332149,57.9361027 10.355379,57.7552673 9.53518656,57.7552673 C6.43581688,57.7552673 3.91417403,60.2773832 3.91417403,63.377933 C3.91417403,63.9186431 3.99499591,64.4401917 4.13867927,64.936142 L1.19736128,64.936142 L1.19736128,64.9355432 Z M14.5150121,43.4915702 C16.1723098,44.2991922 17.4852164,45.6003692 18.307654,47.1787874 L11.9891785,47.1787874 C12.6698784,45.83809 13.5206036,44.600385 14.5150121,43.4915702 L14.5150121,43.4915702 Z M23.2138418,28.9653024 C20.3904639,26.6336027 18.7752236,23.1995251 18.781789,19.5432954 C18.7877959,16.3038256 20.095913,13.2380057 22.4648923,10.9104975 C24.835069,8.58119292 27.9362347,7.31294946 31.1667154,7.37881669 C37.7779458,7.48360545 43.1560436,12.9511838 43.1560436,19.5660495 C43.1560436,23.243237 41.5185024,26.6868952 38.6639931,29.0144034 C37.389402,30.053908 36.3759854,31.3874199 35.6779237,32.9209286 L35.6779237,22.9725826 C35.6779237,22.9677923 35.675978,22.9636007 35.675978,22.9594091 C35.675978,22.9456369 35.6711886,22.9330623 35.6699912,22.91929 C35.6653514,22.8636023 35.6527792,22.8097109 35.6322743,22.7576159 C35.6244915,22.7384546 35.6168583,22.7204908 35.6071298,22.7013294 C35.5987482,22.685162 35.5945575,22.6671982 35.5845296,22.6516296 L31.5672328,16.3229869 L31.5672328,15.1577359 C31.5672328,14.8272021 31.2990239,14.5589429 30.9685522,14.5589429 C30.6380804,14.5589429 30.3698715,14.8272021 30.3698715,15.1577359 L30.3698715,16.3229869 L26.3527244,22.6516296 C26.3431455,22.6671982 26.3383561,22.685162 26.3299746,22.7013294 C26.3203957,22.719892 26.3120141,22.7378558 26.30483,22.7576159 C26.2844748,22.8097109 26.2720522,22.8636023 26.2671131,22.91929 C26.2659157,22.9330623 26.261725,22.9456369 26.2611263,22.9594091 C26.2611263,22.9636007 26.2594799,22.9677923 26.2594799,22.9725826 L26.2594799,32.9556586 C25.5403148,31.3934078 24.5063933,30.0329502 23.2138418,28.9653024 L23.2138418,28.9653024 Z M33.5488657,43.5369287 C34.9653441,42.8824481 35.9527182,41.4520814 35.9527182,39.7914789 L35.9527182,38.3292265 L36.2231721,37.8579764 C36.9529638,37.9226461 37.6689859,38.0376143 38.3700409,38.1915041 L36.7268122,46.6464605 L33.5488657,43.5369287 Z M24.2723092,66.1329794 C24.6027809,66.1329794 24.8709898,65.8647201 24.8709898,65.5341864 L24.8709898,48.4476297 C25.0218574,48.4452345 25.1691328,48.3879001 25.2804874,48.2787701 L27.5087767,46.0987147 L28.9204657,49.7697645 L27.4507047,67.8018153 L20.4754766,67.8018153 L20.4754766,66.1323806 L24.2723092,66.1323806 L24.2723092,66.1329794 Z M24.1214417,47.1787874 L19.6313369,47.1787874 C18.7740262,45.245285 17.3018705,43.6177658 15.3872898,42.5878419 C17.3467715,40.699249 19.7518214,39.275469 22.4303185,38.4885054 L24.1214417,47.1787874 Z M34.4811611,24.232443 L34.4811611,35.0873615 L31.5679811,35.0873615 L31.5679811,25.3210485 C32.7910857,25.192308 33.7925287,24.6941123 34.4811611,24.232443 L34.4811611,24.232443 Z M30.3706199,25.3210485 L30.3706199,35.0873615 L27.4572902,35.0873615 L27.4572902,24.232443 C28.1459226,24.6941123 29.1473656,25.192308 30.3706199,25.3210485 L30.3706199,25.3210485 Z M32.2880443,42.6740681 L29.6502574,42.6740681 C28.2553315,42.4507183 27.1830945,41.2483421 27.1830945,39.7908801 L27.1830945,36.2849474 L34.7547584,36.2849474 L34.7547584,39.7908801 C34.7553569,41.2483421 33.6831198,42.4507183 32.2880443,42.6740681 L32.2880443,42.6740681 Z M30.618324,18.1666704 L31.3195287,18.1666704 L34.3057477,22.8707878 C33.7507708,23.3330559 32.5408372,24.1587914 30.9693005,24.1587914 C29.4089891,24.1587914 28.19247,23.3318584 27.633901,22.8695902 L30.618324,18.1666704 Z M25.7408728,37.8639644 L25.9857332,38.2898559 L25.9857332,39.7908801 C25.9857332,41.4580693 26.9807404,42.8938251 28.4063487,43.5447131 L25.2367837,46.6458617 L23.5916093,38.1921029 C24.2938617,38.0388119 25.0104824,37.9281849 25.7408728,37.8639644 L25.7408728,37.8639644 Z M13.0344749,58.9845892 L13.0344749,48.3763733 L23.6736286,48.3763733 L23.6736286,64.9353935 L14.9328912,64.9353935 C15.0759759,64.4401917 15.1573964,63.9186431 15.1573964,63.3773342 C15.1573964,61.6001168 14.325829,60.0151118 13.0344749,58.9845892 L13.0344749,58.9845892 Z M31.9990312,49.0835478 L29.9394201,49.0835478 L28.6685708,45.7788095 L29.8394405,43.9051864 C29.9304399,43.9111743 30.0208407,43.9189586 30.1130375,43.9189586 L31.8258628,43.9189586 C31.9182093,43.9189586 32.0084604,43.9111743 32.0996096,43.9051864 L33.2706289,45.7788095 L31.9990312,49.0835478 Z M48.0454684,42.3890427 C48.0177794,42.3537139 47.9908388,42.3207803 47.9568637,42.2932358 C44.8902718,39.0687358 40.6635864,36.9611343 35.9521195,36.6406304 L35.9521195,35.7807637 L36.27406,34.718505 C36.8559776,32.7981761 37.9437803,31.1467051 39.4208751,29.9425325 C42.5554173,27.3868842 44.3534049,23.6049079 44.3534049,19.5660495 C44.3534049,12.3008947 38.4468217,6.29619904 31.1858732,6.180632 C27.6273155,6.12674063 24.2268095,7.50037165 21.6255421,10.0560199 C19.0260707,12.6104707 17.5904346,15.9792798 17.5844478,19.5409002 C17.5772636,23.5564057 19.3511543,27.3282025 22.4511227,29.8886411 C23.9771596,31.1485015 25.1038766,32.8712288 25.7091427,34.8705984 L25.9851345,35.7807637 L25.9851345,36.6478159 C21.2813007,36.9681701 17.0612009,39.0657418 13.9965547,42.2830563 C13.9582391,42.3123972 13.9265091,42.3453308 13.8953777,42.3836535 C12.5752868,43.790817 11.483892,45.4105519 10.6583114,47.1787874 L0.59868064,47.1787874 C0.268208927,47.1787874 0,47.4470467 0,47.7775804 L0,65.5341864 C0,65.8647201 0.268208927,66.1329794 0.59868064,66.1329794 L4.64097232,66.1329794 C5.6066442,67.8419344 7.43681091,69 9.53518656,69 L51.2039578,69 C52.1941756,69 53,68.1940247 53,67.2036212 L53,54.8924382 C53.0005984,50.05973 51.1153531,45.6626437 48.0454684,42.3890427 L48.0454684,42.3890427 Z" id="Fill-22" stroke="#1E3358" stroke-width="0.5" fill="#1E3358" mask="url(#mask-2)"></path>
                    <path d="M42.1941748,55.6119403 C41.9101359,55.6119403 41.6796117,55.8785272 41.6796117,56.2070004 L41.6796117,59.6512085 C41.6796117,59.9796817 41.9101359,60.2462687 42.1941748,60.2462687 C42.4782136,60.2462687 42.7087379,59.9796817 42.7087379,59.6512085 L42.7087379,56.2070004 C42.7087379,55.8785272 42.4787282,55.6119403 42.1941748,55.6119403" id="Fill-23" fill="#E2001A" mask="url(#mask-2)"></path>
                    <path d="M12.4190185,19.5671642 L14.338263,19.5671642 C14.660668,19.5671642 14.9223301,19.3364776 14.9223301,19.0522388 C14.9223301,18.768 14.660668,18.5373134 14.338263,18.5373134 L12.4190185,18.5373134 C12.0966135,18.5373134 11.8349515,18.768 11.8349515,19.0522388 C11.8349515,19.3364776 12.0966135,19.5671642 12.4190185,19.5671642" id="Fill-24" fill="#E2001A" mask="url(#mask-2)"></path>
                    <path d="M46.8252427,19.0522388 C46.8252427,19.3364776 47.0868924,19.5671642 47.4092822,19.5671642 L49.3285819,19.5671642 C49.6509717,19.5671642 49.9126214,19.3364776 49.9126214,19.0522388 C49.9126214,18.768 49.6509717,18.5373134 49.3285819,18.5373134 L47.4092822,18.5373134 C47.0868924,18.5373134 46.8252427,18.768 46.8252427,19.0522388" id="Fill-25" fill="#E2001A" mask="url(#mask-2)"></path>
                    <path d="M14.6733922,10.3237955 L16.1840769,11.2526061 C16.2674433,11.3040497 16.3593057,11.3283582 16.449044,11.3283582 C16.6327688,11.3283582 16.8111836,11.227167 16.9094179,11.0457013 C17.0559729,10.7754812 16.9688895,10.4295092 16.7150732,10.2734825 L15.2043885,9.34467183 C14.9500413,9.18807988 14.6256025,9.28135667 14.4790475,9.55157671 C14.3324925,9.82179674 14.4190449,10.1677688 14.6733922,10.3237955" id="Fill-26" fill="#E2001A" mask="url(#mask-2)"></path>
                    <path d="M47.0743394,27.7810084 L45.5633675,26.8522533 C45.3085303,26.6956708 44.9846748,26.7883767 44.8381434,27.0591458 C44.6916121,27.3299149 44.7786814,27.675301 45.0324568,27.8313183 L46.5434286,28.7600734 C46.6273125,28.8115139 46.7186292,28.8358209 46.8083531,28.8358209 C46.9920482,28.8358209 47.1705669,28.7346358 47.2686527,28.5531809 C47.415184,28.282977 47.3281147,27.937591 47.0743394,27.7810084" id="Fill-27" fill="#E2001A" mask="url(#mask-2)"></path>
                    <path d="M22.1007824,4.88361034 C22.2058979,5.0541534 22.3952188,5.14925373 22.5907562,5.14925373 C22.6862643,5.14925373 22.7834679,5.1264084 22.8727595,5.0780613 C23.142895,4.93142615 23.2355774,4.60627864 23.0795996,4.35232356 L22.1510796,2.84028138 C21.9951018,2.58632629 21.6498031,2.49919526 21.3796677,2.64583041 C21.1095322,2.79246557 21.0168498,3.11761308 21.1728276,3.37156816 L22.1007824,4.88361034 Z" id="Fill-28" fill="#E2001A" mask="url(#mask-2)"></path>
                    <path d="M30.8737864,3.08955224 C31.1578252,3.08955224 31.3883495,2.82770597 31.3883495,2.50507395 L31.3883495,0.58447829 C31.3883495,0.261846274 31.1578252,0 30.8737864,0 C30.5897476,0 30.3592233,0.261846274 30.3592233,0.58447829 L30.3592233,2.50507395 C30.3592233,2.82770597 30.5897476,3.08955224 30.8737864,3.08955224" id="Fill-29" fill="#E2001A" mask="url(#mask-2)"></path>
                    <path d="M16.1839968,26.8524952 L14.6733802,27.781137 C14.4190444,27.9371353 14.3324959,28.2830445 14.4790443,28.5532154 C14.5778052,28.7346481 14.7556809,28.8358209 14.9393974,28.8358209 C15.0291318,28.8358209 15.120459,28.8115168 15.2043527,28.7600826 L16.7149693,27.8314408 C16.9693051,27.6754426 17.0558536,27.3295334 16.9093052,27.0593625 C16.7622258,26.7886264 16.4388636,26.6953666 16.1839968,26.8524952" id="Fill-30" fill="#E2001A" mask="url(#mask-2)"></path>
                    <path d="M45.298511,11.3283582 C45.3882268,11.3283582 45.4800661,11.3040541 45.5634116,11.2526199 L47.0742474,10.3239781 C47.3285307,10.1679799 47.4150614,9.82207069 47.2685432,9.5518998 C47.1214942,9.2811637 46.7966061,9.18790387 46.5433845,9.34503255 L45.0325487,10.2736743 C44.7782654,10.4296726 44.6917347,10.7755818 44.8382529,11.0457527 C44.9369934,11.2271854 45.1153633,11.3283582 45.298511,11.3283582" id="Fill-31" fill="#E2001A" mask="url(#mask-2)"></path>
                    <path d="M38.874673,5.0780613 C38.9639401,5.1264084 39.061117,5.14925373 39.1565989,5.14925373 C39.3520826,5.14925373 39.5420578,5.0541534 39.6464381,4.88361034 L40.5747033,3.37156816 C40.7307795,3.11761308 40.6379812,2.79246557 40.3679199,2.64583041 C40.0972936,2.49919526 39.7520897,2.58632629 39.5961548,2.84028138 L38.6678896,4.35232356 C38.5120959,4.60627864 38.6046117,4.93142615 38.874673,5.0780613" id="Fill-32" fill="#E2001A" mask="url(#mask-2)"></path>
                </g>
            </g>
        </g>
    </g>
</svg>