<?xml version="1.0" encoding="UTF-8"?>
<svg width="70px" height="66px" viewBox="0 0 70 66" version="1.1" xmlns="http://www.w3.org/2000/svg" xmlns:xlink="http://www.w3.org/1999/xlink">
    <!-- Generator: Sketch 57.1 (83088) - https://sketch.com -->
    <title>Group 21</title>
    <desc>Created with Sketch.</desc>
    <defs>
        <polygon id="path-1" points="0.000206228955 3.49172143 70.0002062 3.49172143 70.0002062 62.3553578 0.000206228955 62.3553578"></polygon>
    </defs>
    <g id="Layouts" stroke="none" stroke-width="1" fill="none" fill-rule="evenodd">
        <g id="01_320_IKKBB_startseite_mobil" transform="translate(-56.000000, -887.000000)">
            <g id="Mein-Weg-mit-der-IKKBB" transform="translate(-192.000000, 611.000000)">
                <g id="Group-21" transform="translate(248.000000, 276.000000)">
                    <g>
                        <path d="M49.0211356,12.584959 C49.0417057,12.5143742 49.0375917,12.4562456 49.0001541,12.4064211 C49.0001541,12.398117 48.9964515,12.3898129 48.9882234,12.3856608 C48.9882234,15.8551095 44.8503417,20.5635284 40.7972087,16.38408 C39.4042014,22.644118 35.0848913,28.0122968 29.1668729,30.5300968 C29.5758065,31.622915 30.438928,33.9185806 30.9194456,35.1886911 C36.0804843,33.0366863 40.2743167,29.174039 42.874789,24.5511522 L42.874789,35.0060012 L59.4131512,35.0060012 L59.4131512,21.470335 C62.2802121,24.9518246 61.8815635,28.1281389 61.8815635,32.5147742 L66.818388,32.5147742 L66.818388,28.3627294 C66.818388,19.6600434 59.8080972,12.584959 51.1851103,12.584959 L49.0211356,12.584959 Z" id="Fill-1" fill="#009EE0"></path>
                        <path d="M19.8880266,57.9917214 L13.5201473,57.9917214 C11.251963,57.9917214 11.0663766,61.1735396 12.9600292,61.1735396 L20.4481447,61.1735396 C21.1090336,61.1735396 21.7426305,60.7443919 21.7426305,59.7484828 C21.7426305,58.778426 20.9121105,57.9917214 19.8880266,57.9917214" id="Fill-3" fill="#F86464"></path>
                        <path d="M11.7403791,16.7854881 C14.7563312,17.9164398 18.117789,16.3882917 19.2483132,13.3726918 C20.3796513,10.357092 18.8515309,6.99516612 15.8355789,5.86462138 C12.8200338,4.73366969 9.45898296,6.2618178 8.32764486,9.27741768 C7.19671371,12.2930176 8.72483406,15.6549434 11.7403791,16.7854881" id="Fill-5" fill="#E2001A"></path>
                        <path d="M16.9247695,3.84473288 C17.011057,3.88241127 17.0999592,3.90081234 17.1869938,3.90081234 C17.4895604,3.90081234 17.7738235,3.68350441 17.8866323,3.33169338 L18.5130571,1.37197889 C18.6579903,0.918961943 18.4618823,0.413808621 18.075643,0.243817738 C17.6897773,0.076017458 17.2590868,0.303840292 17.1137802,0.756857235 L16.4873553,2.71657173 C16.3424222,3.16958867 16.5385302,3.67474199 16.9247695,3.84473288" id="Fill-7" fill="#E2001A"></path>
                        <path d="M9.44173793,3.45345103 C9.59034359,3.73429029 9.91284006,3.90081234 10.2495317,3.90081234 C10.3728522,3.90081234 10.4975035,3.87832996 10.6159445,3.83184096 C11.062205,3.65769776 11.2596066,3.20614482 11.0568819,2.8231822 L10.1798867,1.16596386 C9.97671831,0.78223912 9.44927911,0.613430721 9.00568012,0.787573923 C8.55941953,0.961717124 8.36201798,1.41327007 8.56474272,1.79623269 L9.44173793,3.45345103 Z" id="Fill-9" fill="#E2001A"></path>
                        <path d="M5.17987396,8.62571934 C5.28106243,8.65784859 5.38531721,8.67353961 5.48738176,8.67353961 C5.84219846,8.67353961 6.17555093,8.48823605 6.30784061,8.18823856 C6.47780219,7.80194041 6.24782841,7.37155794 5.79488956,7.22622914 L3.83595098,6.59933524 C3.38257409,6.45624802 2.8779459,6.65051788 2.70754628,7.03681603 C2.53802275,7.42311418 2.76755849,7.85387024 3.22049733,7.99882544 L5.17987396,8.62571934 Z" id="Fill-11" fill="#E2001A"></path>
                        <path d="M5.28647054,14.0565814 L3.62895481,14.9334118 C3.24592346,15.1360984 3.07632252,15.6616645 3.25049697,16.1073977 C3.37817409,16.4342687 3.65525248,16.6280851 3.9445269,16.6280851 C4.05047985,16.6280851 4.15757617,16.6019176 4.25971787,16.5478087 L5.91685248,15.6714218 C6.30026495,15.4687352 6.46948477,14.9427256 6.29531031,14.4969924 C6.12113586,14.0503722 5.66759626,13.8534512 5.28647054,14.0565814" id="Fill-13" fill="#E2001A"></path>
                        <path d="M10.2198408,18.7871603 L9.59341593,20.7468748 C9.44848281,21.1998917 9.64459077,21.705045 10.0308301,21.8750359 C10.1171176,21.9127143 10.2060198,21.9311154 10.2930544,21.9311154 C10.595621,21.9311154 10.8798841,21.7138074 10.9926929,21.3619964 L11.6191177,19.4022819 C11.7640509,18.949265 11.5679429,18.4441117 11.1817036,18.2741208 C10.7954643,18.1063205 10.3647739,18.3341433 10.2198408,18.7871603 Z" id="Fill-15" fill="#E2001A"></path>
                        <path d="M16.9599164,18.2875739 C16.5136073,18.4617171 16.316628,18.9136511 16.5193748,19.2962327 L17.3960215,20.953451 C17.5446433,21.2342903 17.8671748,21.4008123 18.2043466,21.4008123 C18.3272368,21.4008123 18.4519017,21.37833 18.5707991,21.331841 C19.0171081,21.1576978 19.2140875,20.7061448 19.0113407,20.3231822 L18.1342503,18.6659639 C17.9310599,18.2822391 17.4031199,18.1134307 16.9599164,18.2875739" id="Fill-17" fill="#E2001A"></path>
                        <path d="M24.3555228,14.1203744 L22.3962396,13.4935696 C21.9441984,13.3497557 21.4387182,13.544745 21.2683268,13.9309882 C21.0983733,14.3172314 21.3283361,14.7479262 21.7812533,14.8928608 L23.7405365,15.5196655 C23.8417201,15.5517902 23.9455319,15.567479 24.0480296,15.567479 C24.4023914,15.567479 24.736166,15.3822018 24.8684493,15.082247 C25.0384028,14.6960038 24.80844,14.2656825 24.3555228,14.1203744" id="Fill-19" fill="#E2001A"></path>
                        <path d="M22.2896793,8.06296025 L23.9471639,7.18657334 C24.3305692,6.98388669 24.4997858,6.45787714 24.3256146,6.01214392 C24.1514434,5.56552367 23.6979124,5.36860272 23.3167938,5.57173289 L21.6593092,6.44856331 C21.2759039,6.65124996 21.1066873,7.176816 21.2808584,7.62254922 C21.4085332,7.94942025 21.6852252,8.14323658 21.9748753,8.14323658 C22.0804452,8.14323658 22.1879206,8.11706916 22.2896793,8.06296025 Z" id="Fill-21" fill="#E2001A"></path>
                        <path d="M55.6820244,65.4159639 C56.2665362,65.4159639 56.7426305,65.0573091 56.7426305,64.6169805 C56.7426305,63.560902 54.6214184,63.5612571 54.6214184,64.6169805 C54.6214184,65.0573091 55.0975126,65.4159639 55.6820244,65.4159639 Z" id="Fill-23" fill="#263357"></path>
                        <path d="M53.2660725,63.8250548 L10.3638455,63.8250548 C9.2735514,63.8250548 9.27231384,65.4159639 10.3638455,65.4159639 L53.2660725,65.4159639 C53.7214961,65.4159639 54.0911153,65.0596002 54.0911153,64.6205093 C54.0911153,64.1814184 53.7214961,63.8250548 53.2660725,63.8250548" id="Fill-25" fill="#263357"></path>
                        <path d="M14.7524102,28.525256 C15.199698,28.4019938 15.5687914,28.3508051 15.8771121,28.3508051 C17.4499122,28.3508051 17.8737012,29.7693452 18.3910803,31.6887151 C18.8776679,33.4885083 18.0495372,35.2084472 16.6590555,35.5917479 C15.2693841,35.975458 13.6925325,34.9193337 13.205945,33.1170834 C12.5378493,30.6407809 12.2805778,29.2062699 14.7524102,28.525256 M19.9549671,31.2575018 C19.1880143,28.414279 18.1200336,25.9011207 14.3257851,26.9449598 C10.170141,28.0903572 11.0562084,31.3746215 11.6424634,33.5487062 C12.3518845,36.1757081 14.7771244,37.8092405 17.0856806,37.1720441 C19.371143,36.5422189 20.6704655,33.9111219 19.9549671,31.2575018 Z" id="Fill-27" fill="#263357"></path>
                        <mask id="mask-2" fill="white">
                            <use xlink:href="#path-1"></use>
                        </mask>
                        <g id="Clip-30"></g>
                        <path d="M63.234335,35.4864742 C62.5991498,34.9318577 62.6936027,34.2777051 62.6936027,33.458888 L65.993266,33.458888 L65.993266,34.2781147 C65.993266,35.695377 64.298064,36.4453791 63.234335,35.4864742 L63.234335,35.4864742 Z M60.1875084,60.4933708 C60.2378283,60.183703 60.2188552,62.77205 60.2188552,24.6276236 C62.0613047,28.2866999 59.9878788,34.3608566 61.8686869,36.4421022 L61.8686869,60.4933708 L60.1875084,60.4933708 Z M46.4171886,60.4933708 C46.9698822,59.5455254 47.8723401,59.674144 48.8073822,59.674144 C50.0963131,59.674144 51.1447811,58.6329068 51.1447811,57.352865 L51.1447811,55.5780103 L51.1447811,40.012702 C51.1447811,39.5600792 50.7756313,39.1934752 50.3198653,39.1934752 C49.8645118,39.1934752 49.4949495,39.5600792 49.4949495,40.012702 L49.4949495,57.352865 C49.4949495,57.7292997 49.186431,58.0356905 48.8073822,58.0356905 L47.8451178,58.0356905 C46.3111869,58.0356905 45.0222559,59.0822527 44.6543434,60.4933708 L38.9022054,60.4933708 C39.4557239,59.5455254 40.3573569,59.674144 41.2928114,59.674144 C42.5817424,59.674144 43.6302104,58.6329068 43.6302104,57.352865 C43.6302104,54.7735296 43.629798,57.1193854 43.6351599,35.9165682 L58.5690236,35.9165682 L58.5690236,60.1861607 C58.5690236,60.6277239 58.9431229,60.4933708 46.4171886,60.4933708 L46.4171886,60.4933708 Z M13.4040572,58.8876863 L15.7233081,58.8876863 C15.7233081,59.9698849 17.3731397,59.9715233 17.3731397,58.8876863 L19.6593939,58.8876863 C20.2092003,58.8876863 20.6563047,59.3317072 20.6563047,59.8777219 L20.6563047,60.0825285 C20.6563047,60.2697219 20.5375168,60.4282422 20.3725337,60.4933708 L12.6909175,60.4933708 C12.1217256,60.2697219 12.3712626,58.8876863 13.4040572,58.8876863 L13.4040572,58.8876863 Z M13.2320623,49.2859392 L19.8313889,49.2859392 L19.8313889,57.2578347 C19.6230976,57.2443175 17.6028788,57.2492328 17.3731397,57.2492328 L17.3731397,53.187097 C17.3731397,52.7344742 17.0035774,52.3678702 16.5482239,52.3678702 C16.0924579,52.3678702 15.7233081,52.7344742 15.7233081,53.187097 L15.7233081,57.2492328 C15.4927441,57.2492328 13.4403535,57.2443175 13.2320623,57.2578347 L13.2320623,49.2859392 Z M9.9460101,40.8319287 L2.47474747,40.8319287 C2.02021886,40.8319287 1.64983165,40.4640959 1.64983165,40.012702 C1.64983165,39.5608984 2.02021886,39.1934752 2.47474747,39.1934752 L9.9460101,39.1934752 L9.9460101,40.8319287 Z M24.1951936,34.7164011 C24.1951936,34.9248943 24.5362963,35.6830886 25.0489815,36.1869131 L22.182399,39.033726 L21.0151431,37.8745202 L24.1951936,34.7164011 Z M25.7914057,34.3067877 C25.646633,33.7783864 25.7621212,33.2295045 26.1044613,32.8198911 L26.1044613,32.8194815 L26.3024411,32.6232767 C26.3234764,32.6105787 26.3440993,32.5941942 26.3605976,32.5778096 C26.3857576,32.5655212 26.3907071,32.5438117 26.4385522,32.5249695 C26.4472138,32.5167772 26.4637121,32.5126811 26.4756734,32.5044888 C26.4925842,32.4962966 26.5045455,32.4840082 26.5169192,32.4754063 C26.6369444,32.3979894 26.7808923,32.3324512 26.9421633,32.2914899 C27.5068182,32.1354272 28.0599242,31.9556069 28.5998316,31.7548964 C29.4565067,34.0069507 29.2094444,33.3593519 29.7670875,34.8142987 C29.0419865,35.08833 28.4736195,35.2611868 27.8244108,35.4451033 C27.4082407,35.5561085 27.0159933,35.5147375 26.6777778,35.3472057 C26.5045455,35.265283 26.3478114,35.1542778 26.220362,35.0236111 C26.014133,34.8269967 25.8693603,34.5812286 25.7914057,34.3067877 L25.7914057,34.3067877 Z M13.2287626,47.6474857 C13.2258754,47.583586 13.2151515,47.5225536 13.1986532,47.4627501 L13.1986532,43.2404554 C13.1986532,42.1992182 12.5288215,41.3128148 11.5958418,40.9773415 L11.5958418,39.1934752 L13.7076263,39.1934752 C15.6168939,40.1884261 17.8581902,40.1466456 19.7884933,38.9706456 L21.0852609,40.25847 C19.5777273,42.3925557 19.8643855,44.324702 19.8643855,47.6474857 L13.2287626,47.6474857 Z M37.1393603,60.4933708 L22.2640657,60.4933708 C22.4257492,59.6970824 22.2376684,58.6906623 21.4812205,57.975887 L21.4812205,48.6842171 C21.4898822,48.6518577 21.5080303,44.140376 21.5604125,43.5685557 C21.7629293,41.3509089 22.8163468,40.7221524 26.5375421,37.0348128 C27.1182828,37.1921043 27.6887121,37.1744909 28.2616162,37.0266205 C33.88383,35.4782819 38.547904,32.1120792 41.9873906,27.5575881 L41.9853283,35.0842339 C41.9853283,35.08833 41.9840909,35.0928357 41.9840909,35.0973415 C41.9840909,35.1018472 41.9853283,35.1055338 41.9853283,35.1100395 C41.9799663,57.2873269 41.9803788,54.8194063 41.9803788,57.352865 C41.9803788,57.7292997 41.6718603,58.0356905 41.2928114,58.0356905 L40.3305471,58.0356905 C38.7962037,58.0356905 37.5072727,59.0822527 37.1393603,60.4933708 L37.1393603,60.4933708 Z M40.9327357,19.0200165 C45.0135943,21.6825035 49.5564057,18.5563342 50.4765993,13.797446 C60.0823316,13.797446 65.993266,20.9411033 65.993266,28.5435275 L65.993266,31.8204345 L62.6936027,31.8204345 C62.6936027,29.1268169 63.4756229,22.7712558 57.3650589,18.880748 C56.4419781,18.2995066 55.5568434,19.677446 56.4737374,20.2652412 C57.2491582,20.7526811 57.9503367,21.3548128 58.5690236,22.0511555 L58.5690236,34.2781147 L43.6380471,34.2781147 C43.6380471,24.6718619 43.8112795,24.6153352 43.3988215,24.2057219 L43.3975842,24.2057219 C43.2969444,24.104957 43.1410354,24.0185285 43.0238973,23.9923133 C43.021835,23.9906748 43.0040993,23.9882171 42.9999747,23.9873979 C42.9983249,23.9857595 42.9797643,23.9808441 42.9789394,23.9804345 L42.9785269,23.9804345 C42.7747727,23.9398828 42.5607071,23.9849402 42.4212963,24.0619476 C42.4171717,24.0664533 42.4134596,24.0664533 42.409335,24.0705494 C42.0360606,24.2806811 41.993165,24.6321294 41.1719613,25.8564638 C41.1719613,25.8621983 40.997904,26.1055087 40.9941919,26.1100144 C39.3608586,28.5713812 36.1803956,31.7356445 32.1387205,33.7783864 C32.1387205,33.7783864 31.2948316,34.1826748 31.2935943,34.1834941 L30.1222138,31.1199956 C35.6343013,28.5595024 39.4627357,23.6810071 40.9327357,19.0200165 L40.9327357,19.0200165 Z M38.8411616,7.24363199 C40.3342593,4.9809277 43.937904,4.17317013 45.9317256,5.36350659 C46.0921717,6.12497786 45.1934259,7.14532478 44.8345875,7.46482321 C43.7131145,8.44871454 46.1222811,12.1778347 47.4862795,11.5118034 C47.7296296,11.3930155 47.8987374,11.163632 47.9403956,10.9010698 C48.3066582,8.51138538 49.9964983,9.34535821 49.0416582,10.7622109 C48.6770455,11.4855881 49.1781818,12.1286811 48.7983081,13.7810615 C47.6223906,18.7242757 42.7640488,20.1120458 39.670202,15.452284 C37.690404,12.5645097 37.7110269,8.95540628 38.8411616,7.24363199 L38.8411616,7.24363199 Z M50.0026852,8.08702593 C48.9385438,7.40215236 47.4194613,7.76506981 46.6906481,9.32856407 C46.4844192,9.07460377 46.3066498,8.75920147 46.236532,8.39423596 C46.8180976,7.78432164 47.4532828,6.86678768 47.5770202,5.87961945 C47.7172559,5.78090262 47.8286195,5.64204369 47.8863636,5.47819834 C48.9500926,5.64654944 49.8253283,6.82541673 50.0026852,8.08702593 L50.0026852,8.08702593 Z M67.6430976,32.5737135 L67.6430976,28.5435275 C67.6430976,20.0366769 60.9736532,12.1589925 50.5925,12.1589925 C50.5838384,11.9664742 50.5760017,11.7616675 50.5595034,11.5568608 C53.3254461,8.54906981 50.5953872,2.94023387 46.7236448,3.9212579 C43.2495118,2.19678559 39.2131987,3.68736866 37.4639646,6.34248256 C35.5996549,9.17291098 36.1684343,14.4978849 39.5712121,17.8894836 C38.7743434,20.4675902 37.5196465,22.7089946 36.0570707,24.4760667 C36.0570707,24.4760667 36.0611953,24.4801628 36.0570707,24.4801628 C34.584596,26.2615714 32.8031902,27.7734543 30.7738973,28.9326602 C30.5920034,29.0350635 30.4109343,29.1333708 30.2253283,29.2312684 C29.7468771,29.4856383 29.2515152,29.7191179 28.748729,29.9280207 C28.7400673,29.936213 28.7322306,29.9403091 28.723569,29.9403091 C28.0063047,30.243423 27.263468,30.4969737 26.5004209,30.7103822 C26.2038636,30.7923049 25.9316414,30.9110928 25.6837542,31.0626498 C25.6755051,31.0667459 25.6717929,31.070842 25.6631313,31.0745285 C25.5315572,31.1486686 25.4074074,31.2346874 25.2923316,31.332585 C25.107138,31.4743112 19.208165,37.3551304 19.1636195,37.4198493 C16.6047306,39.1373582 14.5197559,37.6779058 14.1064731,37.5787793 C13.9398401,37.5398661 10.9416835,37.5550217 10.7709259,37.5550217 L2.47474747,37.5550217 C1.1103367,37.5550217 2.77111667e-13,38.6572913 2.77111667e-13,40.012702 C2.77111667e-13,41.367703 1.1103367,42.4703822 2.47474747,42.4703822 L10.7709259,42.4703822 L10.7725758,42.4703822 L10.7738131,42.4703822 C11.2011195,42.4703822 11.5488215,42.8160959 11.5488215,43.2404554 C11.5488215,43.4419852 11.5281987,48.4896508 11.5822306,48.6842171 L11.5822306,57.975887 C10.8608418,58.6574836 10.627803,59.6483384 10.7989731,60.4933708 L0.824915825,60.4933708 C-0.26479798,60.4933708 -0.266447811,62.1318243 0.824915825,62.1318243 L66.8181818,62.1318243 C67.9083081,62.1318243 67.9099579,60.4933708 66.8181818,60.4933708 L63.5185185,60.4933708 L63.5185185,37.4481127 C65.5465741,37.9695505 67.502037,36.5109173 67.6323737,34.4882464 C68.1491835,34.9425076 68.4680135,35.6023948 68.4680135,36.3261816 C68.4680135,36.7783948 68.8375758,37.1454084 69.2929293,37.1454084 C70.8767677,37.1454084 70.1471296,33.6509967 67.6430976,32.5737135 L67.6430976,32.5737135 Z" id="Fill-29" fill="#263357" mask="url(#mask-2)"></path>
                        <path d="M67.8789941,18.4841457 C67.8789941,18.0457618 67.5203393,17.6886911 67.0800107,17.6886911 C66.0239322,17.6886911 66.0242873,19.2796002 67.0800107,19.2796002 C67.5203393,19.2796002 67.8789941,18.9225295 67.8789941,18.4841457 Z" id="Fill-32" fill="#263357" mask="url(#mask-2)"></path>
                        <path d="M54.2453897,10.8472722 C58.3261878,11.6046724 62.0782889,13.7438722 64.8115547,16.8712555 C64.9773726,17.0610199 65.2120363,17.1583881 65.4479594,17.1583881 C66.1603465,17.1583881 66.5536916,16.3272367 66.0831047,15.7886042 C63.1025814,12.3782316 59.0087697,10.0447098 54.5560357,9.21811599 C54.0972031,9.13400645 53.6610392,9.43025434 53.5754016,9.879391 C53.489764,10.3293563 53.7899153,10.7627483 54.2453897,10.8472722" id="Fill-34" fill="#263357" mask="url(#mask-2)"></path>
                    </g>
                </g>
            </g>
        </g>
    </g>
</svg>