<?xml version="1.0" encoding="UTF-8"?>
<svg width="61px" height="77px" viewBox="0 0 61 77" version="1.1" xmlns="http://www.w3.org/2000/svg" xmlns:xlink="http://www.w3.org/1999/xlink">
    <!-- Generator: Sketch 57.1 (83088) - https://sketch.com -->
    <title>Illu 4</title>
    <desc>Created with Sketch.</desc>
    <defs>
        <polygon id="path-1" points="-1.0658141e-14 89 61 89 61 4.26325641e-14 -1.0658141e-14 4.26325641e-14"></polygon>
    </defs>
    <g id="Layouts" stroke="none" stroke-width="1" fill="none" fill-rule="evenodd">
        <g id="01_320_IKKBB_startseite_mobil" transform="translate(-211.000000, -871.000000)">
            <g id="Mein-Weg-mit-der-IKKBB" transform="translate(-192.000000, 611.000000)">
                <g id="Illu-4" transform="translate(403.000000, 248.000000)">
                    <g>
                        <polygon id="Fill-1" fill="#009EE0" points="22.9401709 58.8092652 28.3071708 46.7662672 26.6598588 39.2300185 29.4329852 38.4345761 31.219464 40.0326578 36.2256889 37.9171598 36.3803608 40.8523422 34.5435852 48.0264752 35.7745312 50.2635623 32.1800178 56.2585466 34.4513116 58.5100273 39.6239316 52.7782966 39.5327925 59.5088757"></polygon>
                        <path d="M32.0683093,83.4722025 C31.9019051,84.2548145 30.7859965,84.2544414 30.6199629,83.4722025 L27.8733674,83.4722025 C27.1073152,83.4722025 26.4835775,84.099635 26.4835775,84.8710561 C26.4835775,84.9225339 26.5250859,84.964313 26.5762301,84.964313 L36.0268016,84.964313 C36.0779459,84.964313 36.1194543,84.9225339 36.1194543,84.8710561 C36.1194543,84.099635 35.4957166,83.4722025 34.7296644,83.4722025 L32.0683093,83.4722025 Z" id="Fill-2" fill="#009EE0"></path>
                        <path d="M36.026431,85.7103682 L26.5758595,85.7103682 C25.0496849,85.7103682 25.7097424,82.7261473 27.8729968,82.7261473 L34.7292938,82.7261473 C35.9063532,82.7261473 36.860305,83.6863204 36.860305,84.8710561 C36.860305,85.3343564 36.4871001,85.7103682 36.026431,85.7103682 M35.6954757,82.1516848 L37.6033793,59.2921796 L36.1176012,59.2921796 L34.2241514,81.9289873 L32.0853574,81.7771651 L32.0464433,59.2921796 L30.5640007,59.2921796 L30.6029148,81.7771651 L28.4641208,81.9289873 L27.2262812,58.7113756 L25.7408737,58.7113756 L26.9905728,82.1210965 C24.552696,82.9160184 24.3043868,86.4564234 26.5762301,86.4564234 L36.0268016,86.4564234 C36.895513,86.4564234 37.6018969,85.7450598 37.6018969,84.8710561 C37.6018969,83.6184294 36.805084,82.5523164 35.6954757,82.1516848" id="Fill-4" fill="#263357"></path>
                        <path d="M36.0268016,84.964313 L26.5762301,84.964313 C26.5250859,84.964313 26.4835775,84.9225339 26.4835775,84.8710561 C26.4835775,84.099635 27.1073152,83.4722025 27.8733674,83.4722025 L30.6199629,83.4722025 C30.7859965,84.2544414 31.9019051,84.2548145 32.0683093,83.4722025 L34.7296644,83.4722025 C35.4957166,83.4722025 36.1194543,84.099635 36.1194543,84.8710561 C36.1194543,84.9225339 36.0779459,84.964313 36.0268016,84.964313 M34.7292938,82.7261473 L27.8729968,82.7261473 C25.7097424,82.7261473 25.0496849,85.7103682 26.5758595,85.7103682 L36.026431,85.7103682 C36.4871001,85.7103682 36.860305,85.3343564 36.860305,84.8710561 C36.860305,83.6863204 35.9063532,82.7261473 34.7292938,82.7261473" id="Fill-6" fill="#263357"></path>
                        <mask id="mask-2" fill="white">
                            <use xlink:href="#path-1"></use>
                        </mask>
                        <g id="Clip-9"></g>
                        <polygon id="Fill-8" fill="#263357" mask="url(#mask-2)" points="23.0842254 60.115265 40.6107736 60.115265 40.6107736 58.7111891 23.0842254 58.7111891"></polygon>
                        <path d="M32.4163127,17.40344 C32.6964944,17.2270811 32.8984772,16.7663753 32.9029245,16.221324 L32.9225669,14.0379237 C32.9288672,13.332488 32.6019886,12.7516537 32.1924639,12.740791 C31.7855334,12.7299283 31.4464246,13.2928711 31.4401243,13.9995848 L31.4208525,16.1829851 C31.4149227,16.8884208 31.7418013,17.4692551 32.1509555,17.4801178 C32.2439788,17.4826737 32.3332959,17.4551975 32.4163127,17.40344 Z" id="Fill-10" fill="#263357" mask="url(#mask-2)"></path>
                        <path d="M37.6471485,18.5717766 C37.7205294,18.6292228 37.8013225,18.6710019 37.8858217,18.6967408 C38.1708213,18.7844023 38.4928819,18.6922645 38.6874525,18.4412169 L39.4653643,17.4351614 C39.7166383,17.1102544 39.658823,16.6413587 39.3356506,16.3880729 C39.0143311,16.1366523 38.5473617,16.1933525 38.2953465,16.5190056 L37.5170641,17.5246881 C37.2661607,17.8495951 37.323976,18.3184908 37.6471485,18.5717766" id="Fill-11" fill="#263357" mask="url(#mask-2)"></path>
                        <path d="M40.3803279,23.5033508 C40.6056591,23.7006824 40.9366144,23.74843 41.2156843,23.5988459 L44.1382449,22.0149804 C44.4992197,21.821379 44.6363456,21.3696426 44.4439987,21.0059407 C44.2527636,20.6441039 43.8028423,20.5038455 43.4414969,20.6978199 L40.5189362,22.2820584 C40.1579615,22.4752867 40.0204649,22.9273962 40.2131825,23.2910981 C40.2569145,23.3739103 40.3136179,23.4451585 40.3803279,23.5033508 Z" id="Fill-12" fill="#263357" mask="url(#mask-2)"></path>
                        <path d="M42.7600559,29.7780856 C42.7963757,29.864628 42.8460376,29.9407257 42.9071883,30.0048864 C43.1132478,30.2219885 43.4390146,30.3003243 43.7306852,30.1768521 L44.8988499,29.6833366 C45.275761,29.5240538 45.4536541,29.0864924 45.2946621,28.7067503 C45.1375232,28.3288733 44.7020557,28.147955 44.3244034,28.3079838 L43.1562387,28.8014993 C42.7793276,28.9607821 42.6014345,29.3979705 42.7600559,29.7780856" id="Fill-13" fill="#263357" mask="url(#mask-2)"></path>
                        <path d="M26.2072872,18.6743219 C25.9233995,18.7619834 25.6031919,18.6698455 25.4097331,18.418798 L24.6351569,17.4127425 C24.3849947,17.0878354 24.4428099,16.6189397 24.7645,16.365654 C25.0835957,16.1142334 25.5490827,16.1709336 25.7996155,16.4965867 L26.5741918,17.5022691 C26.8239833,17.8271762 26.7665387,18.2960719 26.4448486,18.5493576 C26.3718383,18.6068039 26.2914158,18.648583 26.2072872,18.6743219 Z" id="Fill-16" fill="#263357" mask="url(#mask-2)"></path>
                        <path d="M22.2422721,23.4811184 C22.0180527,23.678077 21.6885798,23.7261975 21.4106219,23.5766135 L18.8433554,22.0559168 C18.4834924,21.8626885 18.3471077,21.4109521 18.5387134,21.0468771 C18.7288367,20.6850404 19.1765343,20.545155 19.5367679,20.7391294 L22.1040344,22.259453 C22.4635267,22.4530543 22.600282,22.9047907 22.4083057,23.2688657 C22.3649443,23.3516778 22.3082408,23.4229261 22.2422721,23.4811184 Z" id="Fill-17" fill="#263357" mask="url(#mask-2)"></path>
                        <path d="M19.7269747,29.982654 C19.5220271,30.199383 19.1981133,30.2777188 18.9079252,30.1546197 L17.7456902,29.6611042 C17.369891,29.5018214 17.1934804,29.06426 17.3509899,28.6841448 C17.5077582,28.3066409 17.9406314,28.1257225 18.3168012,28.2857514 L19.4794068,28.7788939 C19.8548354,28.9385497 20.0316167,29.375738 19.8737366,29.7558532 C19.8377873,29.8420226 19.7881255,29.9184932 19.7269747,29.982654 Z" id="Fill-18" fill="#263357" mask="url(#mask-2)"></path>
                        <path d="M16.6265572,55.5954837 C16.6265572,54.6396679 15.8588184,53.8578661 14.9201957,53.8578661 C14.9201957,51.9462345 13.384718,50.3820003 11.5074727,50.3820003 C9.91936777,50.3820003 8.57953965,51.5042643 8.20309996,53.0067109 C7.56600055,52.6857938 6.81188287,52.5741979 5.99894649,52.8774614 C5.10490222,53.2122491 4.40588838,53.9820717 4.18980705,54.9271692 C4.09074397,55.3603127 4.0926014,55.7814769 4.17123272,56.1748998 L16.5213027,56.1748998 C16.5856937,55.9926895 16.6265572,55.7991305 16.6265572,55.5954837" id="Fill-30" fill="#009EE0" mask="url(#mask-2)"></path>
                        <path d="M29.4470173,33.3610159 C32.0828002,35.1825097 35.6944009,33.2602984 35.4497979,29.7687599 C35.3923533,28.9477262 35.0198896,28.1736939 34.4346954,27.5988583 C31.9404857,25.1503051 28.0557449,26.7334342 27.8389377,30.0731505 C27.7540678,31.3880728 28.3674284,32.6149606 29.4470173,33.3610159" id="Fill-32" fill="#F86464" mask="url(#mask-2)"></path>
                        <path d="M31.8096601,33.4138366 C30.1541424,33.4138366 28.6731822,31.5733183 28.3652048,29.1325986 C28.3611281,29.1008913 28.3518628,29.0714221 28.34408,29.0412069 C28.9263093,28.6965294 29.4851902,28.313057 30.0099748,27.8837022 C30.6463133,27.3629556 31.23299,26.7817786 31.7651869,26.152108 C32.2966425,26.7814056 32.8833192,27.3625826 33.5196577,27.8837022 C34.0663084,28.3309623 34.6500201,28.7274907 35.2581922,29.0826129 C34.9613331,31.5625005 33.5007565,33.4138366 31.8096601,33.4138366 M34.4550789,26.7258245 C33.6760554,26.0883203 32.9785661,25.3527098 32.381883,24.5380175 C32.2377154,24.3410589 32.0146078,24.2384764 31.7881647,24.2373573 C31.7811231,24.2369842 31.7737109,24.2362382 31.7666693,24.2358652 C31.7570334,24.2362382 31.7477682,24.2369842 31.7385029,24.2377303 C31.5135422,24.2399685 31.2922877,24.342178 31.1481201,24.5380175 C30.5506958,25.3530829 29.8528359,26.0890663 29.0745536,26.7258245 C28.2406796,27.408092 27.3182297,27.9747209 26.332776,28.4089251 C25.957718,28.5741763 25.7864959,29.0139759 25.9506764,29.3914798 C26.0729779,29.6716235 26.3446355,29.8387399 26.6300057,29.8387399 C26.7293294,29.8387399 26.8301355,29.8182234 26.9268649,29.7756982 C26.9398362,29.7701028 26.9520664,29.7633883 26.9646671,29.7577929 C27.4972346,32.7651415 29.4822253,34.905947 31.8096601,34.905947 C34.1193057,34.905947 36.1091143,32.7524586 36.6498352,29.7909924 C36.7321108,29.8208346 36.8162394,29.8387399 36.8992562,29.8387399 C37.184997,29.8387399 37.4566546,29.6716235 37.5785855,29.3914798 C37.7431366,29.0139759 37.5719145,28.5741763 37.1968565,28.4089251 C36.2114028,27.9747209 35.2889529,27.408092 34.4550789,26.7258245" id="Fill-33" fill="#263357" mask="url(#mask-2)"></path>
                        <path d="M27.3912771,41.0235626 C27.4290793,40.7482682 27.6051194,39.8190564 28.2922315,39.4240202 C29.0946036,38.9502751 30.3443027,39.2930875 31.197819,40.2200611 C31.3345743,40.3681531 31.5246976,40.4543224 31.725198,40.4587988 C31.7578117,40.4587988 31.7907961,40.4576797 31.8230392,40.4546955 C31.8552823,40.4576797 31.8875254,40.4587988 31.921251,40.4587988 C32.1217514,40.4543224 32.3118746,40.3681531 32.44863,40.2200611 C33.3021463,39.2927144 34.5514748,38.9502751 35.3616296,39.4281235 C36.0413296,39.8190564 36.2173696,40.7482682 36.2559131,41.0272929 C36.2914918,41.2775944 36.2781498,41.4868629 36.2781498,41.4868629 C36.2410887,42.2683557 35.7478059,42.9912832 35.2530407,44.366263 C34.8290621,45.5752455 34.5725996,46.8010143 34.4558572,48.0924358 C32.8677906,49.1947324 30.8097897,49.2234556 29.1994864,48.1793513 C29.0864502,46.8558493 28.8266521,45.6017305 28.3915552,44.3606676 C28.2114384,43.8600645 28.0294686,43.4411545 27.868253,43.0718572 C27.5046839,42.2359023 27.2849118,41.731196 27.3912771,41.0235626 M36.2173696,48.6702556 C36.118046,48.5576013 36.0168693,48.4445739 35.9138395,48.3311735 C36.0101983,47.1833676 36.2377532,46.0982302 36.5972455,45.0324903 C36.6628436,46.5745865 36.5183055,47.5470695 36.2173696,48.6702556 M27.8893778,36.7281496 C28.1988377,36.7184509 28.4601182,36.517389 28.5612949,36.2383643 C28.6713662,35.9798562 28.6276342,35.6788229 28.4449231,35.4624669 C28.2507231,35.2323089 27.9379278,35.1424092 27.6536694,35.2349201 M27.0758874,45.1175406 C27.4194435,46.1594068 27.6392156,47.216194 27.7326095,48.3326656 C22.9850871,53.5916089 23.184105,57.3390443 23.2978825,59.4003949 L24.8147918,59.4003949 C24.7862548,56.5280823 25.5893681,52.9779785 28.6228162,49.5711173 C29.5919631,50.1440877 30.6708107,50.4354223 31.7541056,50.4354223 C32.86742,50.4354223 33.982958,50.1302857 34.9854598,49.5222507 C35.2226507,49.7874733 35.449835,50.0482196 35.6621949,50.2955369 C33.9940764,54.3022265 32.1284224,54.3551964 32.1395407,56.199445 C32.1469529,57.4349124 33.1487135,58.4167211 34.3654282,58.4167211 C34.971006,58.4167211 35.533593,58.1802216 35.9460826,57.7545971 C36.9934283,56.6843809 37.8966065,55.5127011 38.6448694,54.2604474 C39.0039911,55.9644376 39.5354468,58.4133639 39.3453235,59.4003949 L40.7769924,59.4003949 C40.8144241,57.7840663 40.4364012,55.9401908 39.4346407,52.7720673 C41.4985714,48.4199541 41.1112832,45.1887889 40.8407375,42.2329181 C40.67841,40.4722278 40.4000814,39.1270902 39.5169162,37.8610345 C38.6637705,36.6311624 37.4422378,35.7082921 35.8864143,35.1200276 C35.5046854,34.9760389 35.0758888,35.1696402 34.9320919,35.5560968 C34.7879244,35.9418074 34.9817537,36.3719082 35.3653358,36.517016 C36.6350478,36.9974755 37.6227252,37.7368163 38.3024251,38.7167598 C39.0013968,39.718712 39.2211689,40.8150401 39.3675601,42.4026457 C39.5973387,44.9120024 40.5535142,50.9233424 34.887248,56.7101198 C34.70639,56.8966336 34.4829118,56.9246107 34.3654282,56.9246107 C33.9647981,56.9246107 33.6238363,56.6019418 33.6219833,56.1897463 C33.6205008,55.9901765 33.6972172,55.8029166 33.8406435,55.6578089 C37.7668928,51.6511193 38.6926781,46.9375424 37.7594805,41.4357581 C37.7624454,41.2298468 37.7528095,41.0224435 37.7239019,40.8195165 C37.6453325,40.2480382 37.3299428,38.8417241 36.1043334,38.1367019 C34.8475927,37.395123 33.1287005,37.6711634 31.8234098,38.7645073 C30.5170073,37.6700443 28.7984857,37.39475 27.5495278,38.1325986 C26.2649913,38.8711932 25.4255582,40.8448823 26.1838276,42.8782559" id="Fill-34" fill="#263357" mask="url(#mask-2)"></path>
                        <path d="M24.6851893,35.8454171 C25.6039331,36.1934518 26.1238998,34.7968364 25.2084915,34.4491747 C24.1233435,34.0377252 23.2850223,33.1305221 22.984457,31.9331035 C24.7066847,30.2686542 24.9168209,28.549743 25.106203,27.1169439 C26.1372418,19.3277543 31.0263375,20.8862637 31.8717004,20.768014 C36.0295812,20.1666934 37.8696631,22.9091925 38.4263203,27.117317 C38.6142199,28.5374331 38.8236149,30.2712654 40.5488075,31.9338495 C40.4387361,32.3777524 40.2185934,32.9178964 39.7823846,33.426706 C39.2891019,34.0015416 38.716879,34.2999637 38.3240317,34.4491747 C37.9411909,34.5942824 37.7473616,35.0247563 37.8915291,35.4100938 C38.0360673,35.7958044 38.4630107,35.9905248 38.8465928,35.8454171 C39.4006557,35.6354025 40.2078457,35.2142543 40.9045937,34.4014272 C41.70956,33.4628897 41.9934478,32.4504928 42.0898065,31.7663601 C42.1257558,31.5123283 42.0290264,31.2575504 41.8337146,31.0915532 C40.2297117,29.7285103 40.0725728,28.2580354 39.8957915,26.9203584 C39.411774,23.2613305 38.0671986,21.3338968 36.7856269,20.3890179 C35.4658824,19.4157889 33.6876925,19.0214987 31.7660763,19.2762765 C29.8452013,19.0214987 28.0666408,19.4157889 26.7465257,20.3890179 C25.4649541,21.3342699 24.1211199,23.2602114 23.6367318,26.9203584 C23.4736631,28.1528416 23.3450612,29.1264437 22.5441716,30.1933027 C21.8237045,31.1523567 21.3571057,31.1512376 21.4427167,31.7656141 C21.7106682,33.6807378 22.9914986,35.2023175 24.6851893,35.8454171" id="Fill-35" fill="#263357" mask="url(#mask-2)"></path>
                        <path d="M23.108278,40.524862 C23.1990777,40.4640585 24.8894328,38.3680163 24.8894328,38.3680163 L26.4289494,29.8946941 L31.0171093,26.6098129 L29.6888407,24.8782187 L28.2401237,24.8782187 L23.108278,30.5900175 L21.9008286,38.1244293 L23.108278,40.524862 Z" id="Fill-36" fill="#FFFFFF" mask="url(#mask-2)"></path>
                        <path d="M25.7115955,37.7162251 L25.7023302,37.6986929 L25.701589,37.6848908 C25.5737283,37.255536 25.6133837,36.8403563 25.6389558,36.6814465 C25.6511859,36.5993805 25.668234,36.5292513 25.6849115,36.4688208 L26.3679469,33.3353889 C26.6714771,32.2114567 27.0109564,31.513522 27.4812613,30.8196906 L27.483485,30.8148413 L27.492009,30.8047695 C27.5468594,30.7241956 27.602451,30.6439946 27.6610075,30.5626746 C27.6647136,30.5705082 27.6684197,30.5783418 27.6724964,30.5861753 L28.5916108,29.4723149 C31.1592014,26.9006625 31.626912,28.6870918 32.0964757,27.2031879 C32.4107535,26.2086963 31.7492135,25.0344054 30.6362698,24.5651366 C30.0822068,24.3316214 29.5062779,24.3043903 29.0181837,24.4868008 C28.17838,24.7956677 29.7553283,24.0555809 29.0181837,24.4868008 L25.7838646,26.0300161 C22.0058596,29.095184 22.2789997,31.4687587 21.7575505,33.945289 C21.4484612,35.4206132 21.0207765,37.3454357 21.4996055,38.7021371 C21.9599039,40.0181786 21.8905997,40.4915506 23.1614236,41.563632 C23.4731072,41.8273625 23.9156163,41.8366882 24.1479892,41.5819103 C24.3799914,41.3282515 24.3140227,40.9085955 24.001598,40.6444919 C22.9642587,39.7686231 23.1999671,39.5321236 22.832692,38.483916 C22.4539279,37.4103425 22.9553641,35.7335834 23.1495641,34.377255 C23.3830488,32.7419019 23.0272626,28.1913381 29.7153023,25.7334591 C29.9291447,25.6536312 30.1407633,25.7170459 30.2482404,25.7625553 C30.6144037,25.9169887 30.8426999,26.3075486 30.7378171,26.6391702 C30.6870434,26.799572 30.5680774,26.920433 30.3987083,26.9812365 C25.7657046,28.6822424 24.9462845,30.9979978 24.3696143,35.7734973 C24.3132815,35.9372565 24.268067,36.1077301 24.2417537,36.2815609 C24.1650372,36.7706001 24.0875796,38.0206157 25.0255952,39.0594976 C25.5429676,39.6429128 25.1493791,39.0054086 25.9335913,39.1881921 L25.9940008,38.2459244 C25.8587279,38.079181 25.7690401,37.8978896 25.7115955,37.7162251" id="Fill-37" fill="#263357" mask="url(#mask-2)"></path>
                        <path d="M58.0296222,89.1535996 C57.4340509,89.1535996 56.9489216,88.7656509 56.9489216,88.2889216 C56.9489216,87.8121923 57.4340509,87.4242436 58.0296222,87.4242436 C58.6248229,87.4242436 59.1099523,87.8121923 59.1099523,88.2889216 C59.1099523,88.7656509 58.6248229,89.1535996 58.0296222,89.1535996 M55.2278057,89.0573585 L5.27653204,89.0573585 C4.74655881,89.0573585 4.31590924,88.713427 4.31590924,88.2889216 C4.31590924,87.8644162 4.74655881,87.5204847 5.27653204,87.5204847 L55.2278057,87.5204847 C55.7581496,87.5204847 56.1884285,87.8644162 56.1884285,88.2889216 C56.1884285,88.713427 55.7581496,89.0573585 55.2278057,89.0573585" id="Fill-38" fill="#263357" mask="url(#mask-2)"></path>
                        <path d="M58.0296222,87.4243182 C57.4340509,87.4243182 56.9489216,87.8122669 56.9489216,88.2886232 C56.9489216,88.7657255 57.4340509,89.1536742 58.0296222,89.1536742 C58.6248229,89.1536742 59.1099523,88.7657255 59.1099523,88.2886232 C59.1099523,87.8122669 58.6248229,87.4243182 58.0296222,87.4243182" id="Fill-39" fill="#263357" mask="url(#mask-2)"></path>
                        <path d="M55.2279911,87.520522 L5.27671734,87.520522 C4.7463735,87.520522 4.31609454,87.8644535 4.31609454,88.2889589 C4.31609454,88.7134643 4.7463735,89.0573958 5.27671734,89.0573958 L55.2279911,89.0573958 C55.7583349,89.0573958 56.1886139,88.7134643 56.1886139,88.2889589 C56.1886139,87.8644535 55.7583349,87.520522 55.2279911,87.520522" id="Fill-40" fill="#263357" mask="url(#mask-2)"></path>
                        <path d="M60.0723169,84.7657877 L1.13336442,84.7657877 C0.507403038,84.7657877 3.70610647e-05,85.053019 3.70610647e-05,85.4070222 C3.70610647e-05,85.7610254 0.507403038,86.0482566 1.13336442,86.0482566 L60.0723169,86.0482566 C60.6982783,86.0482566 61.2060149,85.7610254 61.2060149,85.4070222 C61.2060149,85.053019 60.6982783,84.7657877 60.0723169,84.7657877" id="Fill-41" fill="#263357" mask="url(#mask-2)"></path>
                    </g>
                </g>
            </g>
        </g>
    </g>
</svg>