<?xml version="1.0" encoding="UTF-8"?>
<svg width="145px" height="152px" viewBox="0 0 145 152" version="1.1" xmlns="http://www.w3.org/2000/svg" xmlns:xlink="http://www.w3.org/1999/xlink">
    <!-- Generator: Sketch 57.1 (83088) - https://sketch.com -->
    <title>illu 5</title>
    <desc>Created with Sketch.</desc>
    <defs>
        <rect id="path-1" x="0" y="0" width="145" height="162"></rect>
        <polygon id="path-3" points="0.885695428 0.385695428 144.495647 0.385695428 144.495647 130.36693 0.885695428 130.36693"></polygon>
    </defs>
    <g id="Layouts" stroke="none" stroke-width="1" fill="none" fill-rule="evenodd">
        <g id="01_1920_IKKBB_startseite_Navigation" transform="translate(-887.000000, -1990.000000)">
            <g id="Mein-Weg-mit-der-IKKBB" transform="translate(49.924928, 913.000000)">
                <g id="Anträge" transform="translate(837.075072, 1067.000000)">
                    <g id="illu-5" transform="translate(-0.000000, 0.000000)">
                        <mask id="mask-2" fill="white">
                            <use xlink:href="#path-1"></use>
                        </mask>
                        <g id="Background"></g>
                        <g id="Group-54" stroke-width="1" fill-rule="evenodd" mask="url(#mask-2)">
                            <g transform="translate(0.000000, -66.000000)">
                                <path d="M47.9806115,142.876465 C44.6921916,134.01655 35.351953,128.724621 25.9297317,130.85724 C15.6388242,133.185855 9.17046679,143.476133 11.4825464,153.84064 C12.1698767,156.920718 13.5677243,159.648834 15.4450468,161.918234 C11.8228991,165.524585 10.0598556,170.861551 11.2589571,176.235215 C13.108952,184.527154 21.2823854,189.739016 29.5154426,187.874956 C30.1696485,187.727332 30.7973549,187.525497 31.4109835,187.300308 C34.985929,191.282808 40.5251484,193.270305 46.0974922,192.008415 C54.3305494,190.145189 59.5045729,181.9133 57.655406,173.621361 C57.4699097,172.78733 57.2032586,171.995 56.8960303,171.227691 C60.8527339,167.320254 62.7847116,161.514562 61.4804403,155.669671 C59.955064,148.830614 54.4539376,143.937353 47.9806115,142.876465 Z" id="Fill-1" fill="#009EE0"></path>
                                <path d="M60.4057585,109.518354 C61.8597336,105.641646 59.8954007,101.319108 56.0178546,99.8651329 C52.1403084,98.4111578 47.8186085,100.375491 46.3646335,104.253037 C44.9106584,108.130583 46.8749913,112.452283 50.7525374,113.906258 C54.6300836,115.360233 58.9517835,113.3959 60.4057585,109.518354 Z" id="Fill-3" fill="#E2001A"></path>
                                <path d="M57.4863473,98.3856954 C58.134857,98.3856954 58.7453086,97.9392299 58.9858357,97.2159728 L59.7827719,94.8225403 C60.0933259,93.89019 59.6739258,92.8507222 58.845782,92.5019477 C58.0153546,92.1497455 57.0935879,92.6253471 56.7837951,93.5568405 L55.9876201,95.949416 C55.6770662,96.8817663 56.0964662,97.9212341 56.92461,98.2708655 C57.1095723,98.348847 57.2998627,98.3856954 57.4863473,98.3856954 Z" id="Fill-5" fill="#E2001A"></path>
                                <path d="M47.1925536,97.3165131 C47.5167956,97.9880012 48.2185544,98.3856954 48.9533803,98.3856954 C49.2206733,98.3856954 49.4916403,98.3328428 49.751585,98.2210725 C50.7233924,97.8051831 51.1532656,96.7238707 50.7114515,95.8071811 L49.5779824,93.4548066 C49.1352498,92.5372506 47.9907583,92.1326248 47.018951,92.5502471 C46.0462251,92.9661365 45.6172704,94.047449 46.0590845,94.9641386 L47.1925536,97.3165131 Z" id="Fill-7" fill="#E2001A"></path>
                                <path d="M42.4490344,104.282972 C42.6572623,104.352976 42.8714884,104.385695 43.0814301,104.385695 C43.8115128,104.385695 44.4987503,103.98926 44.7695322,103.346288 C45.1200062,102.518414 44.6469948,101.596187 43.7155395,101.284973 L41.3222048,100.488297 C40.3881788,100.177083 39.3496104,100.597868 39.0008502,101.425742 C38.6503762,102.252855 39.1233875,103.175843 40.0556998,103.486296 L42.4490344,104.282972 Z" id="Fill-9" fill="#E2001A"></path>
                                <path d="M40.9546063,110.69285 C40.0378361,111.134595 39.6323083,112.280746 40.0491007,113.252402 C40.3549796,113.964155 41.0169952,114.385695 41.7093386,114.385695 C41.9623602,114.385695 42.2188479,114.329674 42.4632044,114.211201 L44.8157858,113.077908 C45.7325559,112.637081 46.1380838,111.490931 45.7212913,110.519274 C45.3036323,109.5467 44.2239577,109.117811 43.3071876,109.559557 L40.9546063,110.69285 Z" id="Fill-11" fill="#E2001A"></path>
                                <path d="M48.7846993,116.556394 L47.9879955,118.948766 C47.6767711,119.881894 48.0960489,120.921274 48.9239513,121.270018 C49.1096206,121.34885 49.2990946,121.385695 49.4862857,121.385695 C50.1346064,121.385695 50.7441191,120.939268 50.9860979,120.215215 L51.7828018,117.822843 C52.0932652,116.890572 51.6739874,115.851193 50.846085,115.501591 C50.0174217,115.150276 49.0951627,115.62498 48.7846993,116.556394 Z" id="Fill-13" fill="#E2001A"></path>
                                <path d="M57.0589593,117.963549 L58.1925506,120.316329 C58.5168275,120.988799 59.218662,121.385695 59.9526486,121.385695 C60.2199704,121.385695 60.4918853,121.332834 60.7518581,121.221911 C61.7237702,120.805083 62.1527711,119.724451 61.711828,118.807603 L60.5782367,116.454823 C60.1372936,115.537975 58.99176,115.13328 58.0189293,115.549241 C57.0470171,115.966069 56.6170975,117.046701 57.0589593,117.963549 Z" id="Fill-15" fill="#E2001A"></path>
                                <path d="M65.3221437,109.488924 C64.3862942,109.176178 63.3493181,109.5985 63.0005171,110.425641 C62.650859,111.253543 63.1230688,112.176563 64.0554903,112.487026 L66.4482483,113.28373 C66.6573575,113.352975 66.8716088,113.385695 67.081575,113.385695 C67.8117433,113.385695 68.4990614,112.989246 68.769875,112.346252 C69.119533,111.519111 68.6473232,110.596091 67.7149018,110.285628 L65.3221437,109.488924 Z" id="Fill-17" fill="#E2001A"></path>
                                <path d="M64.4636462,104.212083 L66.8161801,103.078549 C67.7329319,102.63671 68.137585,101.491234 67.7216674,100.519371 C67.3048833,99.5475083 66.226097,99.1176105 65.3076123,99.5594499 L62.9542119,100.692065 C62.0374602,101.133905 61.632807,102.280299 62.0487246,103.252162 C62.3545973,103.964984 63.0165995,104.385695 63.7097955,104.385695 C63.9619456,104.385695 64.2184281,104.329662 64.4636462,104.212083 Z" id="Fill-19" fill="#E2001A"></path>
                                <g id="Group-23" stroke-width="1" fill="none">
                                    <path d="M99.7312908,173.283352 L108.415406,173.283352 L106.123892,214.789492 C106.099753,215.234225 105.404724,215.266766 105.325649,215.268435 C105.294019,215.270104 104.509094,215.286792 104.45499,214.79283 L99.7312908,173.283352 Z M100.422158,102.913823 C96.3535336,99.6680273 91.7280538,99.5645623 88.0514758,101.592976 C89.8477301,92.8118043 99.5589902,91.7921738 104.724678,95.2499063 C106.766482,96.6166451 107.525603,98.395575 108.48699,100.648441 C111.068169,106.698639 114.737256,111.060855 122.02632,113.420524 C119.199591,121.393167 111.422759,120.462817 107.643799,116.931658 C103.716678,113.262823 106.199638,107.522187 100.422158,102.913823 L100.422158,102.913823 Z M100.867476,114.058002 C99.3367475,116.182371 97.3215798,117.223696 96.4459266,117.338008 C93.7448862,117.682613 88.5833602,112.163925 87.8791752,106.15962 C90.2872214,103.467862 94.4898573,102.669346 98.2413486,105.661486 C100.496239,107.460441 100.976516,109.550601 101.531707,111.970346 C101.636586,112.429263 101.744794,112.90153 101.868817,113.380473 C101.479268,113.476429 101.120516,113.705887 100.867476,114.058002 L100.867476,114.058002 Z M97.7685625,169.772218 C94.8744122,169.275753 92.8950365,169.586983 94.8744122,169.275753 C95.5944122,169.162276 96.8429671,139.065651 96.991129,138.348906 C97.1384584,137.632161 96.8279844,136.900397 96.2111983,136.509065 C95.5269902,136.076015 93.2895798,134.494002 93.2088399,132.326244 C93.0573486,128.190148 98.811522,128.810938 101.000655,123.129543 C101.83469,120.963454 98.5668053,119.701849 97.7327706,121.865435 C96.4068053,125.309817 92.5937185,125.593511 90.4903197,128.945276 C87.8791752,133.107237 91.285233,136.629218 93.5093255,139.285097 C95.8557764,149.138467 86.2543891,170.036722 92.5088168,172.252874 C99.7312908,174.811129 86.6555914,172.426429 96.197048,173.205753 L100.974019,215.183327 C101.018135,215.585505 101.135499,215.956811 101.286158,216.307257 L35.912655,216.307257 L35.912655,178.263855 L35.9384584,178.263855 C39.7299035,178.263855 43.3207475,176.288843 45.3084469,172.970454 C47.6024584,169.134741 47.3311058,164.332798 44.6250712,160.742397 C44.0382503,159.969747 42.9436839,159.812046 42.1737417,160.400295 C41.4029671,160.988543 41.2448168,162.085772 41.8316376,162.858422 C43.6445394,165.263148 43.8368168,168.599059 42.3044238,171.16232 C40.9559844,173.426868 38.5038226,174.761065 35.912655,174.743543 L35.912655,155.901237 C35.912655,154.931671 35.1277301,154.145671 34.1605162,154.145671 C33.1933024,154.145671 32.4092099,154.931671 32.4092099,155.901237 L32.4092099,176.104441 L32.4092099,176.543333 L32.4092099,216.307257 L2.63700179,216.307257 C1.66895554,216.307257 0.885695428,217.094091 0.885695428,218.062823 C0.885695428,219.033225 1.66895554,219.81839 2.63700179,219.81839 L142.74484,219.81839 C143.711221,219.81839 144.496146,219.033225 144.496146,218.062823 C144.496146,217.094091 143.711221,216.307257 142.74484,216.307257 L109.300216,216.307257 C109.476678,215.896734 109.595707,215.454505 109.620678,214.979734 L111.979615,172.257881 C115.253325,168.799314 117.236031,165.034524 117.846158,161.052792 C118.998158,153.52655 114.529996,151.718416 114.033071,143.019849 C113.546135,134.527378 117.614759,130.493913 113.212354,123.002715 C119.788909,123.583454 124.697395,118.851601 125.898505,112.541072 C126.463684,109.563116 121.769117,111.225231 116.21721,106.177976 C113.667661,103.860862 112.671314,101.52539 111.70743,99.2675177 C110.660308,96.8135623 109.576562,94.275333 106.669094,92.3295241 C97.6869902,86.320212 83.5525162,91.3799827 84.2750133,105.323556 C84.190944,105.684015 84.2234064,106.061995 84.3632446,106.40076 C85.4078688,115.771849 95.0666896,126.729123 103.165649,116.819015 C104.067938,118.461104 105.214112,119.590874 106.563383,120.542085 C107.132724,121.419868 109.315198,122.545467 110.899198,126.161734 C114.061372,133.371741 106.886343,138.663473 113.043383,153.146065 C114.097996,155.625887 114.859615,157.417333 114.384331,160.520448 C113.889071,163.752894 112.255129,166.862683 109.523291,169.772218 L97.7685625,169.772218 Z" id="Fill-21" fill="#263357"></path>
                                    <mask id="mask-4" fill="white">
                                        <use xlink:href="#path-3"></use>
                                    </mask>
                                    <g id="Clip-22"></g>
                                </g>
                                <path d="M118.885196,223.385695 C117.782534,223.385695 116.885196,224.283034 116.885196,225.385695 C116.885196,226.488357 117.782534,227.385695 118.885196,227.385695 C119.987858,227.385695 120.885196,226.488357 120.885196,225.385695 C120.885196,224.283034 119.987858,223.385695 118.885196,223.385695" id="Fill-24" fill="#263357"></path>
                                <path d="M114.125983,223.385695 L22.6444088,223.385695 C21.6728284,223.385695 20.885196,224.057273 20.885196,224.885695 C20.885196,225.714117 21.6728284,226.385695 22.6444088,226.385695 L114.125983,226.385695 C115.097564,226.385695 115.885196,225.714117 115.885196,224.885695 C115.885196,224.057273 115.097564,223.385695 114.125983,223.385695" id="Fill-26" fill="#263357"></path>
                                <path d="M108.792455,77.3259478 L106.118628,82.6363799 C105.050981,84.756182 107.931272,86.5577952 109.000489,84.4353707 L111.673531,79.1249386 C112.120216,78.2385554 111.836818,77.1179012 111.040793,76.6213868 C110.245554,76.1239981 109.238355,76.4395646 108.792455,77.3259478" id="Fill-28" fill="#263357"></path>
                                <path d="M120.540793,100.446684 C118.309142,100.475701 118.345252,104.414553 120.578509,104.385536 L125.215144,104.323757 C126.148409,104.310653 126.896306,103.418608 126.885071,102.332802 C126.873837,101.245125 126.109089,100.372737 125.177428,100.385841 L120.540793,100.446684 Z" id="Fill-32" fill="#263357"></path>
                                <path d="M120.324712,87.6177425 C115.70949,90.2967539 115.454835,90.3006994 115.109922,90.9035756 C114.266175,92.3768347 115.964145,94.010282 117.453394,93.1446338 L122.05411,90.4743025 C122.859981,90.0063633 123.125112,88.9884178 122.648037,88.1993128 C122.170961,87.410997 121.130582,87.1505923 120.324712,87.6177425" id="Fill-34" fill="#263357"></path>
                                <polygon id="Fill-36" fill="#FFFFFF" points="87.885196 157.093506 98.8794129 145.385695 101.885196 150.589448 91.3337502 161.385695"></polygon>
                                <path d="M101.26366,131.66353 C101.009134,129.359515 97.5906252,129.757361 97.8394226,132.048917 C99.3027441,145.426159 90.2486469,152.265944 86.5494226,155.604856 C83.1530108,158.669678 85.306254,164.385695 89.8418959,164.385695 C92.2103816,164.385695 93.0680779,163.173056 96.7345657,159.864045 C104.778742,152.608141 108.871623,141.794885 107.682469,130.939269 C107.576894,129.979955 106.722471,129.292238 105.781297,129.39606 C104.836031,129.502374 104.155112,130.366172 104.259868,131.325486 C105.325441,141.055673 101.656498,150.747653 94.4462845,157.252717 L90.8428144,160.504418 C89.3762192,161.830016 87.3334617,159.574174 88.8377038,158.216184 C92.1735531,155.20618 102.961048,147.191131 101.26366,131.66353" id="Fill-38" fill="#263357"></path>
                                <path d="M68.2229939,142.866369 C67.6828803,143.141518 67.4671667,143.804528 67.7417867,144.344053 L75.8086445,160.168444 C76.0832645,160.707968 76.7469985,160.924275 77.2879418,160.649126 L90.7882926,153.782 C91.3292358,153.506851 91.5449494,152.843841 91.2694998,152.304317 L83.2034716,136.479926 C82.928022,135.940401 82.2642879,135.724094 81.7241743,135.999243 L68.2229939,142.866369 Z M91.4677903,155.113821 L77.7251766,162.103604 C76.4491479,162.752525 74.8835652,162.243665 74.2339354,160.969028 L66.1670776,145.145466 C65.5182776,143.870001 66.0276935,142.306955 67.3028925,141.658034 L81.0455062,134.667422 C82.3207053,134.01933 83.886288,134.527361 84.5367474,135.801998 L92.6027756,151.626389 C93.2524053,152.900197 92.7429894,154.4649 91.4677903,155.113821 L91.4677903,155.113821 Z" id="Fill-40" fill="#263357"></path>
                                <polygon id="Fill-42" fill="#263357" points="75.4724976 148.385695 72.885196 147.474274 73.3597156 145.963489 74.5192812 146.370137 75.4549537 143.385695 76.885196 143.888701"></polygon>
                                <polygon id="Fill-44" fill="#263357" points="82.885196 140.702629 77.5627222 143.385695 76.885196 142.068762 82.2076698 139.385695"></polygon>
                                <polygon id="Fill-46" fill="#263357" points="83.885196 142.703179 78.5634569 145.385695 77.885196 144.069032 83.2077633 141.385695"></polygon>
                                <path d="M76.5594676,151.38597 L77.8854709,150.710599 L77.2109244,149.385421 L75.8849211,150.060792 L76.5594676,151.38597 Z M79.885196,151.361231 L75.9088354,153.385695 L73.885196,149.410159 L77.8615566,147.385695 L79.885196,151.361231 Z" id="Fill-48" fill="#263357"></path>
                                <polygon id="Fill-50" fill="#263357" points="85.885196 145.702629 80.5626287 148.385695 79.885196 147.068762 85.2077633 144.385695"></polygon>
                                <polygon id="Fill-52" fill="#263357" points="86.885196 148.703179 81.5627222 151.385695 80.885196 150.069032 86.2076698 147.385695"></polygon>
                            </g>
                        </g>
                    </g>
                </g>
            </g>
        </g>
    </g>
</svg>