<?xml version="1.0" encoding="UTF-8"?>
<svg width="68px" height="72px" viewBox="0 0 68 72" version="1.1" xmlns="http://www.w3.org/2000/svg" xmlns:xlink="http://www.w3.org/1999/xlink">
    <!-- Generator: Sketch 57.1 (83088) - https://sketch.com -->
    <title>illu 6</title>
    <desc>Created with Sketch.</desc>
    <defs>
        <polygon id="path-1" points="0.517174233 0.421137239 16.0736715 0.421137239 16.0736715 24.5315023 0.517174233 24.5315023"></polygon>
        <polygon id="path-3" points="0.516655666 31.724989 18.0166557 31.724989 18.0166557 0.808322333 0.516655666 0.808322333"></polygon>
        <polygon id="path-5" points="0.553631564 0.0772250672 25.5283223 0.0772250672 25.5283223 19.9476168 0.553631564 19.9476168"></polygon>
    </defs>
    <g id="Layouts" stroke="none" stroke-width="1" fill="none" fill-rule="evenodd">
        <g id="01_320_IKKBB_startseite_mobil" transform="translate(-211.000000, -1046.000000)">
            <g id="Mein-Weg-mit-der-IKKBB" transform="translate(-192.000000, 611.000000)">
                <g id="illu-6" transform="translate(403.000000, 435.000000)">
                    <g>
                        <g id="Group-14" transform="translate(51.916667, 32.083333)">
                            <polygon id="Fill-1" fill="#273133" points="1.10087248 0.681034379 2.26753915 0.681034379 2.26753915 0.0977010458 1.10087248 0.0977010458"></polygon>
                            <g id="Group-13">
                                <g id="Group-5">
                                    <mask id="mask-2" fill="white">
                                        <use xlink:href="#path-1"></use>
                                    </mask>
                                    <g id="Clip-4"></g>
                                    <path d="M4.96596219,24.5315023 L2.42627936,24.5315023 C1.37358795,24.5315023 0.516655666,23.6939844 0.516655666,22.6623146 L0.516655666,2.29032502 C0.516655666,1.25865518 1.37358795,0.421137239 2.42627936,0.421137239 L14.1653442,0.421137239 C15.2180356,0.421137239 16.0736715,1.25865518 16.0736715,2.29032502 L16.0736715,17.1105858 L14.7772535,17.1105858 L14.7772535,2.29032502 C14.7772535,1.95912474 14.5024129,1.69010382 14.1653442,1.69010382 L2.42627936,1.69010382 C2.08791426,1.69010382 1.81307365,1.95912474 1.81307365,2.29032502 L1.81307365,22.6623146 C1.81307365,22.9935148 2.08791426,23.2625358 2.42627936,23.2625358 L4.96596219,23.2625358 L4.96596219,24.5315023 Z" id="Fill-3" fill="#273133" mask="url(#mask-2)"></path>
                                </g>
                                <mask id="mask-4" fill="white">
                                    <use xlink:href="#path-3"></use>
                                </mask>
                                <g id="Clip-7"></g>
                                <polygon id="Fill-6" fill="#273133" mask="url(#mask-4)" points="5.76665567 4.30832233 6.93332233 4.30832233 6.93332233 3.14165567 5.76665567 3.14165567"></polygon>
                                <polygon id="Fill-8" fill="#273133" mask="url(#mask-4)" points="8.099989 4.30832233 10.4333223 4.30832233 10.4333223 3.14165567 8.099989 3.14165567"></polygon>
                                <polygon id="Fill-11" fill="#273133" mask="url(#mask-4)" points="87.1833223 -144.025011 88.349989 -144.025011 88.349989 -145.191678 87.1833223 -145.191678"></polygon>
                            </g>
                        </g>
                        <g id="Group-16">
                            <path d="M20.9388455,42.224989 L20.9388455,24.6475788 C21.9162369,24.7473551 23.2407392,25.1283192 24.154189,25.5278779 L26.7666557,21.754066 L26.6479072,21.6910255 C24.263803,20.456974 21.6056639,19.9218102 18.9931973,20.0946046 C18.9840628,20.0946046 18.9840628,20.0855341 18.9749283,20.0855341 C18.9657938,20.0855341 18.9657938,20.0946046 18.9566593,20.0946046 C17.39466,21.2551845 15.5129533,21.9354774 13.5033636,21.9354774 C11.4572359,21.9354774 9.55726018,21.2374968 7.99526091,20.0583223 C4.39626844,20.8379381 1.68332233,23.7495921 1.68332233,27.1964099 L1.68332233,42.224989 L20.9388455,42.224989 Z" id="Fill-1" fill="#009EE0"></path>
                            <path d="M20.6827585,71.3916557 L6.60101255,71.3916557 C5.81815702,71.3916557 5.18332233,70.7791557 5.18332233,70.0232952 L5.18332233,69.2687662 C5.18332233,68.186239 6.09259317,67.3083223 7.21378202,67.3083223 L20.069989,67.3083223 C21.1911779,67.3083223 22.099989,68.186239 22.099989,69.2687662 L22.099989,70.0232952 C22.099989,70.7791557 21.465614,71.3916557 20.6827585,71.3916557" id="Fill-3" fill="#61C4F2"></path>
                            <path d="M38.1951279,67.8916557 L29.9215168,67.8916557 C28.501139,67.8916557 27.349989,69.0182182 27.349989,70.4072807 C27.349989,70.9510932 27.8003418,71.3916557 28.356239,71.3916557 L39.7604057,71.3916557 C40.3163029,71.3916557 40.7666557,70.9510932 40.7666557,70.4072807 C40.7666557,69.0182182 39.6155057,67.8916557 38.1951279,67.8916557" id="Fill-5" fill="#61C4F2"></path>
                            <path d="M10.6776826,2.74937457 C11.8312577,2.74937457 13.2544457,3.18608934 15.6348752,2.85440724 C16.7442061,2.69639757 17.8410932,2.40156904 18.9075625,1.974989 C20.6602776,8.13414137 13.6208429,9.13747973 10.1209433,4.95183587 C9.00331662,3.61589407 6.96716221,6.69593092 6.41825774,8.39165567 C5.90991046,5.39822469 8.33089713,2.74937457 10.6776826,2.74937457 M13.6411496,17.724989 C8.38761533,17.724989 6.51197334,10.4979196 9.57543052,7.224989 C12.3413626,9.77712671 16.1552594,10.1199057 18.5916745,8.77575957 C20.4280121,12.824293 17.7703956,17.724989 13.6411496,17.724989 M13.4950496,19.474989 C19.1508206,19.474989 22.6954387,12.694797 19.8686949,7.36826326 C21.8547222,4.79521275 20.7683209,-0.511371421 19.0065151,0.310550639 C17.8328913,0.858055355 16.6108611,1.2224674 15.3774144,1.39314701 C12.249273,1.81785107 10.9139904,0.697128868 8.5608061,1.71765993 C5.63542304,2.97492582 4.8266729,6.01745607 4.82712957,6.01834272 C4.02751269,8.87778031 5.54728709,11.2389221 6.17428536,12.0559676 C6.4797929,16.2387263 9.6389874,19.474989 13.4950496,19.474989" id="Fill-7" fill="#263357"></path>
                            <g id="Group-11" transform="translate(21.000000, 0.583333)">
                                <mask id="mask-6" fill="white">
                                    <use xlink:href="#path-5"></use>
                                </mask>
                                <g id="Clip-10"></g>
                                <path d="M24.1847963,13.1653894 C22.2717442,10.6568024 23.4748484,8.22721907 21.4950567,4.48386762 C21.042213,3.62814299 20.4227442,2.45596001 19.1063171,1.49992741 C17.51039,0.341503492 15.3599421,-0.126304479 13.0392859,0.175950956 C7.07124421,-0.601213899 4.01824421,3.28239117 3.21378587,9.27157596 C3.00012962,10.8636321 2.81110879,12.612364 0.871629625,14.2341575 C0.636025458,14.4316665 0.519119208,14.7348097 0.562567125,15.0370651 C0.678577541,15.8510687 1.02168171,17.0552082 1.99455671,18.1723549 C2.31750462,18.5434057 2.88322337,18.5846828 3.25812962,18.2642299 C3.63258796,17.9442209 3.67424421,17.3832064 3.35084837,17.0121557 C2.82409837,16.407201 2.55758796,15.764076 2.42455671,15.2363495 C5.87485879,11.9599183 4.19337962,9.04610494 6.17048379,5.30763574 C6.58301504,4.52825168 7.05019212,3.64456509 8.03157754,2.93220096 C10.1878484,1.36677523 12.7181296,2.01300712 13.1660463,1.95042559 C14.2688171,1.79374987 16.3677546,1.71297088 18.0469942,2.93220096 C19.0283796,3.64456509 19.4955567,4.52825168 19.908088,5.30763574 C21.8690671,9.01592378 20.2207338,11.9758966 23.6535671,15.2363495 C23.5209838,15.7636321 23.2549213,16.4067571 22.7277234,17.0121557 C22.1319942,17.696114 21.4404109,18.0516303 20.9651713,18.2291665 C20.5020255,18.4022644 20.268213,18.9140126 20.4429005,19.3729437 C20.61714,19.831431 21.133588,20.0631158 21.5971817,19.8904618 C22.2668171,19.6401357 23.2423796,19.1385959 24.084015,18.1723549 C25.057338,17.0547644 25.3999942,15.850181 25.5160046,15.0366212 C25.6203692,14.3060597 25.0542025,14.3056158 24.1847963,13.1653894" id="Fill-9" fill="#263357" mask="url(#mask-6)"></path>
                            </g>
                            <path d="M38.3507901,11.7525269 C38.0178743,14.728174 36.2515093,16.9590263 34.2042328,16.9590263 C32.2191834,16.9590263 30.4430399,14.7807114 30.0736767,11.892038 C30.0550085,11.7485535 29.999893,11.6191967 29.9229979,11.5070581 C31.4377869,10.6616035 32.8414559,9.63248873 34.2033438,8.24664953 C35.4363323,9.71593047 36.8088877,10.8439391 38.3507901,11.7525269 M34.9540711,4.5398939 C33.2241535,7.09744932 30.8355161,9.20733322 27.8632758,10.5781617 C27.0009839,10.9755033 27.2921186,12.2620071 28.2384173,12.2620071 C28.2695309,12.2620071 28.301089,12.2553848 28.3322026,12.2518529 C28.8638011,16.0102629 31.3142214,18.724989 34.2042328,18.724989 C36.9902357,18.724989 39.3886518,16.148891 40.0215918,12.6129922 C41.2630255,13.1599992 41.8532954,11.4849836 40.8194341,11.0355461 C38.7703796,10.1441764 36.9204523,8.78482665 35.4034408,6.90716685 C35.7639144,6.46391022 36.1061642,6.00343545 36.429746,5.52530106 C37.0844655,4.55622905 35.6105686,3.57038039 34.9540711,4.5398939" id="Fill-12" fill="#263357"></path>
                            <path d="M33.8793894,53.6686276 L33.7756109,53.6686276 C28.5352481,53.5845627 26.3216077,52.332131 23.5471123,50.7452381 C24.4337416,45.2994529 25.7860205,39.6140604 29.2820021,34.6088292 C29.3704394,34.481608 29.4250359,34.3341573 29.4394747,34.1795139 C29.8175894,30.1835106 28.8515469,28.1619079 28.3561174,26.6811074 C27.7361537,24.8919193 28.2573023,24.0732983 29.0455676,22.181614 C31.1919776,25.8669819 36.4909978,25.9006977 38.6712486,22.2859084 C38.6956139,22.3452483 38.7217842,22.40279 38.7466008,22.4625795 C38.7551738,22.4913503 38.7655516,22.5196717 38.7772831,22.5475434 C39.9098223,25.2425642 39.806495,25.244812 38.864818,27.9312914 C37.9244946,30.6460922 38.0530897,34.1255685 38.3905954,34.6088292 C41.8861258,39.6140604 43.2388559,45.2994529 44.1254853,50.7452381 C41.342868,52.3366265 39.138703,53.5863609 33.8793894,53.6686276 L33.8793894,53.6686276 Z M37.3947731,66.5188643 L34.7908353,66.3358996 L34.7908353,55.4290448 C35.8967531,55.3742004 36.9995124,55.2559701 38.1212225,55.0550236 L37.3947731,66.5188643 Z M29.6560559,55.0712072 C30.7723515,55.2667592 31.875562,55.3827417 32.9859919,55.4330907 L32.9859919,66.3358996 L30.3820541,66.5188643 L29.6560559,55.0712072 Z M39.7018141,70.0644238 C39.7018141,70.126461 39.6512785,70.17681 39.5890114,70.17681 L28.0831349,70.17681 C28.021319,70.17681 27.9703322,70.126461 27.9703322,70.0644238 C27.9703322,69.1347653 28.7292688,68.378631 29.6623728,68.378631 L33.0067476,68.378631 C33.2093413,69.3208768 34.5670347,69.3217759 34.7700796,68.378631 L38.0097735,68.378631 C38.9428775,68.378631 39.7018141,69.1347653 39.7018141,70.0644238 L39.7018141,70.0644238 Z M21.7278301,50.6975863 L21.7278301,43.1582713 L21.7278301,42.1243183 L21.7278301,38.6264106 C22.0919573,38.2870043 22.4461578,37.9610844 22.780505,37.6535958 C25.1182284,35.5097168 26.8432075,33.9151816 27.6671185,31.3123175 C27.7316416,32.0967731 27.7329953,32.91944 27.6630576,33.7803182 C24.0136643,39.1024785 22.6365688,45.0391665 21.7278301,50.6975863 L21.7278301,50.6975863 Z M20.9174554,23.4097703 C20.6625213,23.3832471 20.4102945,23.4664129 20.2207859,23.6367904 C20.0312773,23.8071678 19.9229867,24.049922 19.9229867,24.3043643 L19.9229867,41.0454109 L7.19929213,41.0454109 L7.19929213,27.6498764 C7.19929213,27.153579 6.79500722,26.7507869 6.29687044,26.7507869 C5.79828246,26.7507869 5.39444875,27.153579 5.39444875,27.6498764 L5.39444875,41.0454109 L2.36186067,41.0454109 L2.36186067,26.992642 C2.36186067,24.2144554 4.50060007,21.7015002 7.50115219,20.8878242 C9.18868075,22.061136 11.1288874,22.6770123 13.1367756,22.6770123 C15.1672244,22.6770123 17.1299916,22.0431542 18.8400807,20.8383743 C20.8985046,20.7331808 22.9492579,21.1085507 24.8299047,21.9190799 C24.1711369,22.6653242 23.7406817,23.3499808 23.4573213,23.9932794 C22.6591293,23.7006257 21.8094993,23.5014774 20.9174554,23.4097703 L20.9174554,23.4097703 Z M13.5609138,47.4298455 C13.0627771,47.4298455 12.6584921,47.8326376 12.6584921,48.328935 L12.6584921,66.0409983 C12.4342404,66.0409983 7.4226415,66.0396496 7.19884092,66.0436955 L7.19884092,46.5671691 C7.34819171,46.0758167 7.37932526,45.4869131 7.37932526,44.9739825 L7.37932526,42.8435899 L19.9229867,42.8435899 L19.9229867,43.1582713 L19.9229867,47.6986733 L19.9229867,66.0436955 C19.7041495,66.0396496 14.6830752,66.0409983 14.4633355,66.0409983 L14.4633355,48.328935 C14.4633355,47.8326376 14.0595018,47.4298455 13.5609138,47.4298455 L13.5609138,47.4298455 Z M20.4721103,70.17681 C4.57369623,70.17681 6.16105598,70.6146666 6.16105598,68.9252774 C6.16105598,68.3264838 6.65061975,67.8391773 7.25163259,67.8391773 L12.6584921,67.8391773 C12.6584921,69.2197292 14.4633355,69.2188301 14.4633355,67.8391773 L19.8706463,67.8391773 C20.4716591,67.8391773 20.9612229,68.3264838 20.9612229,68.9252774 C20.9612229,69.5056397 21.0731232,70.17681 20.4721103,70.17681 L20.4721103,70.17681 Z M5.26269519,45.6752723 L2.63755049,45.6752723 C2.5838564,45.2257276 2.59919757,44.9398171 2.59919757,43.160519 L5.30104811,43.160519 C5.30104811,44.9384685 5.31638928,45.2257276 5.26269519,45.6752723 L5.26269519,45.6752723 Z M21.7278301,30.6789089 L21.7278301,25.3554 C22.1582853,25.4484557 22.5679847,25.5806219 22.9645991,25.7339166 C22.7137258,27.4192599 22.9799402,28.7409215 21.7278301,30.6789089 L21.7278301,30.6789089 Z M27.0877638,22.1933022 C26.5278111,23.5342942 26.0648688,24.6289356 26.375753,26.2643795 C26.6446747,31.5681084 25.0992776,33.0812761 21.7278301,36.1750431 L21.7278301,33.5514999 C26.8946455,28.0598612 22.4281094,26.4298119 27.0877638,22.1933022 L27.0877638,22.1933022 Z M40.9047422,22.9822532 C42.8521682,25.6381636 42.4181034,27.0807527 42.4181034,38.0244702 C41.7467017,36.5787343 40.9548266,35.1590719 40.0095399,33.7803182 C39.498318,27.4988293 42.5733199,27.2767542 40.9047422,22.9822532 L40.9047422,22.9822532 Z M44.2229468,42.8292045 L44.2229468,27.5401875 C44.2229468,24.059812 42.2403263,20.7934198 39.1531417,19.1301042 C38.9573162,18.951635 38.6929067,18.8684692 38.4293995,18.9026346 C38.1234786,18.9251118 37.8365085,19.0995352 37.6885113,19.3926384 C37.5874401,19.5931353 37.5725502,19.8120636 37.623537,20.0134597 C37.6181224,20.0345883 37.6100007,20.0539187 37.6059398,20.0754968 C36.8763318,24.2414281 30.818375,24.145675 30.1600584,20.036836 C30.1388515,19.9033212 30.0869622,19.7828432 30.0156709,19.6776497 C29.9317457,19.0217639 29.2373322,18.7133762 28.7030986,18.9974885 C27.8363225,19.4573728 27.1563478,19.7783478 26.2029393,20.5794365 C22.4321703,18.7331562 18.5783784,18.9188182 18.1271676,19.1435906 C18.0775344,19.1705633 18.0279012,19.1975359 17.9827801,19.2334995 C16.5389054,20.3079115 14.8649132,20.8788333 13.1367756,20.8788333 C11.3815655,20.8788333 9.68952479,20.2989206 8.24113797,19.2020314 C8.02906888,19.0401953 7.75834237,18.9817545 7.50115219,19.0401953 C3.47635145,19.9123121 0.557017287,23.2569251 0.557017287,26.992642 L0.557017287,41.9530418 C0.498359877,42.166126 0.520920419,44.752357 0.520920419,44.9739825 C0.520920419,47.8564635 1.64127695,47.6096634 2.53918653,47.6096634 C2.75531652,47.6618106 2.97731226,47.6986733 3.21013705,47.6986733 L5.39399754,47.6986733 L5.39399754,66.7157649 C4.22536145,67.6926257 4.3562126,68.9023506 4.3562126,69.689953 C4.3562126,70.950027 5.38542454,71.974989 6.65016854,71.974989 L20.4721103,71.974989 C21.7368543,71.974989 22.7660663,70.950027 22.7660663,69.689953 L22.7660663,68.9252774 C22.7660663,68.0387751 22.3617814,67.2448791 21.7278301,66.7153154 L21.7278301,51.5503727 C21.8013775,51.7306401 21.9277165,51.8893294 22.1045912,51.9918257 C24.6137747,53.4434057 26.1528549,54.235054 27.8227862,54.6819015 L28.5880398,66.7503799 L28.5880398,66.7503799 C25.6195237,67.7079102 25.3181148,71.974989 28.0831349,71.974989 L39.5890114,71.974989 C42.3156786,71.974989 42.0675126,67.8175991 39.1860801,66.7876921 L39.9549434,54.6531306 C41.5797537,54.2035858 43.1075536,53.4150843 45.5675551,51.9918257 C45.8897197,51.8052646 46.0634358,51.4411333 46.0056808,51.0747544 C45.5788354,48.3622013 45.0482114,45.5804184 44.2229468,42.8292045 L44.2229468,42.8292045 Z" id="Fill-14" fill="#263357"></path>
                        </g>
                        <g id="B-Footer-Copy-3" transform="translate(55.933322, 39.666667)" fill="#E2001A">
                            <g id="B-Copy" style="mix-blend-mode: multiply;">
                                <path d="M5.45555667,9.07265033 C6.36217404,9.07265033 6.89929064,8.55757579 6.89929064,7.76004102 C6.89929064,7.06219809 6.39574383,6.46381625 5.45555667,6.46381625 L2.38368801,6.46381625 L2.38368801,9.07265033 L5.45555667,9.07265033 Z M5.3716322,4.45313324 C6.17730709,4.45313324 6.6808539,3.9380587 6.6808539,3.22360047 C6.6808539,2.54237285 6.17730709,2.01045224 5.3716322,2.01045224 L2.38368801,2.01045224 L2.38368801,4.45313324 L5.3716322,4.45313324 Z M0,0 L5.8919639,0 C8.02387851,0 9.11489659,1.34583993 9.11489659,2.82483308 C9.11489659,4.22051893 8.24208213,5.15120693 7.18463383,5.36720594 C8.37636127,5.54997432 9.33333333,6.69643055 9.33333333,8.09234717 C9.33333333,9.75410871 8.20851234,11.0833333 6.07683085,11.0833333 L0,11.0833333 L0,0 Z" id="Fill-1"></path>
                            </g>
                        </g>
                    </g>
                </g>
            </g>
        </g>
    </g>
</svg>