<?xml version="1.0" encoding="UTF-8"?>
<svg width="75px" height="70px" viewBox="0 0 75 70" version="1.1" xmlns="http://www.w3.org/2000/svg" xmlns:xlink="http://www.w3.org/1999/xlink">
    <!-- Generator: Sketch 57.1 (83088) - https://sketch.com -->
    <title>Group 43</title>
    <desc>Created with Sketch.</desc>
    <defs>
        <path d="M0.283120527,9.10547139 C0.283120527,13.9925682 4.22580486,17.9546937 9.08914011,17.9546937 L9.08914011,17.9546937 C13.9524754,17.9546937 17.8947277,13.9925682 17.8947277,9.10547139 L17.8947277,9.10547139 C17.8947277,4.21751056 13.9524754,0.256249039 9.08914011,0.256249039 L9.08914011,0.256249039 C4.22580486,0.256249039 0.283120527,4.21751056 0.283120527,9.10547139 L0.283120527,9.10547139 Z" id="path-1"></path>
        <path d="M5.72135007,0.0983189692 C2.60890767,0.0983189692 0.0854053669,2.65771723 0.0854053669,5.81590582 L0.0854053669,5.81590582 L3.84300905,5.81590582 C6.95591228,5.81590582 9.47849292,3.25650755 9.47849292,0.0983189692 L9.47849292,0.0983189692 L5.72135007,0.0983189692 Z" id="path-3"></path>
        <path d="M0.353462374,0.0983189692 C0.353462374,3.25650755 2.76138026,5.81590582 5.73278789,5.81590582 L5.73278789,5.81590582 L9.31915152,5.81590582 C9.31915152,2.65771723 6.91123364,0.0983189692 3.93982601,0.0983189692 L3.93982601,0.0983189692 L0.353462374,0.0983189692 Z" id="path-5"></path>
        <path d="M7.18204158,0.370960453 C3.26050932,0.370960453 0.0806060941,3.82297658 0.0806060941,8.07989862 L0.0806060941,8.07989862 L3.63154158,8.07989862 C7.55307384,8.07989862 10.7329771,4.62882336 10.7329771,0.370960453 L10.7329771,0.370960453 L7.18204158,0.370960453 Z" id="path-7"></path>
        <path d="M0.303701863,0.370960453 C0.303701863,4.62882336 3.36130112,8.07989862 7.13200521,8.07989862 L7.13200521,8.07989862 L10.5459475,8.07989862 C10.5459475,3.82297658 7.488767,0.370960453 3.71806291,0.370960453 L3.71806291,0.370960453 L0.303701863,0.370960453 Z" id="path-9"></path>
        <path d="M0.361575644,7.7593095 C0.361575644,11.9558006 4.84089771,15.3601159 10.3656894,15.3601159 L10.3656894,15.3601159 C15.890972,15.3601159 20.370294,11.9558006 20.370294,7.7593095 L20.370294,7.7593095 C20.370294,3.56189075 15.890972,0.158503047 10.3656894,0.158503047 L10.3656894,0.158503047 C4.84089771,0.158503047 0.361575644,3.56189075 0.361575644,7.7593095 L0.361575644,7.7593095 Z" id="path-11"></path>
    </defs>
    <g id="Layouts" stroke="none" stroke-width="1" fill="none" fill-rule="evenodd">
        <g id="01_320_IKKBB_startseite_mobil" transform="translate(-114.000000, -1202.000000)">
            <g id="Mein-Weg-mit-der-IKKBB" transform="translate(-192.000000, 611.000000)">
                <g id="Group-43" transform="translate(306.000000, 591.000000)">
                    <g>
                        <g id="Group-17" transform="translate(43.548387, 0.000000)">
                            <path d="M18.3494968,65.7142515 C18.3494968,66.3979972 18.7684148,66.7165556 19.2231527,66.7165556 C19.7058476,66.7165556 20.0968087,66.3260928 20.0968087,65.8449868 L20.0968087,65.7142515 L25.3304444,65.7142515 C25.8895842,65.7142515 26.3530587,66.1543937 26.3831998,66.7078399 C26.3906259,66.7431385 26.3880049,67.4730774 26.3880049,67.5096833 C26.3880049,68.1607452 26.8139122,67.9803304 12.5313853,67.9803304 C11.9552092,67.9803304 12.0596111,67.3397273 12.0596111,66.7688498 C12.0596111,66.196229 12.5261433,65.7142515 13.1167347,65.7142515 L18.3494968,65.7142515 Z" id="Fill-3" fill="#E2001A"></path>
                            <path d="M25.7604142,8.18094754 C25.3205284,6.85877763 24.5303066,5.74273375 23.554433,4.92128014 C23.1660929,4.59444183 22.6126319,4.67462616 22.3168994,5.03284095 C19.1171346,8.90478545 12.5948564,8.03713868 14.2050042,2.25558689 C19.0122959,4.18872654 21.1588685,2.36191829 23.1324572,3.25396898 C24.6609182,3.9381505 26.098519,5.94885978 25.7604142,8.18094754 M14.6077596,8.37879366 C16.8875647,9.69791308 20.4394128,9.35800123 23.0223765,6.83916733 C25.8792314,10.1132156 24.0602798,17.2443917 19.2232838,17.2443917 C15.3783241,17.2443917 12.9124303,12.3901892 14.6077596,8.37879366 M26.0915298,11.7469714 C26.6786265,10.9490501 28.0983174,8.64680107 27.3513416,5.86301025 C27.3517784,5.86213868 26.5934451,2.8927037 23.8510392,1.66466323 C21.0208308,0.385635977 18.935851,2.65520119 14.0800714,0.293249682 C12.4135728,-0.516001971 11.3704276,4.65022223 13.2422354,7.17777182 C10.6007368,12.3649137 13.9035929,18.9875294 19.2232838,18.9875294 C22.8406561,18.9875294 25.8054075,15.828964 26.0915298,11.7469714" id="Fill-5" fill="#263357"></path>
                            <path d="M13.1150311,64.8426827 L25.3317986,64.8426827 C26.397222,64.8426827 27.2612677,65.7042284 27.2612677,66.7675424 L27.2612677,67.5083759 C27.2612677,68.250081 26.6580083,68.8518993 25.9140902,68.8518993 L12.5327394,68.8518993 C11.7888214,68.8518993 11.185562,68.250081 11.185562,67.5083759 L11.185562,66.7675424 C11.185562,65.7042284 12.0496077,64.8426827 13.1150311,64.8426827 L13.1150311,64.8426827 Z M2.88670449,45.8769093 L2.88670449,45.8769093 L7.1759182,41.5979421 L7.18028648,41.5935843 C7.51271256,41.3016087 7.83116014,41.0270645 8.13300826,40.7655939 C9.42995046,39.6543437 10.5045472,38.7261229 11.3174841,37.4013382 L11.3174841,42.1731776 L11.3174841,64.6291483 C10.7015566,65.1390161 10.3123429,65.9103545 10.3123429,66.7688498 L10.3123429,67.5096833 C10.3123429,68.7298796 11.3083107,69.7234681 12.531429,69.7234681 L25.9162744,69.7234681 C27.1389558,69.7234681 28.1353604,68.7298796 28.1353604,67.5096833 C28.1353604,66.7431385 28.2598564,65.5639059 27.1302193,64.6291483 L27.1302193,46.0516588 L28.6154343,46.0516588 L29.9744061,46.0516588 C31.0267247,46.0516588 31.1490365,44.6963693 31.1490365,43.6766338 L31.1490365,41.1708734 L31.1490365,26.1363112 C31.1490365,22.4887957 28.4407031,19.3424322 24.5660392,18.4752212 C24.3131158,18.4229271 24.0462139,18.4795791 23.8413416,18.6364615 C22.469265,19.6954176 20.8752798,20.2532216 19.2236333,20.2532216 C17.5724236,20.2532216 15.9736333,19.6954176 14.6063618,18.6364615 C13.5400647,17.8211088 7.29866686,20.4894168 7.29866686,26.1363112 C7.29866686,33.4705628 6.31143568,34.6341072 4.34090476,36.9481225 C4.14433218,37.1790882 3.93902304,37.4187696 3.72978245,37.6758824 C3.63804858,37.7368922 3.55461444,37.8109756 3.47205396,37.8937746 L0.00101900946,41.3974813 L1.37921121,42.6730223 L4.70784025,39.1270445 C4.74759159,39.0878239 4.79520584,39.0486033 4.83932546,39.0180984 L4.27974885,38.3774953 C4.65585772,37.9199217 5.00925154,37.5146422 5.32857277,37.1267941 L5.33294105,37.1267941 C6.08821659,36.2247203 6.70414401,35.4315927 7.16761847,34.3029111 C7.82722869,32.6905087 8.17232277,30.3982827 8.17232277,26.1363112 C8.17232277,22.8504967 10.6967515,20.0789079 14.0734316,19.3293587 C15.5368053,20.4580403 17.3103268,21.1247905 19.2236333,21.1247905 C21.1369397,21.1247905 22.910898,20.4580403 24.3738349,19.3293587 C27.750515,20.0789079 30.2753806,22.8504967 30.2753806,26.1363112 L30.2753806,43.6766338 C30.2753806,44.5002663 29.5284048,45.18009 28.6154343,45.18009 L26.2565634,45.18009 L25.7236333,44.4871928 L25.391644,44.0514084 C25.3829075,43.920673 25.3829075,43.7986534 25.3829075,43.6766338 L25.3829075,63.9754717 C25.3553873,63.9684991 20.1252462,63.9711138 20.0968523,63.9711138 L20.0968523,47.1829552 C20.0968523,46.7014134 19.7058913,46.3113863 19.2231964,46.3113863 C18.7409384,46.3113863 18.3495405,46.7014134 18.3495405,47.1829552 L18.3495405,63.9711138 C18.3215835,63.9711138 13.0918792,63.9684991 13.0647959,63.9754717 L13.0647959,42.1731776 L13.0647959,42.0424422 L23.8496413,42.0424422 L23.4106292,41.4698215 L12.1907031,41.4698215 L12.1907031,28.2245901 C12.1810929,35.7841423 10.6491373,37.4388157 7.94954051,39.7720054 C7.51708084,40.14678 7.05360638,40.538986 6.55999078,40.9747704 L5.9790096,40.316736 C5.97070987,40.3298095 5.9571682,40.3472409 5.94406336,40.3603144 L5.36788729,40.9355498 L2.37517896,43.920673 L2.88670449,45.8769093 Z" id="Fill-7" fill="#263357"></path>
                            <path d="M29.401812,43.676503 C29.401812,43.929258 29.3887072,44.1427924 29.3668658,44.3083904 L28.6155217,44.3083904 C29.0436131,44.3083904 29.401812,44.0164149 29.401812,43.676503" id="Fill-9" fill="#263357"></path>
                            <path d="M25.3824706,42.0423115 L25.3829075,42.0423115 L25.3829075,42.1765331 C25.3829075,42.17479 25.3824706,42.1730468 25.3824706,42.1713037 L25.3824706,42.0423115 Z" id="Fill-11" fill="#263357"></path>
                            <path d="M6.30667425,37.3142249 C8.15445651,35.0263568 9.04602237,33.0304642 9.04602237,26.1363548 C9.04602237,23.4301336 11.0156796,21.0681821 13.8860761,20.2706966 C15.4848665,21.3993782 17.319107,21.9964029 19.2236769,21.9964029 C21.1286837,21.9964029 22.9629243,21.3993782 24.5617146,20.2706966 C27.4316743,21.0681821 29.4017683,23.4301336 29.4017683,26.1363548 L29.4017683,40.2993482 L27.1298261,40.2993482 L27.1298261,27.1369158 C27.1298261,26.655374 26.7384283,26.265347 26.2561702,26.265347 C25.7734753,26.265347 25.3825143,26.655374 25.3825143,27.1369158 L25.3825143,40.2993482 L13.0648396,40.2993482 L13.0648396,28.1583944 L13.0648396,26.8423255 C13.0648396,26.3629627 12.6712576,25.9707567 12.1911837,25.9707567 C11.7058678,25.9707567 11.3175277,26.3629627 11.3175277,26.8423255 L11.3175277,28.1583944 C11.3175277,35.0263568 10.1289189,36.6866954 7.76131135,38.7784606 C7.63463124,38.4516223 7.43805866,38.150931 7.18033017,37.8938182 C6.92260167,37.6367054 6.62555866,37.4449603 6.30667425,37.3142249 L6.30667425,37.3142249 Z M27.130263,42.0424858 L29.4017683,42.0424858 L29.4017683,43.6766774 C29.4017683,43.9294323 29.3886635,44.1429667 29.3668221,44.3085647 L28.615478,44.3085647 L27.1608409,44.3085647 C27.1433678,44.1429667 27.130263,43.9294323 27.130263,43.6766774 L27.130263,42.1732211 L27.130263,42.0424858 Z M6.20227237,39.745902 C6.20227237,39.9550785 6.12320651,40.1555393 5.97905328,40.3167795 L6.56003447,40.974814 C7.05365006,40.5390296 7.51712452,40.1468236 7.9495842,39.772049 C10.649181,37.4388593 12.1811366,35.7841859 12.1907468,28.2246337 L12.1907468,41.4698651 L23.4106729,41.4698651 L23.849685,42.0424858 L25.3825143,42.0424858 L25.3829511,42.0424858 L25.3829511,42.1767074 L25.3829511,43.6766774 C25.3829511,43.798697 25.3829511,43.9207166 25.3916877,44.0514519 L25.7236769,44.4872364 L26.256607,45.1801336 L28.615478,45.1801336 C29.5284484,45.1801336 30.2754243,44.5003099 30.2754243,43.6766774 L30.2754243,26.1363548 C30.2754243,22.8505403 27.7505587,20.0789514 24.3738786,19.3294023 C22.9109417,20.4580839 21.1369834,21.124834 19.2236769,21.124834 C17.3103705,21.124834 15.536849,20.4580839 14.0734753,19.3294023 C10.6967952,20.0789514 8.17236646,22.8505403 8.17236646,26.1363548 C8.17236646,30.3983263 7.82683554,32.6905523 7.16766215,34.3029547 C6.70418769,35.4316363 6.08826027,36.2247639 5.33298474,37.1268376 L5.32861646,37.1268376 C5.00929522,37.5146858 4.6559014,37.9199653 4.27979253,38.3775389 L4.83936914,39.018142 C4.98745382,38.9222694 5.15781672,38.8743331 5.32861646,38.8743331 C5.55139871,38.8743331 5.77374414,38.9571322 5.94410705,39.1270881 C6.11010167,39.2926862 6.20227237,39.5105784 6.20227237,39.745902 L6.20227237,39.745902 Z" id="Fill-13" fill="#263357"></path>
                            <path d="M12.0596548,66.7688062 C12.0596548,66.1966213 12.526187,65.7142079 13.1167784,65.7142079 L18.3495405,65.7142079 C18.3495405,66.3979536 18.7680217,66.7165121 19.2231964,66.7165121 C19.7058913,66.7165121 20.0968523,66.3260492 20.0968523,65.8449432 L20.0968523,65.7142079 L25.3304881,65.7142079 C25.8896279,65.7142079 26.3531023,66.1543502 26.3832435,66.7077964 C26.3906695,66.7430949 26.3880486,67.4730338 26.3880486,67.5096397 C26.3880486,68.1607016 26.8139558,67.9802868 12.531429,67.9802868 C11.9552529,67.9802868 12.0596548,67.3396838 12.0596548,66.7688062 M11.185562,66.7674988 L11.185562,67.5083323 C11.185562,68.2500374 11.7888214,68.8518557 12.5327394,68.8518557 L25.9140902,68.8518557 C26.6580083,68.8518557 27.2612677,68.2500374 27.2612677,67.5083323 L27.2612677,66.7674988 C27.2612677,65.7041849 26.397222,64.8426391 25.3317986,64.8426391 L13.1150311,64.8426391 C12.0496077,64.8426391 11.185562,65.7041849 11.185562,66.7674988" id="Fill-15" fill="#263357"></path>
                        </g>
                        <g id="Group-20" transform="translate(1.209677, 36.290323)">
                            <mask id="mask-2" fill="white">
                                <use xlink:href="#path-1"></use>
                            </mask>
                            <g id="Clip-19"></g>
                            <polygon id="Fill-18" fill="#009EE0" mask="url(#mask-2)" points="-2.72940828 20.9667905 20.9072565 20.9667905 20.9072565 -2.75714382 -2.72940828 -2.75714382"></polygon>
                        </g>
                        <g id="Group-23" transform="translate(37.500000, 29.032258)">
                            <mask id="mask-4" fill="white">
                                <use xlink:href="#path-3"></use>
                            </mask>
                            <g id="Clip-22"></g>
                            <polygon id="Fill-21" fill="#E2001A" mask="url(#mask-4)" points="-3.12749786 9.0601676 12.6923178 9.0601676 12.6923178 -3.14640808 -3.12749786 -3.14640808"></polygon>
                        </g>
                        <g id="Group-26" transform="translate(27.822581, 29.032258)">
                            <mask id="mask-6" fill="white">
                                <use xlink:href="#path-5"></use>
                            </mask>
                            <g id="Clip-25"></g>
                            <polygon id="Fill-24" fill="#E2001A" mask="url(#mask-6)" points="-2.71383968 9.0601676 12.3868935 9.0601676 12.3868935 -3.14640808 -2.71383968 -3.14640808"></polygon>
                        </g>
                        <g id="Group-29" transform="translate(37.500000, 39.919355)">
                            <mask id="mask-8" fill="white">
                                <use xlink:href="#path-7"></use>
                            </mask>
                            <g id="Clip-28"></g>
                            <polygon id="Fill-27" fill="#E2001A" mask="url(#mask-8)" points="-2.95558745 11.3602078 13.7691706 11.3602078 13.7691706 -2.90934869 -2.95558745 -2.90934869"></polygon>
                        </g>
                        <g id="Group-32" transform="translate(26.612903, 39.919355)">
                            <mask id="mask-10" fill="white">
                                <use xlink:href="#path-9"></use>
                            </mask>
                            <g id="Clip-31"></g>
                            <polygon id="Fill-30" fill="#E2001A" mask="url(#mask-10)" points="-2.61529628 11.3602078 13.4662019 11.3602078 13.4662019 -2.90934869 -2.61529628 -2.90934869"></polygon>
                        </g>
                        <g id="Group-35" transform="translate(26.612903, 49.596774)">
                            <mask id="mask-12" fill="white">
                                <use xlink:href="#path-11"></use>
                            </mask>
                            <g id="Clip-34"></g>
                            <polygon id="Fill-33" fill="#009EE0" mask="url(#mask-12)" points="-1.10853583 18.1156473 23.5081163 18.1156473 23.5081163 -1.80370758 -1.10853583 -1.80370758"></polygon>
                        </g>
                        <text id="€" font-family="Bariol-Bold, Bariol" font-size="16" font-weight="bold" fill="#263357">
                            <tspan x="3.62903226" y="49.2903226">€</tspan>
                        </text>
                        <g id="Group-42" transform="translate(0.000000, 35.080645)" fill="#263357">
                            <path d="M43.1222497,28.1232119 L43.1222497,26.4694673 C43.7874555,26.2328486 44.3926232,25.956578 44.903383,25.6372075 L44.903383,26.5565292 C44.903383,27.0426965 44.2660209,27.6267006 43.1222497,28.1232119 L43.1222497,28.1232119 Z M41.3411164,25.1769001 C40.3309084,25.4238628 39.1362353,25.6018655 37.7792849,25.6566025 L37.7792849,23.892522 C38.9991915,23.8429571 40.2156177,23.6921073 41.3411164,23.4460066 L41.3411164,25.1769001 Z M41.3411164,28.7054921 C40.3309084,28.9524547 39.1362353,29.1308885 37.7792849,29.1856254 L37.7792849,27.4211139 C38.9991915,27.371549 40.2156177,27.2206992 41.3411164,26.9745986 L41.3411164,28.7054921 Z M28.8740536,19.4989143 C28.8740536,18.4192608 31.99604,16.8525781 36.8887183,16.8525781 C41.7813966,16.8525781 44.903383,18.4192608 44.903383,19.4989143 C44.903383,20.5789987 41.7813966,22.1456815 36.8887183,22.1456815 C31.99604,22.1456815 28.8740536,20.5789987 28.8740536,19.4989143 L28.8740536,19.4989143 Z M35.9981516,25.6566025 C34.6412013,25.6018655 33.4469632,25.4247248 32.4363201,25.1769001 L32.4363201,23.4460066 C33.5613838,23.6921073 34.77781,23.8429571 35.9981516,23.892522 L35.9981516,25.6566025 Z M35.9981516,29.1856254 C34.6412013,29.1308885 33.4469632,28.9533167 32.4363201,28.7054921 L32.4363201,26.9745986 C33.5613838,27.2206992 34.77781,27.371549 35.9981516,27.4211139 L35.9981516,29.1856254 Z M30.6551869,24.59462 C29.5114157,24.0981087 28.8740536,23.5141045 28.8740536,23.0279372 L28.8740536,22.1086155 C29.3852484,22.4279861 29.989546,22.7038257 30.6551869,22.9404443 L30.6551869,24.59462 Z M30.6551869,28.1232119 C29.5114157,27.6267006 28.8740536,27.0426965 28.8740536,26.5565292 L28.8740536,25.6372075 C29.3852484,25.956578 29.989546,26.2328486 30.6551869,26.4694673 L30.6551869,28.1232119 Z M44.903383,23.0279372 C44.903383,23.5141045 44.2660209,24.0981087 43.1222497,24.59462 L43.1222497,22.9404443 C43.7874555,22.7038257 44.3926232,22.4279861 44.903383,22.1086155 L44.903383,23.0279372 Z M17.8387713,24.9631245 L16.4126466,23.5511705 C17.2262077,22.6529678 17.9444908,21.6603762 18.5187692,20.6466656 L19.8874662,22.0025897 C19.3632196,23.0270752 18.6588583,24.0450958 17.8387713,24.9631245 L17.8387713,24.9631245 Z M13.589546,28.2404438 L12.2108426,26.8741757 C13.2362777,26.3043945 14.2356092,25.5966935 15.1444483,24.7902937 L16.5784042,26.2108677 C15.6508575,27.0224395 14.6236822,27.7210895 13.589546,28.2404438 L13.589546,28.2404438 Z M8.90569621,28.772728 L8.3836249,28.2555287 C9.06492796,28.1628639 9.78147083,27.9689142 10.5119356,27.6857476 L11.7931856,28.9563337 C10.4753906,29.3338892 9.41123526,29.2735493 8.90569621,28.772728 L8.90569621,28.772728 Z M6.15829596,26.1225128 C5.21595725,25.1928471 5.8650659,22.5344429 7.57397932,20.0238715 C8.40320258,20.2505772 9.2724513,20.38117 10.1730243,20.38117 C13.4790409,20.38117 16.4026402,18.7455273 18.1776826,16.2526269 C18.0797943,18.0106734 16.8307387,20.6811456 14.5384106,22.9473403 C11.4146839,26.0332959 7.32033967,27.2728501 6.15829596,26.1225128 L6.15829596,26.1225128 Z M2.15792456,10.6767879 C2.15792456,6.29869615 5.75282057,2.73734825 10.1730243,2.73734825 C14.5923579,2.73734825 18.187689,6.29869615 18.187689,10.6767879 C18.187689,15.0553106 14.5923579,18.6166585 10.1730243,18.6166585 C5.75282057,18.6166585 2.15792456,15.0553106 2.15792456,10.6767879 L2.15792456,10.6767879 Z M19.9053036,16.8469751 L20.4243295,17.3615883 C20.9303036,17.8624096 20.9912119,18.9149101 20.6096648,20.2221312 L19.32972,18.954993 C19.615119,18.2322071 19.8135061,17.5210581 19.9053036,16.8469751 L19.9053036,16.8469751 Z M44.8490005,29.2032964 C45.9788499,28.5132664 46.6845162,27.6267006 46.6845162,26.5565292 L46.6845162,23.0279372 L46.6845162,19.4989143 C46.6845162,16.8116331 42.2477803,15.2854643 37.7792849,15.1057376 L37.7792849,0.0905810316 L35.9981516,0.0905810316 L35.9981516,15.1057376 C31.5296563,15.2854643 27.0929203,16.8116331 27.0929203,19.4989143 L27.0929203,23.0279372 L27.0929203,26.5565292 C27.0929203,27.6267006 27.7981516,28.5132664 28.928436,29.2032964 L24.4212204,29.2032964 C22.0923473,29.2032964 20.1741703,27.393099 20.0005816,25.1221632 C20.9394398,23.886919 21.6925277,22.5460799 22.1502102,21.2509268 C22.939408,19.017488 22.7740854,17.1922056 21.6846966,16.1142761 L19.4158617,13.8653213 C19.7669547,12.8649718 19.9683872,11.7948003 19.9683872,10.6767879 L19.9683872,8.3640452 C19.9683872,8.3640452 19.5167955,6.64737465 18.187689,4.87898418 L18.187689,5.11474084 C16.4135167,2.61451342 13.4855668,0.97283677 10.1730243,0.97283677 C4.77176158,0.97283677 0.376791287,5.32636154 0.376791287,10.6767879 C0.376791287,14.4941494 2.61908755,17.7947427 5.86158543,19.3782344 C4.0734912,22.1633525 3.10200351,25.5949695 4.90010411,27.371549 C5.0084339,27.4792989 5.13416607,27.5624817 5.25598271,27.6512676 L7.64619918,30.0209022 C8.281821,30.6518853 9.17543305,30.9695319 10.2574258,30.9695319 C11.027481,30.9695319 11.8941194,30.8070451 12.8329776,30.4825026 C14.7837841,29.8058335 16.8464008,28.4839584 18.4904904,26.8565047 C18.5061525,26.8405578 18.5213796,26.8237488 18.5361716,26.8078018 C19.3858426,29.2205364 21.7121054,30.9678079 24.4212204,30.9678079 L49.3562162,30.9678079 L49.3562162,29.2032964 L44.8490005,29.2032964 Z" id="Fill-40"></path>
                        </g>
                    </g>
                </g>
            </g>
        </g>
    </g>
</svg>