<?xml version="1.0" encoding="UTF-8"?>
<svg width="121px" height="118px" viewBox="0 0 121 118" version="1.1" xmlns="http://www.w3.org/2000/svg" xmlns:xlink="http://www.w3.org/1999/xlink">
    <!-- Generator: Sketch 57.1 (83088) - https://sketch.com -->
    <title>8_illu_zahnreinigung</title>
    <desc>Created with Sketch.</desc>
    <g id="Layouts" stroke="none" stroke-width="1" fill="none" fill-rule="evenodd">
        <g id="01_1920_IKKBB_startseite_Navigation" transform="translate(-351.000000, -3887.000000)">
            <g id="Leistungen-der-IKKBB" transform="translate(296.000000, 853.000000)">
                <g id="Professionelle-Zahnreinigung" transform="translate(0.000000, 3034.000000)">
                    <g id="illu6" transform="translate(55.114305, 0.000000)">
                        <g id="tooth-whitening">
                            <circle id="Oval" fill="#009EE0" cx="90" cy="83" r="17"></circle>
                            <path d="M93.6289864,63.6697764 C94.0618494,58.7996372 93.8807926,54.146152 93.0865762,49.8130707 C91.8731906,43.1791842 89.2980742,37.994744 85.8366916,35.2140959 C79.710425,30.2966588 74.4369516,32.0520144 69.3361671,33.7493924 C66.5488032,34.677038 63.667107,35.635961 60.3654808,35.7000418 C57.0653758,35.635961 54.1836797,34.677038 51.3963159,33.7493924 C46.296292,32.0520144 41.0228187,30.2974217 34.8957913,35.2148587 C31.4344087,37.994744 28.860053,43.1791842 27.6466672,49.8130707 C26.209623,57.6568632 26.8212607,66.8555066 29.3682296,75.7131488 C32.0483287,85.0307992 36.6470226,93.4871735 42.6683067,100.167595 C43.7325868,101.347749 45.2190794,102 46.7747996,102 C47.0836615,102 47.3963271,101.974063 47.7082318,101.921425 C49.6002007,101.603309 51.1772218,100.356023 51.9280756,98.5861727 C53.1992776,95.580479 54.2239991,92.8494172 54.9733315,90.4692739 C55.7196207,88.1036252 57.886218,86.5138115 60.3654808,86.5138115 C61.577345,86.5138115 62.733675,86.8921933 63.7089479,87.6085249 C64.6842211,88.3233307 65.3932339,89.3127684 65.7583908,90.4685111 C66.5160912,92.8715402 67.5408127,95.6033651 68.8051681,98.5869357 C69.5552612,100.356023 71.1315216,101.602547 73.0227296,101.921425 C74.9032873,102.238014 76.786888,101.583475 78.0641762,100.167595 C78.9466386,99.1880743 79.8085608,98.1582047 80.6385319,97.0909545 C83.5886948,99.018718 87.0645316,100.063082 90.6156816,100.063082 C100.689446,100.063082 108.885695,91.8447221 108.885695,81.742845 C108.885695,72.6914347 102.331891,65.1146454 93.6289864,63.6697764 L93.6289864,63.6697764 Z M90.6164425,96.157206 C87.2843864,96.157206 84.0390549,94.9900205 81.477632,92.8700146 C81.4768711,92.8692518 81.4768711,92.8692518 81.4761104,92.8692518 C81.4761104,92.868489 81.4753497,92.868489 81.4753497,92.868489 C80.8104598,92.3192251 80.1896932,91.7043547 79.6305468,91.039898 C78.9359881,90.2160023 77.7073874,90.1122524 76.8857845,90.8079866 C76.0641816,91.5044836 75.9607205,92.7365129 76.6545185,93.5604087 C76.9618591,93.9250589 77.2859357,94.2752145 77.6206628,94.6146902 C76.8317719,95.6331169 76.0147334,96.6172145 75.1756333,97.5479115 C74.6271374,98.155916 73.9394253,98.1154842 73.6693616,98.0697122 C73.3939724,98.0231774 72.7176715,97.8316978 72.3905518,97.059677 C71.1741232,94.1897734 70.1927641,91.576956 69.4731007,89.2906453 C68.8546164,87.3354186 67.6564456,85.6632154 66.0086753,84.4555978 C64.3624266,83.2464546 62.4111198,82.6079354 60.3654808,82.6079354 C56.1798704,82.6079354 52.5199338,85.2939881 51.2601427,89.2921712 C50.5473262,91.5555957 49.5652064,94.1691762 48.3434526,97.0589142 C48.0155721,97.8316978 47.3385104,98.0231774 47.0631214,98.0697122 C46.7930574,98.1147213 46.1053454,98.155916 45.558371,97.5486744 C34.4530386,85.2276188 28.6630204,65.888192 31.477771,50.5179593 C32.5070568,44.8910565 34.6409423,40.4244735 37.3301703,38.2640358 C39.4914422,36.5292774 41.4267735,35.9052283 43.3978597,35.9052283 C45.5081618,35.9052283 47.6587835,36.6208214 50.1699975,37.4561602 C53.1011418,38.4318664 56.4225476,39.5372598 60.3320079,39.6059179 L60.3997142,39.6059179 C64.3099353,39.5372598 67.6321019,38.4318664 70.5632462,37.4561602 C75.4198321,35.8404092 78.9291414,34.6732235 83.4023127,38.263273 C86.0930621,40.4244735 88.2261866,44.8910565 89.2554726,50.5187221 C89.9926329,54.5397911 90.1531496,58.8797381 89.7370231,63.4416793 C80.8751232,63.8650703 73.5309062,70.650767 72.4734727,79.5564697 C72.3456678,80.6275342 73.1086935,81.5994259 74.1767773,81.7268247 C74.2551339,81.7359791 74.3327298,81.7405564 74.4095649,81.7405564 C75.3817949,81.7405564 76.2231772,81.0112561 76.3410924,80.0187667 C77.1999717,72.7829787 83.3368887,67.3261952 90.6156816,67.3261952 C90.8499908,67.3261952 91.101036,67.3330609 91.3840326,67.3483183 C91.3847933,67.3483183 91.3855542,67.3490811 91.3863149,67.3490811 C99.0142889,67.7518746 104.990689,74.0745115 104.990689,81.742845 C104.990689,89.6911502 98.5426282,96.157206 90.6164425,96.157206 L90.6164425,96.157206 Z" id="Shape" fill="#000000" fill-rule="nonzero"></path>
                            <path d="M53.3904725,56.961713 C53.5185475,56.935928 53.6450606,56.8976412 53.7645452,56.8476339 C53.8848108,56.7976266 54.0003904,56.7358987 54.1105038,56.6640132 C54.2182741,56.5897837 54.32214,56.5077403 54.4142914,56.4155394 C54.5064428,56.3217756 54.5900039,56.2194169 54.6626318,56.1092445 C54.7344789,56.0014161 54.7961734,55.8857742 54.8461539,55.7654442 C54.8961344,55.6435513 54.9344008,55.5193143 54.960172,55.3911705 C54.9859431,55.2614639 55,55.1294134 55,54.999707 C55,54.8692191 54.9859431,54.7371685 54.960172,54.6090248 C54.9344008,54.4816623 54.8961344,54.3550812 54.8461539,54.2355324 C54.7961734,54.1152024 54.7344789,53.9972163 54.6626318,53.8893881 C54.5900039,53.7792156 54.5064428,53.6776383 54.4142914,53.5854372 C54.32214,53.4932363 54.2182741,53.4088489 54.1105038,53.3369634 C54.0003904,53.2650779 53.8848108,53.20335 53.7645452,53.1533427 C53.6450606,53.1033354 53.5185475,53.0650486 53.3904725,53.0392636 C53.1327607,52.9869121 52.8672395,52.9869121 52.6087466,53.0392636 C52.4814525,53.0650486 52.3549396,53.1033354 52.235455,53.1533427 C52.1151894,53.20335 51.9996096,53.2650779 51.8894964,53.3369634 C51.7817259,53.4088489 51.6794222,53.4932363 51.5857088,53.5854372 C51.4935572,53.6776383 51.411558,53.7792156 51.3373682,53.8893881 C51.2655213,53.9972163 51.2038266,54.1152024 51.1538461,54.2355324 C51.1038656,54.3550812 51.0655994,54.4816623 51.0398282,54.6090248 C51.0140569,54.7371685 51,54.8692191 51,54.999707 C51,55.1294134 51.0140569,55.2614639 51.0398282,55.3911705 C51.0655994,55.5193143 51.1038656,55.6435513 51.1538461,55.7654442 C51.2038266,55.8857742 51.2655213,56.0014161 51.3373682,56.1092445 C51.411558,56.2194169 51.4935572,56.3217756 51.5857088,56.4155394 C51.6778602,56.5077403 51.7817259,56.5897837 51.8894964,56.6640132 C51.9996096,56.7358987 52.1151894,56.7976266 52.235455,56.8476339 C52.3549396,56.8976412 52.4814525,56.935928 52.6087466,56.961713 C52.7391645,56.9874982 52.8688012,57 53.0007809,57 C53.1311988,57 53.2631784,56.9874982 53.3904725,56.961713 Z" id="Path" fill="#000000" fill-rule="nonzero"></path>
                            <path d="M70.7341328,54.2357739 C70.6841328,54.1154203 70.6224142,53.9989741 70.549758,53.8895619 C70.4763204,53.780931 70.3942892,53.6769893 70.3021016,53.5855516 C70.2083516,53.4933327 70.106008,53.4089288 69.9958516,53.3370293 C69.8880392,53.2651297 69.7724142,53.2033898 69.6521016,53.1533727 C69.5302266,53.1033556 69.406008,53.0650613 69.2778828,53.0392713 C69.0200704,52.9869096 68.7544454,52.9869096 68.4958516,53.0392713 C68.3677266,53.0650613 68.2419454,53.1033556 68.1224142,53.1533727 C68.0021016,53.2033898 67.8841328,53.2651297 67.7763204,53.3370293 C67.6661642,53.4089288 67.5638204,53.4933327 67.4724142,53.5855516 C67.3802266,53.6769893 67.2958516,53.780931 67.2239766,53.8895619 C67.1521016,53.9989741 67.0903828,54.1154203 67.0403828,54.2357739 C66.9903828,54.355346 66.9521016,54.4811704 66.9263204,54.6093392 C66.899758,54.737508 66.8856954,54.8695843 66.8856954,54.9993161 C66.8856954,55.5276219 67.099758,56.0418601 67.4724142,56.4138622 C67.5638204,56.5060812 67.6661642,56.5904852 67.7763204,56.6639477 C67.8841328,56.7366288 68.0021016,56.7983687 68.1224142,56.8483858 C68.2419454,56.8984029 68.3677266,56.9366972 68.4958516,56.9624872 C68.6239766,56.9882774 68.756008,57 68.8856954,57 C69.0161642,57 69.1481954,56.9882774 69.2778828,56.9624872 C69.406008,56.9366972 69.5302266,56.8984029 69.6521016,56.8483858 C69.7724142,56.7983687 69.8880392,56.7366288 69.9958516,56.6639477 C70.106008,56.5904852 70.2083516,56.5060812 70.3021016,56.4138622 C70.6739766,56.0418601 70.8856954,55.5276219 70.8856954,54.9993161 C70.8856954,54.8695843 70.8739766,54.737508 70.8481954,54.6093392 C70.8224142,54.4811704 70.7841328,54.355346 70.7341328,54.2357739 L70.7341328,54.2357739 Z" id="Path" fill="#000000" fill-rule="nonzero"></path>
                            <path d="M65.786669,63.3483313 C62.257441,65.7640426 57.5141276,65.7640426 53.9841304,63.3483313 C53.0937501,62.7397133 51.8665934,62.9498404 51.2422509,63.818866 C50.618677,64.6871412 50.8339676,65.8856163 51.7243479,66.4942343 C54.1648208,68.1647448 57.0251103,69 59.8853998,69 C62.7456894,69 65.6059789,68.1647448 68.0472206,66.4942343 C68.937601,65.8856163 69.1528916,64.6871412 68.5285488,63.818866 C67.9042061,62.9498404 66.6770496,62.7389627 65.786669,63.3483313 Z" id="Path" fill="#000000" fill-rule="nonzero"></path>
                            <path d="M118.390195,113.1534 C117.085195,113.1534 116.023195,114.2154 116.023195,115.5204 C116.023195,116.8254 117.085195,117.8874 118.390195,117.8874 C119.695195,117.8874 120.757195,116.8254 120.757195,115.5204 C120.757195,114.2154 119.695195,113.1534 118.390195,113.1534" id="Fill-1" fill="#263357"></path>
                            <path d="M112.253895,113.416 L2.84289543,113.416 C1.68089543,113.416 0.738895428,114.358 0.738895428,115.52 C0.738895428,116.683 1.68089543,117.624 2.84289543,117.624 L112.253895,117.624 C113.415895,117.624 114.357895,116.683 114.357895,115.52 C114.357895,114.358 113.415895,113.416 112.253895,113.416" id="Fill-7" fill="#263357" opacity="0.892299107"></path>
                            <circle id="Oval" fill="#E2001A" cx="34.5" cy="12.5" r="5.5"></circle>
                            <circle id="Oval-Copy-6" fill="#E2001A" cx="101.385695" cy="42.5" r="4.5"></circle>
                            <path d="M45.0454893,14.4509628 C45.0524189,14.4494325 45.0601186,14.447902 45.0670482,14.4456065 C46.219678,14.1387578 47.0135066,13.097309 46.9998259,11.9120011 C46.9850182,10.7266929 46.165011,9.7051397 45.0062213,9.42583864 L44.9592538,9.41436046 C41.3265833,8.54202275 38.4977511,5.76278541 37.5776491,2.16247918 L37.523752,1.95204698 C37.2303971,0.802703688 36.1917214,0 34.9982838,0 C33.8056159,0 32.7669402,0.802703688 32.4735855,1.95128182 L32.4674259,1.97347282 C31.5326945,5.63116954 28.6661343,8.48080607 24.991116,9.40823879 L24.9641675,9.41512562 C23.8076878,9.70667002 23,10.7389363 23,11.9242444 C23,13.1103175 23.8076878,14.1425838 24.9695573,14.4356587 L24.9857264,14.4394849 C28.6661343,15.3684479 31.5334646,18.2180844 32.4681958,21.875016 L32.5213231,22.0854484 C32.8100579,23.2126005 33.8287148,24 34.9990537,24 C36.1693926,24 37.1880495,23.2126005 37.4760144,22.0854484 C38.4261449,18.3665348 41.3335131,15.4396122 45.0454893,14.4509628 Z M35.0244623,17.6793776 C33.7078312,15.244484 31.7020859,13.2434639 29.2559234,11.9250096 C31.6712875,10.6233899 33.6577836,8.65527361 34.9751849,6.26017085 C36.2833467,8.69889045 38.2914019,10.6907283 40.7460338,11.9854611 C38.3391393,13.3108022 36.354183,15.2873357 35.0244623,17.6793776 Z" id="Shape" fill="#000000" fill-rule="nonzero"></path>
                            <path d="M109.05128,40.6427127 C109.05128,40.6427127 109.050518,40.6427127 109.050518,40.6419546 L109.018486,40.6343723 C106.67022,40.0702611 104.842096,38.2732939 104.247975,35.9463352 L104.209842,35.7977252 C103.939856,34.7392585 102.983466,34 101.885219,34 C100.786972,34 99.8313446,34.7392585 99.5567829,35.8128895 C98.9512218,38.1838247 97.0941167,40.0300758 94.6939894,40.636647 C93.6293,40.9050547 92.8856954,41.8558551 92.8856954,42.9476833 C92.8856954,44.0395114 93.6293,44.9895535 94.7092428,45.2617524 C97.0941167,45.8637742 98.9512218,47.7107835 99.5575455,50.0817187 L99.5949166,50.2288121 C99.8610889,51.2713564 100.802988,52 101.885219,52 C102.96745,52 103.909349,51.2721146 104.176284,50.2288121 C104.793285,47.8116261 106.68166,45.9100252 109.107718,45.2640271 C110.167831,44.9819713 110.899233,44.0228306 110.885505,42.9310025 C110.87254,41.8399325 110.118258,40.898989 109.05128,40.6427127 L109.05128,40.6427127 Z M101.908862,45.9039595 C101.130174,44.7325189 100.122685,43.7278854 98.9458831,42.9484414 C100.09828,42.1841617 101.08899,41.2022746 101.862339,40.0573715 C102.639501,41.2280539 103.647753,42.2288964 104.826843,42.9984835 C103.676734,43.7726201 102.685261,44.7598146 101.908862,45.9039595 L101.908862,45.9039595 Z" id="Shape" fill="#000000" fill-rule="nonzero"></path>
                            <path d="M99.6424867,74.0231111 C93.8405253,74.9155219 90.2896063,80.91463 88.5361788,84.926336 C86.1119207,82.822205 82.8170266,81.944103 82.3004188,81.8168309 C81.2603656,81.5585213 80.2073975,82.1850915 79.9452948,83.2160705 C79.6824327,84.2470495 80.3137579,85.2945966 81.3530512,85.5559186 C82.678758,85.8902901 86.5958606,87.3445053 87.1945179,89.5698838 C87.4201539,90.4095781 88.1851893,90.9947283 89.0619031,91 L89.0740585,91 C89.9454544,91 90.7112495,90.4238868 90.946762,89.5909701 C91.7961259,86.5876508 95.120649,78.6207206 100.238865,77.8329892 C101.30019,77.6695689 102.027239,76.6845283 101.862381,75.6324628 C101.698282,74.5803973 100.703052,73.8596908 99.6424867,74.0231111 L99.6424867,74.0231111 Z" id="Path" fill="#000000" fill-rule="nonzero"></path>
                            <path d="M76.7333518,85.2342689 C76.6833518,85.1147669 76.621633,84.9983889 76.549758,84.8906028 C76.4755392,84.7804735 76.393508,84.6789357 76.299758,84.5867708 C76.2075704,84.4946057 76.1052266,84.4110323 75.9950704,84.3368318 C75.887258,84.2649744 75.771633,84.2024896 75.6513204,84.1525018 C75.5294454,84.102514 75.4036642,84.0650232 75.2771018,84.0392483 C75.0192892,83.9869172 74.7536642,83.9869172 74.4950704,84.0392483 C74.3677266,84.0650232 74.2411642,84.102514 74.121633,84.1525018 C73.999758,84.2024896 73.8833518,84.2649744 73.7755392,84.3368318 C73.665383,84.4110323 73.5630392,84.4946057 73.471633,84.5867708 C73.3794454,84.6789357 73.2950704,84.7804735 73.2231954,84.8906028 C73.1513204,84.9983889 73.0896018,85.1147669 73.0396018,85.2342689 C72.9896018,85.3568952 72.9513204,85.4826459 72.9255392,85.6083964 C72.899758,85.7388334 72.8856954,85.8708324 72.8856954,86.0004881 C72.8856954,86.1301441 72.899758,86.262143 72.9255392,86.3902368 C72.9513204,86.5183305 72.9896018,86.644081 73.0396018,86.7643642 C73.0896018,86.8862095 73.1513204,87.0018063 73.2231954,87.1103734 C73.2950704,87.2205029 73.3794454,87.3220405 73.471633,87.4142056 C73.5630392,87.5063705 73.665383,87.5899439 73.7755392,87.6618014 C73.8833518,87.7336588 73.999758,87.7961436 74.121633,87.8461314 C74.2411642,87.8961192 74.3677266,87.93361 74.4950704,87.9601659 C74.6231954,87.985941 74.7552266,88 74.8856954,88 C75.0177266,88 75.1474142,87.985941 75.2771018,87.9601659 C75.4036642,87.93361 75.5294454,87.8961192 75.6513204,87.8461314 C75.771633,87.7961436 75.887258,87.7336588 75.9950704,87.6618014 C76.1052266,87.5899439 76.2075704,87.5063705 76.299758,87.4142056 C76.393508,87.3220405 76.4755392,87.2205029 76.549758,87.1103734 C76.621633,87.0018063 76.6833518,86.8862095 76.7333518,86.7643642 C76.7833518,86.644081 76.821633,86.5183305 76.8474142,86.3902368 C76.8731954,86.262143 76.8856954,86.1301441 76.8856954,86.0004881 C76.8856954,85.8708324 76.8731954,85.7388334 76.8474142,85.6083964 C76.821633,85.4826459 76.7833518,85.3568952 76.7333518,85.2342689 Z" id="Path" fill="#000000" fill-rule="nonzero"></path>
                        </g>
                    </g>
                </g>
            </g>
        </g>
    </g>
</svg>