<?xml version="1.0" encoding="UTF-8"?>
<svg width="100px" height="102px" viewBox="0 0 100 102" version="1.1" xmlns="http://www.w3.org/2000/svg" xmlns:xlink="http://www.w3.org/1999/xlink">
    <!-- Generator: Sketch 57.1 (83088) - https://sketch.com -->
    <title>9_illu_mehr_bonus</title>
    <desc>Created with Sketch.</desc>
    <defs>
        <path d="M0.480464832,18.6766404 C0.480464832,28.6440945 8.52174717,36.7250281 18.4407385,36.7250281 L18.4407385,36.7250281 C28.3597299,36.7250281 36.4001311,28.6440945 36.4001311,18.6766404 L36.4001311,18.6766404 C36.4001311,8.70742407 28.3597299,0.626490439 18.4407385,0.626490439 L18.4407385,0.626490439 C8.52174717,0.626490439 0.480464832,8.70742407 0.480464832,18.6766404 L0.480464832,18.6766404 Z" id="path-1"></path>
        <path d="M10.6095424,0.276438522 C4.78494552,0.276438522 0.062485829,4.94112659 0.062485829,10.6971532 L0.062485829,10.6971532 L7.09443184,10.6971532 C12.9198912,10.6971532 17.6406261,6.03246517 17.6406261,0.276438522 L17.6406261,0.276438522 L10.6095424,0.276438522 Z" id="path-3"></path>
        <path d="M0.622094855,0.276438522 C0.622094855,6.03246517 5.52009056,10.6971532 11.5642924,10.6971532 L11.5642924,10.6971532 L18.8593891,10.6971532 C18.8593891,4.94112659 13.9613934,0.276438522 7.91719149,0.276438522 L7.91719149,0.276438522 L0.622094855,0.276438522 Z" id="path-5"></path>
        <path d="M14.4474592,0.00437445319 C6.50604188,0.00437445319 0.0664828294,6.42432196 0.0664828294,14.3412073 L0.0664828294,14.3412073 L7.25741196,14.3412073 C15.1988293,14.3412073 21.6383883,7.92300962 21.6383883,0.00437445319 L21.6383883,0.00437445319 L14.4474592,0.00437445319 Z" id="path-7"></path>
        <path d="M0.541752363,0.00437445319 C0.541752363,7.92300962 6.95301826,14.3412073 14.86171,14.3412073 L14.86171,14.3412073 L22.0221279,14.3412073 C22.0221279,6.42432196 15.6117402,0.00437445319 7.70129204,0.00437445319 L7.70129204,0.00437445319 L0.541752363,0.00437445319 Z" id="path-9"></path>
        <path d="M0.610873531,7.63784159 C0.610873531,11.6191292 8.65215587,14.8488652 18.5702661,14.8488652 L18.5702661,14.8488652 C28.4892575,14.8488652 36.5305398,11.6191292 36.5305398,7.63784159 L36.5305398,7.63784159 C36.5305398,3.65567392 28.4892575,0.426817971 18.5702661,0.426817971 L18.5702661,0.426817971 C8.65215587,0.426817971 0.610873531,3.65567392 0.610873531,7.63784159 L0.610873531,7.63784159 Z" id="path-11"></path>
        <path d="M0.842669556,18.8755132 C0.842669556,28.8157592 8.8839519,36.8746344 18.8029433,36.8746344 L18.8029433,36.8746344 C28.7219346,36.8746344 36.7623358,28.8157592 36.7623358,18.8755132 L36.7623358,18.8755132 C36.7623358,8.93350964 28.7219346,0.874634421 18.8029433,0.874634421 L18.8029433,0.874634421 C8.8839519,0.874634421 0.842669556,8.93350964 0.842669556,18.8755132 L0.842669556,18.8755132 Z" id="path-13"></path>
        <path d="M10.6095424,0.276438522 C4.78494552,0.276438522 0.062485829,4.94112659 0.062485829,10.6971532 L7.09443184,10.6971532 C12.9198912,10.6971532 17.6406261,6.03246517 17.6406261,0.276438522 L10.6095424,0.276438522 Z" id="path-15"></path>
        <path d="M13.6827519,-27.2605088 C6.72430611,-27.2605088 1.08254582,-21.8888756 1.08254582,-15.2605088 L1.08254582,-15.2605088 L9.48337004,-15.2605088 C16.4428461,-15.2605088 22.0825458,-20.632142 22.0825458,-27.2605088 L22.0825458,-27.2605088 L13.6827519,-27.2605088 Z" id="path-17"></path>
        <path d="M0.622094855,0.276438522 C0.622094855,6.03246517 5.52009056,10.6971532 11.5642924,10.6971532 L18.8593891,10.6971532 C18.8593891,4.94112659 13.9613934,0.276438522 7.91719149,0.276438522 L0.622094855,0.276438522 Z" id="path-19"></path>
        <path d="M0.622094855,0.276438522 C0.622094855,6.03246517 5.52009056,10.6971532 11.5642924,10.6971532 L18.8593891,10.6971532 C18.8593891,4.94112659 13.9613934,0.276438522 7.91719149,0.276438522 L0.622094855,0.276438522 Z" id="path-21"></path>
        <path d="M1.69600323,-22.2605088 C1.69600323,-17.2892337 5.99312814,-13.2605088 11.2958462,-13.2605088 L11.2958462,-13.2605088 L17.6960032,-13.2605088 C17.6960032,-18.2317839 13.3988783,-22.2605088 8.09616023,-22.2605088 L8.09616023,-22.2605088 L1.69600323,-22.2605088 Z" id="path-23"></path>
        <path d="M14.4474592,0.00437445319 C6.50604188,0.00437445319 0.0664828294,6.42432196 0.0664828294,14.3412073 L0.0664828294,14.3412073 L7.25741196,14.3412073 C15.1988293,14.3412073 21.6383883,7.92300962 21.6383883,0.00437445319 L21.6383883,0.00437445319 L14.4474592,0.00437445319 Z" id="path-25"></path>
        <path d="M0.541752363,0.00437445319 C0.541752363,7.92300962 6.95301826,14.3412073 14.86171,14.3412073 L14.86171,14.3412073 L22.0221279,14.3412073 C22.0221279,6.42432196 15.6117402,0.00437445319 7.70129204,0.00437445319 L7.70129204,0.00437445319 L0.541752363,0.00437445319 Z" id="path-27"></path>
        <path d="M16.9644356,16.1034428 C28.0536728,16.1034428 35.105343,16.4087079 35.105343,8.36614173 C35.105343,0.321797782 28.4775522,0.426817971 17.388315,0.426817971 C6.30006285,0.426817971 0.27080638,0.334227478 0.27080638,8.37857143 C0.27080638,16.4211376 5.87618345,16.1034428 16.9644356,16.1034428 Z" id="path-29"></path>
        <polygon id="path-31" points="0.650972666 0.852247022 5.38497267 0.852247022 5.38497267 5.58614702 0.650972666 5.58614702"></polygon>
        <polygon id="path-33" points="0.508801555 0.186019386 173.040502 0.186019386 173.040502 4.39371939 0.508801555 4.39371939"></polygon>
    </defs>
    <g id="Layouts" stroke="none" stroke-width="1" fill="none" fill-rule="evenodd">
        <g id="01_1920_IKKBB_startseite_Navigation" transform="translate(-626.000000, -3901.000000)">
            <g id="Leistungen-der-IKKBB" transform="translate(296.000000, 853.000000)">
                <g id="Mehr-Bonus" transform="translate(256.000000, 3045.000000)">
                    <g id="plant" transform="translate(73.114305, 0.000000)">
                        <g transform="translate(0.000000, -160.000000)">
                            <g id="Group-3" transform="translate(3.362205, 205.173228)">
                                <mask id="mask-2" fill="white">
                                    <use xlink:href="#path-1"></use>
                                </mask>
                                <g id="Clip-2"></g>
                                <polygon id="Fill-1" fill="#F0BC5E" mask="url(#mask-2)" points="-5.66372339 42.8683352 42.5443193 42.8683352 42.5443193 -5.51769779 -5.66372339 -5.51769779"></polygon>
                            </g>
                            <g id="Group-6" transform="translate(75.803150, 191.000000)">
                                <mask id="mask-4" fill="white">
                                    <use xlink:href="#path-3"></use>
                                </mask>
                                <g id="Clip-5"></g>
                                <polygon id="Fill-4" fill="#F0BC5E" mask="url(#mask-4)" points="-5.95097499 16.6100545 23.6540869 16.6100545 23.6540869 -5.63731072 -5.95097499 -5.63731072"></polygon>
                            </g>
                            <g id="Group-9" transform="translate(56.905512, 191.000000)">
                                <mask id="mask-6" fill="white">
                                    <use xlink:href="#path-5"></use>
                                </mask>
                                <g id="Clip-8"></g>
                                <polygon id="Fill-7" fill="#F0BC5E" mask="url(#mask-6)" points="-5.61627308 16.6100545 25.0995465 16.6100545 25.0995465 -5.63731072 -5.61627308 -5.63731072"></polygon>
                            </g>
                            <g id="Group-12" transform="translate(75.803150, 213.047244)">
                                <mask id="mask-8" fill="white">
                                    <use xlink:href="#path-7"></use>
                                </mask>
                                <g id="Clip-11"></g>
                                <polygon id="Fill-10" fill="#F0BC5E" mask="url(#mask-8)" points="-6.08293449 20.4409449 27.7869238 20.4409449 27.7869238 -6.09711286 -6.08293449 -6.09711286"></polygon>
                            </g>
                            <g id="Group-15" transform="translate(53.755906, 213.047244)">
                                <mask id="mask-10" fill="white">
                                    <use xlink:href="#path-9"></use>
                                </mask>
                                <g id="Clip-14"></g>
                                <polygon id="Fill-13" fill="#F0BC5E" mask="url(#mask-10)" points="-5.58320221 20.4409449 28.1462042 20.4409449 28.1462042 -6.09711286 -5.58320221 -6.09711286"></polygon>
                            </g>
                            <g id="Group-18" transform="translate(56.905512, 233.519685)">
                                <mask id="mask-12" fill="white">
                                    <use xlink:href="#path-11"></use>
                                </mask>
                                <g id="Clip-17"></g>
                                <polygon id="Fill-16" fill="#F0BC5E" mask="url(#mask-12)" points="-5.53243356 20.9836035 42.6756092 20.9836035 42.6756092 -5.71056044 -5.53243356 -5.71056044"></polygon>
                            </g>
                            <text id="€" font-family="Bariol-Bold, Bariol" font-size="33.4706" font-weight="bold" fill="#263357">
                                <tspan x="12.696719" y="227.346457">€</tspan>
                            </text>
                            <g id="Group-25" transform="translate(3.000000, 205.023622)">
                                <mask id="mask-14" fill="white">
                                    <use xlink:href="#path-13"></use>
                                </mask>
                                <g id="Clip-27"></g>
                                <polygon id="Fill-26" fill="#FFFFFF" mask="url(#mask-14)" points="-5.30151867 43.0179415 42.9065241 43.0179415 42.9065241 -5.36809149 -5.30151867 -5.36809149"></polygon>
                                <path d="M84.8494674,54.1140197 L84.8494674,50.7499218 C86.1898182,50.2685849 87.4099937,49.7065868 88.4398182,49.0569135 L88.4398182,50.9270257 C88.4398182,51.9160021 87.1547305,53.1040012 84.8494674,54.1140197 L84.8494674,54.1140197 Z M81.2573621,48.1205422 C79.22052,48.6229212 76.8126253,48.9850198 74.0757831,49.0963673 L74.0757831,45.507821 C76.5354323,45.4069945 78.9880638,45.1001312 81.2573621,44.5995058 L81.2573621,48.1205422 Z M81.2573621,55.2985118 C79.22052,55.8008907 76.8126253,56.1638661 74.0757831,56.2752136 L74.0757831,52.6857905 C76.5354323,52.584964 78.9880638,52.2781007 81.2573621,51.7774753 L81.2573621,55.2985118 Z M56.12052,36.57021 C56.12052,34.3739459 62.4152568,31.186952 72.2801691,31.186952 C82.1450814,31.186952 88.4398182,34.3739459 88.4398182,36.57021 C88.4398182,38.7673508 82.1450814,41.9543447 72.2801691,41.9543447 C62.4152568,41.9543447 56.12052,38.7673508 56.12052,36.57021 L56.12052,36.57021 Z M70.4845551,49.0963673 C67.7485902,48.9850198 65.3406954,48.6246747 63.3029761,48.1205422 L63.3029761,44.5995058 C65.5713972,45.1001312 68.024906,45.4069945 70.4845551,45.507821 L70.4845551,49.0963673 Z M70.4845551,56.2752136 C67.7485902,56.1638661 65.3406954,55.8026442 63.3029761,55.2985118 L63.3029761,51.7774753 C65.5713972,52.2781007 68.024906,52.584964 70.4845551,52.6857905 L70.4845551,56.2752136 Z M59.7117481,46.9360501 C57.4056077,45.925155 56.12052,44.7371559 56.12052,43.7490562 L56.12052,41.878944 C57.1512217,42.5286173 58.3696428,43.0897386 59.7117481,43.5710756 L59.7117481,46.9360501 Z M59.7117481,54.1140197 C57.4056077,53.1040012 56.12052,51.9160021 56.12052,50.9270257 L56.12052,49.0569135 C57.1512217,49.7065868 58.3696428,50.2685849 59.7117481,50.7499218 L59.7117481,54.1140197 Z M88.4398182,43.7490562 C88.4398182,44.7371559 87.1547305,45.925155 84.8494674,46.9360501 L84.8494674,43.5710756 C86.1898182,43.0897386 87.4099937,42.5286173 88.4398182,41.878944 L88.4398182,43.7490562 Z M33.87052,47.6856732 L30.9950814,44.8125565 C32.6354323,42.9862819 34.0836779,40.9671218 35.2415726,38.9050008 L38.0012217,41.663263 C36.9442042,43.7473027 35.5240288,45.8181912 33.87052,47.6856732 L33.87052,47.6856732 Z M25.3029761,54.3524962 L22.5231516,51.573192 C24.5906954,50.4141258 26.6056077,48.9744988 28.4380638,47.3340956 L31.3292919,50.2238706 C29.4591165,51.8747948 27.3880638,53.2960099 25.3029761,54.3524962 L25.3029761,54.3524962 Z M15.8591165,55.4352851 L14.8064849,54.3831826 C16.1801691,54.1946809 17.624906,53.8001424 19.097713,53.2241163 L21.6810463,55.8087815 C19.024906,56.5768163 16.8784147,56.454071 15.8591165,55.4352851 L15.8591165,55.4352851 Z M10.3196428,50.0441364 C8.4196428,48.1529821 9.72841473,42.7451751 13.1740288,37.638094 C14.8459586,38.0992657 16.5985902,38.3649215 18.4143796,38.3649215 C25.0801691,38.3649215 30.974906,35.0376473 34.5538533,29.9665131 C34.3564849,33.5427849 31.838941,38.975141 27.216134,43.5851036 C20.9187656,49.8626487 12.6626253,52.3841877 10.3196428,50.0441364 L10.3196428,50.0441364 Z M2.25385332,18.6239711 C2.25385332,9.71792316 9.50209894,2.47332049 18.4143796,2.47332049 C27.324906,2.47332049 34.5740288,9.71792316 34.5740288,18.6239711 C34.5740288,27.5308957 27.324906,34.7754984 18.4143796,34.7754984 C9.50209894,34.7754984 2.25385332,27.5308957 2.25385332,18.6239711 L2.25385332,18.6239711 Z M38.0371867,31.1755543 L39.0836779,32.2223963 C40.1038533,33.2411822 40.2266603,35.3822109 39.4573621,38.0414 L36.8775375,35.4628721 C37.4520989,33.9934355 37.8520989,32.5467945 38.0371867,31.1755543 L38.0371867,31.1755543 Z M88.3310463,56.3102837 C90.6091165,54.9074803 92.0319235,53.1040012 92.0319235,50.9270257 L92.0319235,43.7490562 L92.0319235,36.57021 C92.0319235,31.1036606 83.0854323,27.9990814 74.0757831,27.6334757 L74.0757831,-2.91081421 L70.4845551,-2.91081421 L70.4845551,27.6334757 C61.474906,27.9990814 52.5292919,31.1036606 52.5292919,36.57021 L52.5292919,43.7490562 L52.5292919,50.9270257 C52.5292919,53.1040012 53.9512217,54.9074803 56.2301691,56.3102837 L47.1424498,56.3102837 C42.4468358,56.3102837 38.5792919,52.6288016 38.2292919,48.0091947 C40.1222744,45.4964232 41.6406954,42.7688474 42.5635024,40.1342073 C44.1547305,35.5908779 43.8213972,31.8778327 41.624906,29.6841989 L37.0503446,25.1101832 C37.7582393,23.0752415 38.1643796,20.898266 38.1643796,18.6239711 L38.1643796,13.9193193 C38.1643796,13.9193193 37.2538533,10.4263389 34.5740288,6.82990171 L34.5740288,7.30948512 C30.9968358,2.22344614 25.093327,-1.11610264 18.4143796,-1.11610264 C7.52402876,-1.11610264 -1.33737475,7.7399704 -1.33737475,18.6239711 C-1.33737475,26.3893645 3.18367788,33.1035321 9.72139718,36.3238426 C6.11613402,41.9902915 4.15736209,48.9709918 7.78280069,52.584964 C8.00122174,52.804152 8.25473052,52.9724884 8.50034455,53.1539761 L8.49859016,53.1557296 L13.3196428,57.9743592 C14.6020989,59.2579243 16.4029761,59.9040906 18.5845551,59.9040906 C20.1380638,59.9040906 21.8845551,59.573555 23.7775375,58.9133607 C27.7108709,57.5359831 31.8696428,54.8478612 35.1845551,51.5372452 C35.216134,51.5048054 35.2468358,51.4706121 35.2775375,51.4381722 C36.9898182,56.3462305 41.6801691,59.8997068 47.1424498,59.8997068 L97.4178884,59.8997068 L97.4178884,56.3102837 L88.3310463,56.3102837 Z" id="Fill-23" fill="#263357" mask="url(#mask-14)"></path>
                            </g>
                            <g id="Group-28" transform="translate(26.362205, 0.173228)"></g>
                            <g id="Group-31" transform="translate(75.803150, 191.000000)">
                                <mask id="mask-16" fill="white">
                                    <use xlink:href="#path-15"></use>
                                </mask>
                                <use id="Clip-30" fill="#D20A11" xlink:href="#path-15"></use>
                                <mask id="mask-18" fill="white">
                                    <use xlink:href="#path-17"></use>
                                </mask>
                                <g id="Clip-30-Copy"></g>
                                <polygon id="Fill-29" fill="#E2001A" mask="url(#mask-18)" points="-5.95097499 16.6100545 23.6540869 16.6100545 23.6540869 -5.63731072 -5.95097499 -5.63731072"></polygon>
                                <polygon id="Fill-29-Copy" fill="#D20A11" mask="url(#mask-18)" points="-5.91745418 -8.26050878 29.0825458 -8.26050878 29.0825458 -34.2605088 -5.91745418 -34.2605088"></polygon>
                            </g>
                            <g id="Group-34" transform="translate(56.905512, 191.000000)">
                                <mask id="mask-20" fill="white">
                                    <use xlink:href="#path-19"></use>
                                </mask>
                                <g id="Clip-33"></g>
                                <mask id="mask-22" fill="white">
                                    <use xlink:href="#path-21"></use>
                                </mask>
                                <use id="Clip-33" fill="#7F1824" xlink:href="#path-21"></use>
                                <mask id="mask-24" fill="white">
                                    <use xlink:href="#path-23"></use>
                                </mask>
                                <g id="Clip-33-Copy"></g>
                                <polygon id="Fill-32" fill="#E2001A" mask="url(#mask-24)" points="-5.61627308 16.6100545 25.0995465 16.6100545 25.0995465 -5.63731072 -5.61627308 -5.63731072"></polygon>
                                <polygon id="Fill-32-Copy" fill="#D20A11" mask="url(#mask-24)" points="-3.30399677 -8.26050878 22.6960032 -8.26050878 22.6960032 -27.2605088 -3.30399677 -27.2605088"></polygon>
                            </g>
                            <g id="Group-37" transform="translate(75.803150, 213.047244)">
                                <mask id="mask-26" fill="white">
                                    <use xlink:href="#path-25"></use>
                                </mask>
                                <g id="Clip-36"></g>
                                <polygon id="Fill-35" fill="#D20A11" mask="url(#mask-26)" points="-6.08293449 20.4409449 27.7869238 20.4409449 27.7869238 -6.09711286 -6.08293449 -6.09711286"></polygon>
                            </g>
                            <g id="Group-40" transform="translate(53.755906, 213.047244)">
                                <mask id="mask-28" fill="white">
                                    <use xlink:href="#path-27"></use>
                                </mask>
                                <g id="Clip-39"></g>
                                <polygon id="Fill-38" fill="#D20A11" mask="url(#mask-28)" points="-5.58320221 20.4409449 28.1462042 20.4409449 28.1462042 -6.09711286 -5.58320221 -6.09711286"></polygon>
                            </g>
                            <g id="Group-43" transform="translate(58.330709, 233.519685)">
                                <mask id="mask-30" fill="white">
                                    <use xlink:href="#path-29"></use>
                                </mask>
                                <g id="Clip-42"></g>
                                <g id="Group-9" mask="url(#mask-30)">
                                    <g transform="translate(75.935343, -54.183771) rotate(-10.000000) translate(-75.935343, 54.183771) translate(-11.064657, -61.183771)">
                                        <g id="Group-3" stroke-width="1" fill="none" transform="translate(131.000000, 1.887300)">
                                            <mask id="mask-32" fill="white">
                                                <use xlink:href="#path-31"></use>
                                            </mask>
                                            <g id="Clip-2"></g>
                                            <path d="M3.01797267,0.852247022 C1.71297267,0.852247022 0.650972666,1.91424702 0.650972666,3.21924702 C0.650972666,4.52424702 1.71297267,5.58624702 3.01797267,5.58624702 C4.32297267,5.58624702 5.38497267,4.52424702 5.38497267,3.21924702 C5.38497267,1.91424702 4.32297267,0.852247022 3.01797267,0.852247022" id="Fill-1" fill="#263357" mask="url(#mask-32)"></path>
                                        </g>
                                        <g id="Group-6" stroke-width="1" fill="none" transform="translate(0.000000, 0.887300)">
                                            <mask id="mask-34" fill="white">
                                                <use xlink:href="#path-33"></use>
                                            </mask>
                                            <g id="Clip-5"></g>
                                            <path d="M150.370109,0.185719386 L118.465749,0.185719386 L110.819787,0.185719386 L73.834266,0.185719386 L48.4554551,0.185719386 L45.1140691,0.185719386 L16.7114945,0.185719386 C15.7888019,0.185719386 15.0408016,1.12771939 15.0408016,2.28971939 C15.0408016,3.45171939 15.7888019,4.39371939 16.7114945,4.39371939 L150.370109,4.39371939 C151.292801,4.39371939 152.040802,3.45171939 152.040802,2.28971939 C152.040802,1.12771939 151.292801,0.185719386 150.370109,0.185719386" id="Fill-4" fill="#263357" mask="url(#mask-34)"></path>
                                        </g>
                                        <path d="M135.876702,9.48901939 L26.4657016,9.48901939 C25.3037016,9.48901939 24.3617016,10.4310194 24.3617016,11.5930194 C24.3617016,12.7560194 25.3037016,13.6970194 26.4657016,13.6970194 L135.876702,13.6970194 C137.038702,13.6970194 137.980702,12.7560194 137.980702,11.5930194 C137.980702,10.4310194 137.038702,9.48901939 135.876702,9.48901939" id="Fill-7" fill="#263357" opacity="0.892299107"></path>
                                    </g>
                                </g>
                                <polygon id="Fill-41" fill="#009EE0" mask="url(#mask-30)" points="-6.95763041 34.4469199 41.2504123 34.4469199 41.2504123 -5.71056044 -6.95763041 -5.71056044"></polygon>
                                <path d="M22.6692913,9.97244094 C23.1950727,9.97244094 23.7106975,9.75837834 24.0825727,9.38650334 C24.4544475,9.01462834 24.6692913,8.49822214 24.6692913,7.97244094 C24.6692913,7.44665954 24.4552289,6.93025334 24.0825727,6.55837834 C23.7106975,6.18650334 23.1950727,5.97244094 22.6692913,5.97244094 C22.1427289,5.97244094 21.6271039,6.18650334 21.2552289,6.55837834 C20.8833539,6.93025334 20.6692913,7.44665954 20.6692913,7.97244094 C20.6692913,8.49822214 20.8825727,9.01462834 21.2552289,9.38650334 C21.6271039,9.75837834 22.1435101,9.97244094 22.6692913,9.97244094 Z" id="Path" fill="#000000" fill-rule="nonzero" mask="url(#mask-30)"></path>
                            </g>
                            <text id="€" font-family="Bariol-Bold, Bariol" font-size="33.4706" font-weight="bold" fill="#263357">
                                <tspan x="11.4841206" y="234.645669">€</tspan>
                            </text>
                            <g id="Group-50" transform="translate(0.787402, 175.023622)" fill="#263357">
                                <path d="M86.7124671,84.1850394 L86.7124671,81.0422587 C88.1822321,80.5925879 89.5202184,80.0675625 90.649475,79.4606299 L90.649475,81.2077113 C90.649475,82.1316249 89.2403089,83.241468 86.7124671,84.1850394 L86.7124671,84.1850394 Z M82.7754592,78.4354266 C80.765551,78.9632267 78.3894968,79.3436481 75.688845,79.4606299 L75.688845,75.6904978 C78.1159693,75.5845693 80.5361688,75.2621783 82.7754592,74.7362205 L82.7754592,78.4354266 Z M82.7754592,85.5213197 C80.765551,86.0490169 78.3894968,86.430285 75.688845,86.5472441 L75.688845,82.7769259 C78.1159693,82.6710181 80.5361688,82.34869 82.7754592,81.8228346 L82.7754592,85.5213197 Z M58.3660104,66.8617559 C58.3660104,64.6132278 64.653768,61.3503937 74.5077427,61.3503937 C84.3617173,61.3503937 90.649475,64.6132278 90.649475,66.8617559 C90.649475,69.1111816 84.3617173,72.3740157 74.5077427,72.3740157 C64.653768,72.3740157 58.3660104,69.1111816 58.3660104,66.8617559 L58.3660104,66.8617559 Z M72.5392387,79.4606299 C69.8394525,79.3436481 67.4633983,78.9650689 65.4526246,78.4354266 L65.4526246,74.7362205 C67.6910494,75.2621783 70.1121145,75.5845693 72.5392387,75.6904978 L72.5392387,79.4606299 Z M72.5392387,86.5472441 C69.8394525,86.430285 67.4633983,86.0508588 65.4526246,85.5213197 L65.4526246,81.8228346 C67.6910494,82.34869 70.1121145,82.6710181 72.5392387,82.7769259 L72.5392387,86.5472441 Z M62.3030183,77.0984252 C59.7748322,76.1540348 58.3660104,75.0441917 58.3660104,74.1210971 L58.3660104,72.3740157 C59.4959528,72.9809484 60.831689,73.5051547 62.3030183,73.9548254 L62.3030183,77.0984252 Z M62.3030183,84.1850394 C59.7748322,83.241468 58.3660104,82.1316249 58.3660104,81.2077113 L58.3660104,79.4606299 C59.4959528,80.0675625 60.831689,80.5925879 62.3030183,81.0422587 L62.3030183,84.1850394 Z M90.649475,74.1210971 C90.649475,75.0441917 89.2403089,76.1540348 86.7124671,77.0984252 L86.7124671,73.9548254 C88.1822321,73.5051547 89.5202184,72.9809484 90.649475,72.3740157 L90.649475,74.1210971 Z M36.0776264,77.8858268 L33.16916,75.0517315 C34.8283522,73.2502604 36.2932327,71.2585236 37.4644272,69.2244094 L40.2557742,71.9452101 C39.1866155,74.0009454 37.7501277,76.0437081 36.0776264,77.8858268 L36.0776264,77.8858268 Z M27.2418827,84.1850394 L24.5077427,81.3787225 C26.5413078,80.2083909 28.5231064,78.7547719 30.3254473,77.0984252 L33.16916,80.0162866 C31.3297196,81.6832565 29.2927034,83.1182848 27.2418827,84.1850394 L27.2418827,84.1850394 Z M17.718828,85.6581195 L16.6337269,84.5825533 C18.0497838,84.3898476 19.539085,83.9865103 21.0573222,83.3976378 L23.7203411,86.0399455 C20.9822694,86.8251088 18.7695675,86.6996261 17.718828,85.6581195 L17.718828,85.6581195 Z M12.7862993,80.193751 C10.8795836,78.3446878 12.1929815,73.0572415 15.6507744,68.0638279 C17.3286138,68.5147353 19.0874402,68.7744786 20.9096477,68.7744786 C27.5989981,68.7744786 33.5145704,65.5212589 37.1061679,60.5629921 C36.9081018,64.0596675 34.3816595,69.3711165 29.7425127,73.8784759 C23.4228857,80.0163026 15.1375632,82.4817202 12.7862993,80.193751 L12.7862993,80.193751 Z M4.8227033,49.1452312 C4.8227033,40.2443427 12.062716,33.003937 20.9648737,33.003937 C29.865279,33.003937 37.1061679,40.2443427 37.1061679,49.1452312 C37.1061679,58.0469959 29.865279,65.2874016 20.9648737,65.2874016 C12.062716,65.2874016 4.8227033,58.0469959 4.8227033,49.1452312 L4.8227033,49.1452312 Z M39.8680026,61.3503937 L40.9392044,62.4308965 C41.9834689,63.4824411 42.1091757,65.6923136 41.3217123,68.4370079 L38.680971,65.7755684 C39.2690994,64.2588828 39.6785445,62.7657257 39.8680026,61.3503937 L39.8680026,61.3503937 Z M90.2544208,86.1379535 C92.5248771,84.7487769 93.9429287,82.9628167 93.9429287,80.8069883 L93.9429287,73.6987451 L93.9429287,66.5896338 C93.9429287,61.1761861 85.026339,58.1017646 76.0468025,57.7397104 L76.2883816,-1.36424205e-12 L72.7091563,-1.36424205e-12 L72.4675773,57.7397104 C63.4880408,58.1017646 54.5723254,61.1761861 54.5723254,66.5896338 L54.5723254,73.6987451 L54.5723254,80.8069883 C54.5723254,82.9628167 55.9895028,84.7487769 58.2608333,86.1379535 L49.2034875,86.1379535 C44.5235675,86.1379535 40.66895,82.4922331 40.3201198,77.9175009 C42.2067754,75.4291383 43.7201215,72.728058 44.6398442,70.1190106 C46.225754,65.6198148 45.8935348,61.942838 43.7043848,59.770513 L39.1451128,55.240929 C39.8506415,53.2257547 40.2554245,51.0699262 40.2554245,48.8177236 L40.2554245,44.1587725 C40.2554245,44.1587725 39.3479414,40.6997227 36.6770735,37.1382212 L36.6770735,37.6131459 C33.1118364,32.5765124 27.2280588,29.2694038 20.5714342,29.2694038 C9.71748177,29.2694038 0.885695428,38.0394495 0.885695428,48.8177236 C0.885695428,56.5076844 5.3916375,63.156631 11.907506,66.3456596 C8.31429259,71.9570649 6.3620674,78.8699551 9.97538882,82.4488214 C10.1930799,82.6658802 10.4457413,82.8325814 10.6905345,83.0123061 L15.4937253,87.7858643 C16.7718952,89.0569609 18.5667533,89.6968504 20.7410409,89.6968504 C22.2893574,89.6968504 24.0300114,89.3695257 25.916667,88.7157444 C29.8368541,87.3517466 33.9817263,84.6897369 37.2855593,81.4112801 C37.3170327,81.3791554 37.3476318,81.3452942 37.378231,81.3131695 C39.0847888,86.1735512 43.7594632,89.6925092 49.2034875,89.6925092 L99.3108923,89.6925092 L99.3108923,86.1379535 L90.2544208,86.1379535 Z" id="Fill-48"></path>
                            </g>
                        </g>
                    </g>
                </g>
            </g>
        </g>
    </g>
</svg>