<?xml version="1.0" encoding="UTF-8"?>
<svg width="21px" height="24px" viewBox="0 0 21 24" version="1.1" xmlns="http://www.w3.org/2000/svg" xmlns:xlink="http://www.w3.org/1999/xlink">
    <!-- Generator: sketchtool 57.1 (101010) - https://sketch.com -->
    <title>BFCA221F-DDFC-44F9-86B1-40D2D4FFE8D6</title>
    <desc>Created with sketchtool.</desc>
    <g id="Layouts" stroke="none" stroke-width="1" fill="none" fill-rule="evenodd">
        <g id="01_320px_IKKBB_nav_1" transform="translate(-28.000000, -249.000000)" fill="#1B93C7" fill-rule="nonzero">
            <g id="Leistungen,-Versicherung-Service" transform="translate(25.000000, 249.000000)">
                <path d="M24,18 L24,0.75 C24,0.3375 23.6625,0 23.25,0 L6.75,0 C4.678125,0 3,1.678125 3,3.75 L3,20.25 C3,22.321875 4.678125,24 6.75,24 L23.25,24 C23.6625,24 24,23.6625 24,23.25 L24,22.5 C24,22.134375 23.7375,21.8296875 23.3953125,21.7640625 C23.1984375,21.1546875 23.1984375,19.3453125 23.3953125,18.7359375 C23.7421875,18.665625 24,18.365625 24,18 Z M21.46875,21.75 L6.75,21.75 C5.9203125,21.75 5.25,21.0796875 5.25,20.25 C5.25,19.425 5.925,18.75 6.75,18.75 L21.46875,18.75 C21.3421875,19.5609375 21.3421875,20.9390625 21.46875,21.75 Z M21.75,16.5 L6.75,16.5 C6.215625,16.5 5.709375,16.6125 5.25,16.8140625 L5.25,3.75 C5.25,2.9203125 5.9203125,2.25 6.75,2.25 L21.75,2.25 L21.75,16.5 Z M13.1015625,13.3359375 C13.321875,13.5515625 13.678125,13.5515625 13.8984375,13.3359375 L17.3015625,9.99375 C18.290625,9.0234375 18.2296875,7.4109375 17.128125,6.515625 C16.0265625,5.6203125 14.5828125,6.01875 13.846875,6.740625 L13.5,7.0828125 L13.153125,6.740625 C12.4359375,6.0328125 10.9875,5.6109375 9.871875,6.515625 C8.765625,7.4109375 8.709375,9.0234375 9.6984375,9.99375 L13.1015625,13.3359375 Z" id="Leistungen"></path>
            </g>
        </g>
    </g>
</svg>