<?xml version="1.0" encoding="UTF-8"?>
<svg width="29px" height="29px" viewBox="0 0 29 29" version="1.1" xmlns="http://www.w3.org/2000/svg" xmlns:xlink="http://www.w3.org/1999/xlink">
    <!-- Generator: sketchtool 57.1 (101010) - https://sketch.com -->
    <title>30CC51AA-4933-40F0-B1D9-A4B8F477913F</title>
    <desc>Created with sketchtool.</desc>
    <g id="Layouts" stroke="none" stroke-width="1" fill="none" fill-rule="evenodd">
        <g id="01_320px_IKKBB_nav_1" transform="translate(-23.000000, -331.000000)" fill="#1B93C7" fill-rule="nonzero">
            <g id="Über-die-IKK-BB,-Meine-IKKBB" transform="translate(23.000000, 331.000000)">
                <g id="street-view-regular">
                    <g id="service">
                        <path d="M9.47507508,19.1664309 L9.47507508,21.7369369 C9.47507508,23.4849489 10.897033,24.9069069 12.645045,24.9069069 L16.2678679,24.9069069 C18.0158799,24.9069069 19.4378378,23.4849489 19.4378378,21.7369369 L19.4378378,19.1664309 C20.5082688,18.6569715 21.2492492,17.564464 21.2492492,16.3027027 L21.2492492,12.227027 C21.2492492,10.5978889 20.2818423,9.19970571 18.8978108,8.5475976 C19.5187853,7.66453453 19.8906907,6.5941036 19.8906907,5.43423423 C19.8906907,2.43748048 17.4532102,0 14.4564565,0 C11.4597027,0 9.02222222,2.43748048 9.02222222,5.43423423 C9.02222222,6.5941036 9.39412763,7.66453453 10.0156682,8.5475976 C8.63107057,9.19970571 7.66366366,10.5978889 7.66366366,12.227027 L7.66366366,16.3027027 C7.66366366,17.56503 8.40464414,18.6569715 9.47507508,19.1664309 Z M14.4564565,2.6996997 C15.9474781,2.6996997 17.1561562,3.90837775 17.1561562,5.3993994 C17.1561562,6.89042105 15.9474781,8.0990991 14.4564565,8.0990991 C12.9654348,8.0990991 11.7567568,6.89042105 11.7567568,5.3993994 C11.7567568,3.90837775 12.9654348,2.6996997 14.4564565,2.6996997 Z M10.3633634,12.2444444 C10.3633634,11.495539 10.9761904,10.8858859 11.7277277,10.8858859 L17.1851852,10.8858859 C17.9367226,10.8858859 18.5495495,11.495539 18.5495495,12.2444444 L18.5495495,16.3201201 C18.5495495,16.5697553 18.3454634,16.772973 18.0947614,16.772973 L16.7303971,16.772973 L16.7303971,21.7543544 C16.7303971,22.0039895 16.5263109,22.2072072 16.2756089,22.2072072 L12.637304,22.2072072 C12.386602,22.2072072 12.1825158,22.0039895 12.1825158,21.7543544 L12.1825158,16.772973 L10.8181515,16.772973 C10.5674495,16.772973 10.3633634,16.5697553 10.3633634,16.3201201 L10.3633634,12.2444444 Z M22.2943164,18.9855512 C22.0167773,19.4187217 21.6967578,19.8252791 21.296875,20.1570934 L21.296875,20.9775692 C24.3090234,21.5517325 26.28125,22.4956478 26.28125,23.5647012 C26.28125,25.316069 21.006875,26.7356225 14.5,26.7356225 C7.993125,26.7356225 2.71875,25.3155028 2.71875,23.564135 C2.71875,22.4950816 4.69097656,21.5517325 7.703125,20.977003 L7.703125,20.1565271 C7.30324219,19.8247129 6.98322266,19.4187217 6.70568359,18.984985 C2.67796875,19.9509835 0,21.6389328 0,23.564135 C0,26.5663179 6.49214844,29 14.5,29 C22.5078516,29 29,26.5663179 29,23.564135 C29,21.6389328 26.3220312,19.9509835 22.2943164,18.9855512 Z" id="Shape"></path>
                    </g>
                </g>
            </g>
        </g>
    </g>
</svg>