<?xml version="1.0" encoding="UTF-8"?>
<svg width="27px" height="21px" viewBox="0 0 27 21" version="1.1" xmlns="http://www.w3.org/2000/svg" xmlns:xlink="http://www.w3.org/1999/xlink">
    <!-- Generator: sketchtool 57.1 (101010) - https://sketch.com -->
    <title>9B7EF21A-0739-42BF-8A19-B13D53279FB9</title>
    <desc>Created with sketchtool.</desc>
    <g id="Layouts" stroke="none" stroke-width="1" fill="none" fill-rule="evenodd">
        <g id="01_320px_IKKBB_nav_1" transform="translate(-25.000000, -288.000000)" fill="#1B93C7" fill-rule="nonzero">
            <g id="Leistungen,-Versicherung-Service" transform="translate(25.000000, 249.000000)">
                <path d="M26.2625,49.9613856 L21.4625,48.085868 C21.2916667,48.019183 20.9375,47.9316588 20.5375,48.085868 L15.7375,49.9613856 C15.2916667,50.1364339 15,50.5448799 15,50.9991719 C15,55.6504554 17.8625,58.86801 20.5375,59.914132 C20.9375,60.0683412 21.2875,59.980817 21.4625,59.914132 C23.6,59.0805686 27,56.1881038 27,50.9991719 C27,50.5448799 26.7083333,50.1364339 26.2625,49.9613856 Z M20,58 L20,50 L25,51.5780011 C24.7068063,55.2628239 21.8115183,57.3061872 20,58 L20,58 Z M15.1650388,57.9230769 L2.04357626,57.9230769 L2.04357626,56.8153846 C2.04357626,54.7557692 3.69546707,53.0769231 5.72201352,53.0769231 C6.3436013,53.0769231 7.35261708,53.7692308 9.53668921,53.7692308 C11.5419484,53.7692308 12.5552216,53.1850962 13.172552,53.0985577 C13.0490859,52.4408654 12.9767092,51.7572115 12.955422,51.0432692 C11.8655147,51.1817308 11.273729,51.6923077 9.53243176,51.6923077 C7.52717255,51.6923077 6.94390183,51 5.71775607,51 C2.56298522,51 0,53.6048077 0,56.8153846 L0,57.9230769 C0,59.0697115 0.915351866,60 2.04357626,60 L17,60 C16.3400952,59.4072115 15.7142499,58.7149038 15.1650388,57.9230769 Z M10,51 C13.3125,51 16,48.3125 16,45 C16,41.6875 13.3125,39 10,39 C6.6875,39 4,41.6875 4,45 C4,48.3125 6.6875,51 10,51 Z M10,41 C12.2041667,41 14,42.7958333 14,45 C14,47.2041667 12.2041667,49 10,49 C7.79583333,49 6,47.2041667 6,45 C6,42.7958333 7.79583333,41 10,41 Z" id="Versicherung"></path>
            </g>
        </g>
    </g>
</svg>